%TF.GenerationSoftware,KiCad,Pcbnew,9.0.5*%
%TF.CreationDate,2025-10-29T14:00:37-04:00*%
%TF.ProjectId,MY-MP3,4d592d4d-5033-42e6-9b69-6361645f7063,rev?*%
%TF.SameCoordinates,Original*%
%TF.FileFunction,Paste,Bot*%
%TF.FilePolarity,Positive*%
%FSLAX46Y46*%
G04 Gerber Fmt 4.6, Leading zero omitted, Abs format (unit mm)*
G04 Created by KiCad (PCBNEW 9.0.5) date 2025-10-29 14:00:37*
%MOMM*%
%LPD*%
G01*
G04 APERTURE LIST*
G04 Aperture macros list*
%AMRoundRect*
0 Rectangle with rounded corners*
0 $1 Rounding radius*
0 $2 $3 $4 $5 $6 $7 $8 $9 X,Y pos of 4 corners*
0 Add a 4 corners polygon primitive as box body*
4,1,4,$2,$3,$4,$5,$6,$7,$8,$9,$2,$3,0*
0 Add four circle primitives for the rounded corners*
1,1,$1+$1,$2,$3*
1,1,$1+$1,$4,$5*
1,1,$1+$1,$6,$7*
1,1,$1+$1,$8,$9*
0 Add four rect primitives between the rounded corners*
20,1,$1+$1,$2,$3,$4,$5,0*
20,1,$1+$1,$4,$5,$6,$7,0*
20,1,$1+$1,$6,$7,$8,$9,0*
20,1,$1+$1,$8,$9,$2,$3,0*%
G04 Aperture macros list end*
%ADD10C,0.000000*%
%ADD11RoundRect,0.162500X0.367500X0.162500X-0.367500X0.162500X-0.367500X-0.162500X0.367500X-0.162500X0*%
%ADD12RoundRect,0.155000X0.155000X-0.212500X0.155000X0.212500X-0.155000X0.212500X-0.155000X-0.212500X0*%
%ADD13RoundRect,0.155000X-0.155000X0.212500X-0.155000X-0.212500X0.155000X-0.212500X0.155000X0.212500X0*%
%ADD14RoundRect,0.135000X-0.185000X0.135000X-0.185000X-0.135000X0.185000X-0.135000X0.185000X0.135000X0*%
%ADD15RoundRect,0.135000X0.135000X0.185000X-0.135000X0.185000X-0.135000X-0.185000X0.135000X-0.185000X0*%
%ADD16RoundRect,0.135000X0.185000X-0.135000X0.185000X0.135000X-0.185000X0.135000X-0.185000X-0.135000X0*%
%ADD17RoundRect,0.155000X-0.212500X-0.155000X0.212500X-0.155000X0.212500X0.155000X-0.212500X0.155000X0*%
%ADD18RoundRect,0.125000X-0.125000X0.125000X-0.125000X-0.125000X0.125000X-0.125000X0.125000X0.125000X0*%
%ADD19RoundRect,0.250001X-0.949999X1.412499X-0.949999X-1.412499X0.949999X-1.412499X0.949999X1.412499X0*%
%ADD20R,1.000000X4.600000*%
%ADD21R,1.600000X3.400000*%
%ADD22RoundRect,0.135000X-0.135000X-0.185000X0.135000X-0.185000X0.135000X0.185000X-0.135000X0.185000X0*%
%ADD23RoundRect,0.250000X-1.250000X-0.550000X1.250000X-0.550000X1.250000X0.550000X-1.250000X0.550000X0*%
%ADD24R,2.300000X1.600000*%
%ADD25RoundRect,0.155000X0.212500X0.155000X-0.212500X0.155000X-0.212500X-0.155000X0.212500X-0.155000X0*%
%ADD26R,0.700000X0.250000*%
%ADD27RoundRect,0.150000X0.200000X-0.150000X0.200000X0.150000X-0.200000X0.150000X-0.200000X-0.150000X0*%
%ADD28R,0.550000X1.200000*%
%ADD29R,1.600000X0.700000*%
%ADD30R,1.600000X1.200000*%
%ADD31R,2.200000X1.200000*%
%ADD32R,1.400000X1.600000*%
%ADD33R,0.300000X1.000000*%
%ADD34O,1.000000X1.600000*%
%ADD35O,1.000000X2.100000*%
%ADD36RoundRect,0.075000X0.075000X-0.662500X0.075000X0.662500X-0.075000X0.662500X-0.075000X-0.662500X0*%
%ADD37RoundRect,0.075000X0.662500X-0.075000X0.662500X0.075000X-0.662500X0.075000X-0.662500X-0.075000X0*%
%ADD38RoundRect,0.150000X-0.200000X0.150000X-0.200000X-0.150000X0.200000X-0.150000X0.200000X0.150000X0*%
%ADD39RoundRect,0.200000X-0.200000X0.250000X-0.200000X-0.250000X0.200000X-0.250000X0.200000X0.250000X0*%
%ADD40RoundRect,0.250000X1.250000X0.550000X-1.250000X0.550000X-1.250000X-0.550000X1.250000X-0.550000X0*%
%ADD41RoundRect,0.150000X0.512500X0.150000X-0.512500X0.150000X-0.512500X-0.150000X0.512500X-0.150000X0*%
%ADD42R,0.270000X0.630000*%
G04 APERTURE END LIST*
D10*
%TO.C,J2*%
G36*
X142725000Y-122040000D02*
G01*
X142325000Y-122040000D01*
X142325000Y-121040000D01*
X142725000Y-121040000D01*
X142725000Y-122040000D01*
G37*
G36*
X143500000Y-122040000D02*
G01*
X143100000Y-122040000D01*
X143100000Y-121040000D01*
X143500000Y-121040000D01*
X143500000Y-122040000D01*
G37*
G36*
X148400000Y-122040000D02*
G01*
X148000000Y-122040000D01*
X148000000Y-121040000D01*
X148400000Y-121040000D01*
X148400000Y-122040000D01*
G37*
G36*
X149175000Y-122040000D02*
G01*
X148775000Y-122040000D01*
X148775000Y-121040000D01*
X149175000Y-121040000D01*
X149175000Y-122040000D01*
G37*
%TO.C,U4*%
G36*
X136660000Y-111820000D02*
G01*
X136160000Y-111820000D01*
X136160000Y-111180000D01*
X136660000Y-111180000D01*
X136660000Y-111820000D01*
G37*
G36*
X137340000Y-111820000D02*
G01*
X136840000Y-111820000D01*
X136840000Y-111180000D01*
X137340000Y-111180000D01*
X137340000Y-111820000D01*
G37*
%TD*%
D11*
%TO.C,U7*%
X133850000Y-112550000D03*
X133850000Y-113500000D03*
X133850000Y-114450000D03*
X131650000Y-114450000D03*
X131650000Y-113500000D03*
X131650000Y-112550000D03*
%TD*%
D12*
%TO.C,C14*%
X158750000Y-115500000D03*
X158750000Y-114365000D03*
%TD*%
D13*
%TO.C,C11*%
X145750000Y-93670000D03*
X145750000Y-94805000D03*
%TD*%
D14*
%TO.C,R16*%
X135750000Y-125490000D03*
X135750000Y-126510000D03*
%TD*%
D15*
%TO.C,R3*%
X151260000Y-109000000D03*
X150240000Y-109000000D03*
%TD*%
D16*
%TO.C,R23*%
X137250000Y-108510000D03*
X137250000Y-107490000D03*
%TD*%
D12*
%TO.C,C21*%
X144250000Y-99567500D03*
X144250000Y-98432500D03*
%TD*%
D14*
%TO.C,R14*%
X143250000Y-118490000D03*
X143250000Y-119510000D03*
%TD*%
D17*
%TO.C,C26*%
X135682500Y-115500000D03*
X136817500Y-115500000D03*
%TD*%
%TO.C,C17*%
X152682500Y-93510000D03*
X153817500Y-93510000D03*
%TD*%
D14*
%TO.C,R15*%
X148250000Y-118490000D03*
X148250000Y-119510000D03*
%TD*%
D17*
%TO.C,C2*%
X135682500Y-119500000D03*
X136817500Y-119500000D03*
%TD*%
D18*
%TO.C,D1*%
X136250000Y-120900000D03*
X136250000Y-123100000D03*
%TD*%
D13*
%TO.C,C22*%
X148750000Y-106442500D03*
X148750000Y-107577500D03*
%TD*%
D19*
%TO.C,Y2*%
X148750000Y-94975000D03*
X148750000Y-100500000D03*
%TD*%
D13*
%TO.C,C13*%
X145750000Y-98670000D03*
X145750000Y-99805000D03*
%TD*%
D20*
%TO.C,J3*%
X157150000Y-124200000D03*
X155150000Y-124200000D03*
D21*
X159550000Y-119000000D03*
X152750000Y-119000000D03*
%TD*%
D14*
%TO.C,R21*%
X156750000Y-101490000D03*
X156750000Y-102510000D03*
%TD*%
D22*
%TO.C,R19*%
X152240000Y-113432500D03*
X153260000Y-113432500D03*
%TD*%
D13*
%TO.C,C16*%
X150250000Y-106442500D03*
X150250000Y-107577500D03*
%TD*%
D17*
%TO.C,C28*%
X141082500Y-117500000D03*
X142217500Y-117500000D03*
%TD*%
D12*
%TO.C,C15*%
X152750000Y-102567500D03*
X152750000Y-101432500D03*
%TD*%
D13*
%TO.C,C23*%
X147250000Y-106442500D03*
X147250000Y-107577500D03*
%TD*%
D17*
%TO.C,C29*%
X141082500Y-116000000D03*
X142217500Y-116000000D03*
%TD*%
D23*
%TO.C,C9*%
X151550000Y-87500000D03*
X155950000Y-87500000D03*
%TD*%
D24*
%TO.C,SW1*%
X159900000Y-105450000D03*
X153600000Y-105450000D03*
%TD*%
D17*
%TO.C,C27*%
X135682500Y-114000000D03*
X136817500Y-114000000D03*
%TD*%
D25*
%TO.C,C30*%
X139717500Y-114000000D03*
X138582500Y-114000000D03*
%TD*%
D26*
%TO.C,U5*%
X139750000Y-115500000D03*
X139750000Y-116000000D03*
X139750000Y-116500000D03*
X139750000Y-117000000D03*
X139750000Y-117500000D03*
X139750000Y-118000000D03*
X138150000Y-118000000D03*
X138150000Y-117500000D03*
X138150000Y-117000000D03*
X138150000Y-116500000D03*
X138150000Y-116000000D03*
X138150000Y-115500000D03*
%TD*%
D16*
%TO.C,R22*%
X138250000Y-108510000D03*
X138250000Y-107490000D03*
%TD*%
%TO.C,R11*%
X151750000Y-98747500D03*
X151750000Y-97727500D03*
%TD*%
D15*
%TO.C,R18*%
X136761216Y-124315021D03*
X135741216Y-124315021D03*
%TD*%
D12*
%TO.C,C1*%
X151750000Y-107577500D03*
X151750000Y-106442500D03*
%TD*%
D13*
%TO.C,C20*%
X144250000Y-106442500D03*
X144250000Y-107577500D03*
%TD*%
D27*
%TO.C,D2*%
X150750000Y-110800000D03*
X150750000Y-112200000D03*
%TD*%
D16*
%TO.C,R20*%
X133750000Y-126510000D03*
X133750000Y-125490000D03*
%TD*%
D17*
%TO.C,C3*%
X131682500Y-110500000D03*
X132817500Y-110500000D03*
%TD*%
D28*
%TO.C,U3*%
X134200000Y-119300100D03*
X133250000Y-119300100D03*
X132300000Y-119300100D03*
X132300000Y-116699900D03*
X134200000Y-116699900D03*
%TD*%
D16*
%TO.C,R12*%
X144750000Y-119510000D03*
X144750000Y-118490000D03*
%TD*%
D29*
%TO.C,J1*%
X142250000Y-96250000D03*
X142250000Y-97350000D03*
X142250000Y-98450000D03*
X142250000Y-99550000D03*
X142250000Y-100650000D03*
X142250000Y-101750000D03*
X142250000Y-102850000D03*
X142250000Y-103950000D03*
X142250000Y-105050000D03*
D30*
X141650000Y-106250000D03*
D31*
X132150000Y-106250000D03*
X132150000Y-90750000D03*
D32*
X141750000Y-91650000D03*
%TD*%
D33*
%TO.C,J2*%
X147000000Y-121540000D03*
X146000000Y-121540000D03*
X145500000Y-121540000D03*
X144500000Y-121540000D03*
X144000000Y-121540000D03*
X145000000Y-121540000D03*
X146500000Y-121540000D03*
X147500000Y-121540000D03*
D34*
X150068000Y-126295000D03*
D35*
X150068000Y-122115000D03*
X141432000Y-122115000D03*
D34*
X141432000Y-126295000D03*
%TD*%
D16*
%TO.C,R13*%
X146750000Y-119510000D03*
X146750000Y-118490000D03*
%TD*%
D36*
%TO.C,U2*%
X140337500Y-84412500D03*
X139837500Y-84412500D03*
X139337500Y-84412500D03*
X138837500Y-84412500D03*
X138337500Y-84412500D03*
X137837500Y-84412500D03*
X137337500Y-84412500D03*
X136837500Y-84412500D03*
X136337500Y-84412500D03*
X135837500Y-84412500D03*
X135337500Y-84412500D03*
X134837500Y-84412500D03*
D37*
X133425000Y-83000000D03*
X133425000Y-82500000D03*
X133425000Y-82000000D03*
X133425000Y-81500000D03*
X133425000Y-81000000D03*
X133425000Y-80500000D03*
X133425000Y-80000000D03*
X133425000Y-79500000D03*
X133425000Y-79000000D03*
X133425000Y-78500000D03*
X133425000Y-78000000D03*
X133425000Y-77500000D03*
D36*
X134837500Y-76087500D03*
X135337500Y-76087500D03*
X135837500Y-76087500D03*
X136337500Y-76087500D03*
X136837500Y-76087500D03*
X137337500Y-76087500D03*
X137837500Y-76087500D03*
X138337500Y-76087500D03*
X138837500Y-76087500D03*
X139337500Y-76087500D03*
X139837500Y-76087500D03*
X140337500Y-76087500D03*
D37*
X141750000Y-77500000D03*
X141750000Y-78000000D03*
X141750000Y-78500000D03*
X141750000Y-79000000D03*
X141750000Y-79500000D03*
X141750000Y-80000000D03*
X141750000Y-80500000D03*
X141750000Y-81000000D03*
X141750000Y-81500000D03*
X141750000Y-82000000D03*
X141750000Y-82500000D03*
X141750000Y-83000000D03*
%TD*%
D16*
%TO.C,R25*%
X131750000Y-126510000D03*
X131750000Y-125490000D03*
%TD*%
D12*
%TO.C,C24*%
X148750000Y-110000000D03*
X148750000Y-108865000D03*
%TD*%
D24*
%TO.C,SW2*%
X159900000Y-110500000D03*
X153600000Y-110500000D03*
%TD*%
D38*
%TO.C,D3*%
X154750000Y-102700000D03*
X154750000Y-101300000D03*
%TD*%
D39*
%TO.C,Q1*%
X132300000Y-121500000D03*
X134200000Y-121500000D03*
X133250000Y-123500000D03*
%TD*%
D14*
%TO.C,R2*%
X136250000Y-107490000D03*
X136250000Y-108510000D03*
%TD*%
D40*
%TO.C,C10*%
X147950000Y-87500000D03*
X143550000Y-87500000D03*
%TD*%
D16*
%TO.C,R1*%
X135250000Y-108510000D03*
X135250000Y-107490000D03*
%TD*%
D17*
%TO.C,C25*%
X135682500Y-117000000D03*
X136817500Y-117000000D03*
%TD*%
D41*
%TO.C,U6*%
X157025000Y-113532500D03*
X157025000Y-114482500D03*
X157025000Y-115432500D03*
X154750000Y-115432500D03*
X154750000Y-113532500D03*
%TD*%
D42*
%TO.C,U4*%
X137500000Y-112490000D03*
X137000000Y-112490000D03*
X136500000Y-112490000D03*
X136000000Y-112490000D03*
X136000000Y-110510000D03*
X136500000Y-110510000D03*
X137000000Y-110510000D03*
X137500000Y-110510000D03*
%TD*%
M02*
