M48
; DRILL file {KiCad 9.0.5} date 2025-10-29T14:00:52-0400
; FORMAT={-:-/ absolute / metric / decimal}
; #@! TF.CreationDate,2025-10-29T14:00:52-04:00
; #@! TF.GenerationSoftware,Kicad,Pcbnew,9.0.5
; #@! TF.FileFunction,Plated,1,4,PTH
FMAT,2
METRIC
; #@! TA.AperFunction,Plated,PTH,ViaDrill
T1C0.300
; #@! TA.AperFunction,Plated,PTH,ComponentDrill
T2C0.400
; #@! TA.AperFunction,Plated,PTH,ComponentDrill
T3C0.500
; #@! TA.AperFunction,Plated,PTH,ComponentDrill
T4C0.600
; #@! TA.AperFunction,Plated,PTH,ComponentDrill
T5C0.800
; #@! TA.AperFunction,Plated,PTH,ComponentDrill
T6C1.000
%
G90
G05
T1
X131.05Y-78.75
X131.25Y-109.5
X131.5Y-76.0
X132.25Y-123.75
X132.5Y-88.5
X132.532Y-126.758
X132.75Y-109.25
X133.0Y-124.75
X133.0Y-126.0
X133.25Y-76.75
X134.0Y-87.5
X134.213Y-76.446
X134.321Y-107.606
X134.727Y-79.227
X134.75Y-82.0
X134.75Y-115.25
X135.0Y-126.0
X135.498Y-101.227
X135.5Y-87.0
X135.5Y-123.75
X135.55Y-102.0
X135.575Y-77.925
X135.575Y-83.223
X135.75Y-105.75
X135.874Y-106.874
X136.25Y-79.75
X136.25Y-81.25
X136.597Y-80.557
X136.75Y-126.51
X137.5Y-114.75
X137.75Y-106.5
X137.841Y-123.581
X137.915Y-111.498
X138.15Y-118.75
X138.195Y-86.178
X138.399Y-124.649
X138.42Y-80.08
X138.675Y-74.941
X138.75Y-120.0
X139.0Y-87.0
X139.0Y-88.25
X139.0Y-90.5
X139.049Y-115.0
X139.249Y-77.3
X139.29Y-74.469
X139.368Y-103.132
X139.5Y-79.0
X139.75Y-109.225
X139.75Y-113.0
X139.951Y-98.5
X140.0Y-82.0
X140.055Y-99.896
X140.25Y-93.0
X140.25Y-112.25
X140.5Y-96.25
X140.75Y-99.5
X141.0Y-95.5
X141.343Y-83.843
X141.681Y-94.097
X141.75Y-93.0
X142.0Y-110.25
X142.0Y-114.25
X142.452Y-119.838
X142.504Y-114.839
X142.771Y-93.11
X142.832Y-124.082
X142.925Y-105.875
X142.925Y-126.25
X143.0Y-78.5
X143.0Y-116.75
X143.551Y-112.943
X143.624Y-101.941
X143.718Y-82.032
X144.25Y-90.5
X144.25Y-97.0
X144.25Y-100.75
X144.25Y-105.25
X144.25Y-108.75
X145.175Y-96.112
X145.411Y-105.25
X145.5Y-113.75
X145.75Y-90.75
X146.043Y-105.78
X146.175Y-111.5
X146.5Y-97.75
X146.608Y-105.249
X147.0Y-93.75
X147.75Y-86.0
X147.758Y-105.515
X148.25Y-104.099
X148.532Y-105.468
X149.475Y-105.75
X149.5Y-118.0
X150.25Y-93.0
X150.25Y-105.75
X150.479Y-103.229
X150.5Y-89.925
X150.75Y-120.5
X151.199Y-103.765
X151.5Y-86.0
X151.5Y-93.5
X151.75Y-90.5
X152.347Y-92.737
X154.0Y-124.25
X154.75Y-93.5
X154.75Y-106.75
X155.0Y-80.0
X155.173Y-88.775
X157.822Y-104.322
X158.25Y-124.25
X160.25Y-107.5
X160.25Y-112.25
T6
X159.25Y-76.68
X159.25Y-79.22
X159.25Y-81.76
X159.25Y-84.3
X159.25Y-86.84
X159.25Y-89.38
X159.25Y-91.92
X159.25Y-94.46
X159.25Y-97.0
X159.25Y-99.54
X159.25Y-102.08
T2
G00X145.75Y-81.0
M15
G01X145.75Y-82.0
M16
G05
G00X150.25Y-76.5
M15
G01X151.25Y-76.5
M16
G05
G00X155.75Y-82.0
M15
G01X155.75Y-81.0
M16
G05
T3
G00X131.1Y-73.7
M15
G01X131.1Y-73.3
M16
G05
G00X131.95Y-77.35
M15
G01X131.55Y-77.35
M16
G05
G00X131.95Y-81.65
M15
G01X131.55Y-81.65
M16
G05
G00X131.95Y-82.85
M15
G01X131.55Y-82.85
M16
G05
G00X131.95Y-87.15
M15
G01X131.55Y-87.15
M16
G05
G00X135.4Y-73.7
M15
G01X135.4Y-73.3
M16
G05
T4
G00X141.432Y-122.665
M15
G01X141.432Y-121.565
M16
G05
G00X141.432Y-126.595
M15
G01X141.432Y-125.995
M16
G05
G00X150.068Y-122.665
M15
G01X150.068Y-121.565
M16
G05
G00X150.068Y-126.595
M15
G01X150.068Y-125.995
M16
G05
T5
G00X148.25Y-81.15
M15
G01X148.25Y-81.85
M16
G05
G00X153.25Y-81.85
M15
G01X153.25Y-81.15
M16
G05
M30
