%TF.GenerationSoftware,KiCad,Pcbnew,9.0.5*%
%TF.CreationDate,2025-10-29T14:00:37-04:00*%
%TF.ProjectId,MY-MP3,4d592d4d-5033-42e6-9b69-6361645f7063,rev?*%
%TF.SameCoordinates,Original*%
%TF.FileFunction,Legend,Top*%
%TF.FilePolarity,Positive*%
%FSLAX46Y46*%
G04 Gerber Fmt 4.6, Leading zero omitted, Abs format (unit mm)*
G04 Created by KiCad (PCBNEW 9.0.5) date 2025-10-29 14:00:37*
%MOMM*%
%LPD*%
G01*
G04 APERTURE LIST*
%ADD10C,0.120000*%
%ADD11C,0.203200*%
%ADD12C,0.100000*%
%ADD13C,0.200000*%
G04 APERTURE END LIST*
D10*
%TO.C,R6*%
X139370000Y-74143641D02*
X139370000Y-73836359D01*
X140130000Y-74143641D02*
X140130000Y-73836359D01*
%TO.C,J4*%
X157920000Y-100810000D02*
X157920000Y-75350000D01*
X157920000Y-103410000D02*
X157920000Y-102080000D01*
X159250000Y-103410000D02*
X157920000Y-103410000D01*
X160580000Y-75350000D02*
X157920000Y-75350000D01*
X160580000Y-100810000D02*
X157920000Y-100810000D01*
X160580000Y-100810000D02*
X160580000Y-75350000D01*
%TO.C,C8*%
X147850000Y-83950000D02*
X149650000Y-83950000D01*
X149650000Y-85049999D02*
X147850000Y-85050000D01*
X147850000Y-85050000D02*
G75*
G02*
X147850000Y-83950000I395124J550000D01*
G01*
X149650000Y-83949999D02*
G75*
G02*
X149650000Y-85049999I-395124J-550000D01*
G01*
%TO.C,C4*%
X139700001Y-84400000D02*
X139700000Y-82600000D01*
X140800000Y-82600000D02*
X140800000Y-84400000D01*
X139700000Y-82600000D02*
G75*
G02*
X140800000Y-82600000I550000J-395124D01*
G01*
X140800001Y-84400000D02*
G75*
G02*
X139700001Y-84400000I-550000J395124D01*
G01*
D11*
%TO.C,SW7*%
X133750000Y-109000000D02*
X133750000Y-109400000D01*
X133750000Y-111600000D02*
X133750000Y-112000000D01*
X134000000Y-108750000D02*
X139500000Y-108750000D01*
X135250000Y-109750000D02*
X135250000Y-111250000D01*
X135250000Y-109750000D02*
X138250000Y-109750000D01*
X138250000Y-109750000D02*
X138250000Y-111250000D01*
X138250000Y-111250000D02*
X135250000Y-111250000D01*
X139500000Y-112250000D02*
X134000000Y-112250000D01*
X139750000Y-109000000D02*
X139750000Y-109400000D01*
X139750000Y-111600000D02*
X139750000Y-112000000D01*
X133750000Y-109000000D02*
G75*
G02*
X134000000Y-108750000I250000J0D01*
G01*
X134000000Y-112250000D02*
G75*
G02*
X133750000Y-112000000I0J250000D01*
G01*
X139500000Y-108750000D02*
G75*
G02*
X139750000Y-109000000I1J-249999D01*
G01*
X139750000Y-112000000D02*
G75*
G02*
X139500000Y-112250000I-249999J-1D01*
G01*
D10*
%TO.C,LED1*%
X134150000Y-125000000D02*
X133350000Y-125000000D01*
D11*
%TO.C,SW8*%
X151750000Y-109400000D02*
X151750000Y-109000000D01*
X151750000Y-112000000D02*
X151750000Y-111600000D01*
X152000000Y-108750000D02*
X157500000Y-108750000D01*
X153250000Y-109750000D02*
X156250000Y-109750000D01*
X153250000Y-111250000D02*
X153250000Y-109750000D01*
X156250000Y-111250000D02*
X153250000Y-111250000D01*
X156250000Y-111250000D02*
X156250000Y-109750000D01*
X157500000Y-112250000D02*
X152000000Y-112250000D01*
X157750000Y-109400000D02*
X157750000Y-109000000D01*
X157750000Y-112000000D02*
X157750000Y-111600000D01*
X151750000Y-109000000D02*
G75*
G02*
X152000000Y-108750000I249999J1D01*
G01*
X152000000Y-112250000D02*
G75*
G02*
X151750000Y-112000000I-1J249999D01*
G01*
X157500000Y-108750000D02*
G75*
G02*
X157750000Y-109000000I0J-250000D01*
G01*
X157750000Y-112000000D02*
G75*
G02*
X157500000Y-112250000I-250000J0D01*
G01*
D10*
%TO.C,LED3*%
X135350000Y-127000000D02*
X136150000Y-127000000D01*
%TO.C,R5*%
X137870000Y-74153641D02*
X137870000Y-73846359D01*
X138630000Y-74153641D02*
X138630000Y-73846359D01*
%TO.C,C12*%
X139700000Y-89900000D02*
X139700000Y-88100000D01*
X140799999Y-88100000D02*
X140800000Y-89900000D01*
X139699999Y-88100000D02*
G75*
G02*
X140799999Y-88100000I550000J-395124D01*
G01*
X140800000Y-89900000D02*
G75*
G02*
X139700000Y-89900000I-550000J395124D01*
G01*
%TO.C,LED2*%
X131350000Y-127000000D02*
X132150000Y-127000000D01*
%TO.C,FB2*%
X137350200Y-87890000D02*
X137149800Y-87890000D01*
X137350200Y-88610000D02*
X137149800Y-88610000D01*
%TO.C,C19*%
X141200000Y-89900000D02*
X141200000Y-88100000D01*
X142299999Y-88100000D02*
X142300000Y-89900000D01*
X141199999Y-88100000D02*
G75*
G02*
X142299999Y-88100000I550000J-395124D01*
G01*
X142300000Y-89900000D02*
G75*
G02*
X141200000Y-89900000I-550000J395124D01*
G01*
%TO.C,C31*%
X141450000Y-110400000D02*
X141450000Y-108600000D01*
X142549999Y-108600000D02*
X142550000Y-110400000D01*
X141449999Y-108600000D02*
G75*
G02*
X142549999Y-108600000I550000J-395124D01*
G01*
X142550000Y-110400000D02*
G75*
G02*
X141450000Y-110400000I-550000J395124D01*
G01*
%TO.C,FB1*%
X137350200Y-86640000D02*
X137149800Y-86640000D01*
X137350200Y-87360000D02*
X137149800Y-87360000D01*
%TO.C,C7*%
X150850000Y-83950001D02*
X152650000Y-83950000D01*
X152650000Y-85050000D02*
X150850000Y-85050000D01*
X150850000Y-85050001D02*
G75*
G02*
X150850000Y-83950001I395124J550000D01*
G01*
X152650000Y-83950000D02*
G75*
G02*
X152650000Y-85050000I-395124J-550000D01*
G01*
%TO.C,R8*%
X146096359Y-85620000D02*
X146403641Y-85620000D01*
X146096359Y-86380000D02*
X146403641Y-86380000D01*
%TO.C,Y1*%
X135390000Y-77740000D02*
X135390000Y-85185000D01*
X135390000Y-85185000D02*
X139110000Y-85185000D01*
X139110000Y-85185000D02*
X139110000Y-77740000D01*
D12*
%TO.C,SW6*%
X140050000Y-115200000D02*
X140350000Y-114900000D01*
X140050000Y-117800001D02*
X140050000Y-115200000D01*
X140950000Y-118700000D02*
X140050000Y-117800001D01*
X141750000Y-113500000D02*
X141450000Y-113800000D01*
X142450000Y-120200000D02*
X142050000Y-119800000D01*
X143050000Y-112200000D02*
X142750000Y-112500000D01*
X144150000Y-111100000D02*
X144450000Y-110800000D01*
X144450000Y-110800000D02*
X147050000Y-110800000D01*
X144450000Y-122200000D02*
X143550000Y-121300000D01*
X147050000Y-110800000D02*
X147950000Y-111700000D01*
X147050000Y-122200000D02*
X144450000Y-122200000D01*
X147350000Y-121900000D02*
X147050000Y-122200000D01*
X148750000Y-120500000D02*
X148450000Y-120800000D01*
X149050000Y-112800000D02*
X149450000Y-113200000D01*
X150050000Y-119200000D02*
X149750000Y-119500000D01*
X150550000Y-114300000D02*
X151450000Y-115200000D01*
X151450000Y-115200000D02*
X151450000Y-117800000D01*
X151450000Y-117800000D02*
X151150000Y-118100000D01*
D13*
X148230662Y-111207453D02*
G75*
G02*
X148030662Y-111207453I-100000J0D01*
G01*
X148030662Y-111207453D02*
G75*
G02*
X148230662Y-111207453I100000J0D01*
G01*
D10*
%TO.C,C5*%
X139700000Y-78400000D02*
X139700000Y-76600000D01*
X140799999Y-76600000D02*
X140800000Y-78400000D01*
X139699999Y-76600000D02*
G75*
G02*
X140799999Y-76600000I550000J-395124D01*
G01*
X140800000Y-78400000D02*
G75*
G02*
X139700000Y-78400000I-550000J395124D01*
G01*
%TO.C,R7*%
X153403641Y-85620000D02*
X153096359Y-85620000D01*
X153403641Y-86380000D02*
X153096359Y-86380000D01*
%TO.C,R4*%
X134159985Y-80889906D02*
X134159985Y-80582624D01*
X134919985Y-80889906D02*
X134919985Y-80582624D01*
%TO.C,C18*%
X134350000Y-104050001D02*
X136150000Y-104050000D01*
X136150000Y-105150000D02*
X134350000Y-105150000D01*
X134350000Y-105150001D02*
G75*
G02*
X134350000Y-104050001I395124J550000D01*
G01*
X136150000Y-104050000D02*
G75*
G02*
X136150000Y-105150000I-395124J-550000D01*
G01*
%TO.C,U1*%
X138640000Y-92400000D02*
X139340000Y-92400000D01*
X138640000Y-93100000D02*
X138640000Y-92400000D01*
X138640000Y-106620000D02*
X138640000Y-105920000D01*
X139340000Y-106620000D02*
X138640000Y-106620000D01*
X152160000Y-92400000D02*
X152860000Y-92400000D01*
X152860000Y-92400000D02*
X152860000Y-93100000D01*
X152860000Y-105920000D02*
X152860000Y-106620000D01*
X152860000Y-106620000D02*
X152160000Y-106620000D01*
X139340000Y-107260000D02*
X138870000Y-107600000D01*
X138870000Y-106920000D01*
X139340000Y-107260000D01*
G36*
X139340000Y-107260000D02*
G01*
X138870000Y-107600000D01*
X138870000Y-106920000D01*
X139340000Y-107260000D01*
G37*
%TO.C,C6*%
X139700001Y-81400000D02*
X139700000Y-79600000D01*
X140800000Y-79600000D02*
X140800000Y-81400000D01*
X139700000Y-79600000D02*
G75*
G02*
X140800000Y-79600000I550000J-395124D01*
G01*
X140800001Y-81400000D02*
G75*
G02*
X139700001Y-81400000I-550000J395124D01*
G01*
%TD*%
M02*
