%TF.GenerationSoftware,KiCad,Pcbnew,9.0.5*%
%TF.CreationDate,2025-10-29T14:00:37-04:00*%
%TF.ProjectId,MY-MP3,4d592d4d-5033-42e6-9b69-6361645f7063,rev?*%
%TF.SameCoordinates,Original*%
%TF.FileFunction,Copper,L3,Inr*%
%TF.FilePolarity,Positive*%
%FSLAX46Y46*%
G04 Gerber Fmt 4.6, Leading zero omitted, Abs format (unit mm)*
G04 Created by KiCad (PCBNEW 9.0.5) date 2025-10-29 14:00:37*
%MOMM*%
%LPD*%
G01*
G04 APERTURE LIST*
%TA.AperFunction,ComponentPad*%
%ADD10R,1.700000X1.700000*%
%TD*%
%TA.AperFunction,ComponentPad*%
%ADD11C,1.700000*%
%TD*%
%TA.AperFunction,ComponentPad*%
%ADD12O,0.800000X1.200000*%
%TD*%
%TA.AperFunction,ComponentPad*%
%ADD13O,1.200000X0.800000*%
%TD*%
%TA.AperFunction,ComponentPad*%
%ADD14O,1.200000X2.200000*%
%TD*%
%TA.AperFunction,ComponentPad*%
%ADD15O,1.600000X2.300000*%
%TD*%
%TA.AperFunction,ComponentPad*%
%ADD16O,2.200000X1.200000*%
%TD*%
%TA.AperFunction,ComponentPad*%
%ADD17O,1.600000X2.500000*%
%TD*%
%TA.AperFunction,ComponentPad*%
%ADD18O,1.000000X1.600000*%
%TD*%
%TA.AperFunction,ComponentPad*%
%ADD19O,1.000000X2.100000*%
%TD*%
%TA.AperFunction,ViaPad*%
%ADD20C,0.600000*%
%TD*%
G04 APERTURE END LIST*
D10*
%TO.N,3.3V*%
%TO.C,J4*%
X159250000Y-102080000D03*
D11*
%TO.N,unconnected-(J4-Pin_2-Pad2)*%
X159250000Y-99540000D03*
%TO.N,GND*%
X159250000Y-97000000D03*
%TO.N,/SPI1_SCK*%
X159250000Y-94460000D03*
%TO.N,/SPI1_MISO*%
X159250000Y-91920000D03*
%TO.N,/SPI1_MOSI*%
X159250000Y-89380000D03*
%TO.N,/SPI1_NSS*%
X159250000Y-86840000D03*
%TO.N,/NRST*%
X159250000Y-84300000D03*
%TO.N,/TFT_DC*%
X159250000Y-81760000D03*
%TO.N,/TFT_SD_CS*%
X159250000Y-79220000D03*
%TO.N,/TIM1_CH1*%
X159250000Y-76680000D03*
%TD*%
D12*
%TO.N,N/C*%
%TO.C,SW3*%
X131100000Y-73500000D03*
X135400000Y-73500000D03*
%TD*%
D13*
%TO.N,N/C*%
%TO.C,SW4*%
X131750000Y-81650000D03*
X131750000Y-77350000D03*
%TD*%
%TO.N,N/C*%
%TO.C,SW5*%
X131750000Y-87150000D03*
X131750000Y-82850000D03*
%TD*%
D14*
%TO.N,Net-(C10-Pad2)*%
%TO.C,J7*%
X145750000Y-81500000D03*
D15*
%TO.N,unconnected-(J7-PadRN)*%
X148250000Y-81500000D03*
D16*
%TO.N,GNDA*%
X150750000Y-76500000D03*
D14*
%TO.N,Net-(C9-Pad2)*%
X155750000Y-81500000D03*
D17*
%TO.N,unconnected-(J7-PadTN)*%
X153250000Y-81500000D03*
%TD*%
D18*
%TO.N,unconnected-(J2-NC-PadNC1)*%
%TO.C,J2*%
X150068000Y-126295000D03*
D19*
%TO.N,unconnected-(J2-NC-PadNC2)*%
X150068000Y-122115000D03*
%TO.N,unconnected-(J2-NC-PadNC3)*%
X141432000Y-122115000D03*
D18*
%TO.N,GND*%
X141432000Y-126295000D03*
%TD*%
D20*
%TO.N,GNDA*%
X139500000Y-79000000D03*
X150479111Y-103229111D03*
X139000000Y-88250000D03*
X148532087Y-105467913D03*
X145175001Y-96111828D03*
%TO.N,3.3V_A*%
X147000000Y-93750000D03*
X139000000Y-87000000D03*
X151199249Y-103765225D03*
X150250000Y-105750000D03*
%TO.N,GND*%
X134726538Y-79226538D03*
X154750000Y-106750000D03*
X160250000Y-112250000D03*
X142000000Y-114250000D03*
X132750000Y-109250000D03*
X146500000Y-97750000D03*
X137500000Y-114750000D03*
X135874293Y-106874293D03*
X140250000Y-93000000D03*
X150750000Y-120500000D03*
X134750000Y-82000000D03*
X144250000Y-108750000D03*
X143623700Y-101941229D03*
X139249399Y-77299966D03*
X142452240Y-119838000D03*
X154750000Y-93500000D03*
X149500000Y-118000000D03*
X132250000Y-123750000D03*
X144250000Y-97000000D03*
X158250000Y-124250000D03*
X143000000Y-116750000D03*
X131500000Y-76000000D03*
X139000000Y-90500000D03*
%TO.N,1.8V*%
X131250000Y-109500000D03*
X138194581Y-86177658D03*
X132500000Y-88500000D03*
X133250000Y-76750000D03*
X134000000Y-87500000D03*
%TO.N,Net-(U2-XTALO)*%
X136250000Y-81250000D03*
%TO.N,Net-(U2-XTALI)*%
X136250000Y-79750000D03*
%TO.N,Net-(U2-RCAP)*%
X140000000Y-82000000D03*
%TO.N,Net-(C9-Pad1)*%
X151500000Y-86000000D03*
%TO.N,Net-(C10-Pad1)*%
X147750000Y-86000000D03*
%TO.N,3.3V*%
X138420247Y-80079753D03*
X140750000Y-99500000D03*
X144250000Y-105250000D03*
X135575000Y-77925000D03*
X136596592Y-80556817D03*
X151500000Y-93500000D03*
X135750000Y-105750000D03*
X135500000Y-87000000D03*
X144250000Y-100750000D03*
X160250000Y-107500000D03*
%TO.N,Net-(U1-PH0)*%
X145411000Y-105250000D03*
%TO.N,VBATT*%
X136750000Y-126510000D03*
X154000000Y-124250000D03*
X140250000Y-112250000D03*
X142000000Y-110250000D03*
%TO.N,/NRST*%
X155000000Y-80000000D03*
X146608123Y-105249000D03*
%TO.N,/VREF+*%
X149474997Y-105750000D03*
%TO.N,/BOOT0*%
X146175000Y-111500000D03*
X142925000Y-105875002D03*
X143551415Y-112943043D03*
%TO.N,VBUS*%
X135500000Y-123750000D03*
%TO.N,/SDMMC1_CK*%
X140055253Y-99895747D03*
%TO.N,/SDMMC1_D2*%
X141000000Y-95500000D03*
%TO.N,/SDMMC1_CMD*%
X139951000Y-98500000D03*
%TO.N,/SDMMC1_D0*%
X141681267Y-94096750D03*
%TO.N,/SDMMC1_D1*%
X144250000Y-90500000D03*
%TO.N,/SDMMC1_D3*%
X140500000Y-96250000D03*
%TO.N,/SPI2_MOSI*%
X150250000Y-93000000D03*
%TO.N,/SPI2_NSS*%
X151750000Y-90500000D03*
%TO.N,/SPI2_MISO*%
X150500000Y-89925000D03*
%TO.N,/SPI2_SCK*%
X152347052Y-92737114D03*
%TO.N,Net-(LED1-K)*%
X133000000Y-126000000D03*
%TO.N,Net-(LED2-A)*%
X132532289Y-126757718D03*
%TO.N,/GPIO0*%
X138675001Y-74940558D03*
%TO.N,/GPIO1*%
X139290190Y-74469207D03*
%TO.N,/LEFT*%
X143718413Y-82031587D03*
%TO.N,/RIGHT*%
X143000000Y-78500000D03*
%TO.N,Net-(U1-PH1)*%
X146043242Y-105780117D03*
%TO.N,/OTG_FS_DP*%
X141750000Y-93000000D03*
%TO.N,/OTG_FS_DM*%
X142771191Y-93110000D03*
%TO.N,Net-(U6-STAT)*%
X137840903Y-123580924D03*
X133000000Y-124750000D03*
X142831913Y-124081913D03*
X138399087Y-124649087D03*
%TO.N,/I2C1_SDA*%
X139368412Y-103131588D03*
X139750000Y-109224998D03*
X137750000Y-106500000D03*
X135550000Y-102000000D03*
X137914999Y-111497927D03*
%TO.N,/I2C1_SCL*%
X135498448Y-101226714D03*
%TO.N,/LED*%
X134750000Y-115250000D03*
%TO.N,/XDCS*%
X145750000Y-90750000D03*
%TO.N,/NVCC_LO*%
X138150000Y-118750000D03*
%TO.N,Net-(LED3-A)*%
X135000000Y-126000000D03*
%TO.N,Net-(U5-~{PB})*%
X157821587Y-104321587D03*
X142925000Y-126250000D03*
X134212500Y-76446057D03*
%TO.N,/BTN_VUP*%
X131050000Y-78750000D03*
X134320592Y-107606234D03*
%TO.N,/BTN_VDN*%
X155173000Y-88775000D03*
X145500000Y-113750000D03*
X141343413Y-83843413D03*
X139750000Y-113000000D03*
X142503689Y-114839000D03*
X135575001Y-83223421D03*
%TO.N,/BTN_TRACK*%
X147758490Y-105514564D03*
X148250000Y-104099000D03*
%TO.N,/NPB_OUT*%
X138750000Y-120000000D03*
%TO.N,/STM6601_NINT*%
X139049000Y-115000000D03*
%TD*%
%TA.AperFunction,Conductor*%
%TO.N,GND*%
G36*
X136937539Y-72020185D02*
G01*
X136983294Y-72072989D01*
X136994500Y-72124500D01*
X136994500Y-79063059D01*
X136974815Y-79130098D01*
X136922011Y-79175853D01*
X136852853Y-79185797D01*
X136789297Y-79156772D01*
X136782819Y-79150740D01*
X136760292Y-79128213D01*
X136760288Y-79128210D01*
X136629185Y-79040609D01*
X136629172Y-79040602D01*
X136483501Y-78980264D01*
X136483489Y-78980261D01*
X136328845Y-78949500D01*
X136328842Y-78949500D01*
X136171158Y-78949500D01*
X136171155Y-78949500D01*
X136016510Y-78980261D01*
X136016498Y-78980264D01*
X135870827Y-79040602D01*
X135870814Y-79040609D01*
X135739711Y-79128210D01*
X135739707Y-79128213D01*
X135628213Y-79239707D01*
X135628210Y-79239711D01*
X135540609Y-79370814D01*
X135540602Y-79370827D01*
X135480264Y-79516498D01*
X135480261Y-79516510D01*
X135449500Y-79671153D01*
X135449500Y-79828846D01*
X135480261Y-79983489D01*
X135480264Y-79983501D01*
X135540602Y-80129172D01*
X135540609Y-80129185D01*
X135628210Y-80260288D01*
X135628213Y-80260292D01*
X135739709Y-80371788D01*
X135740980Y-80372637D01*
X135741495Y-80373253D01*
X135744419Y-80375653D01*
X135743964Y-80376207D01*
X135746071Y-80378729D01*
X135753295Y-80382028D01*
X135768159Y-80405157D01*
X135785786Y-80426248D01*
X135787738Y-80435623D01*
X135791069Y-80440806D01*
X135796092Y-80475741D01*
X135796092Y-80524258D01*
X135776407Y-80591297D01*
X135744203Y-80624084D01*
X135744419Y-80624347D01*
X135741977Y-80626350D01*
X135740991Y-80627355D01*
X135739712Y-80628209D01*
X135739707Y-80628213D01*
X135628213Y-80739707D01*
X135628210Y-80739711D01*
X135540609Y-80870814D01*
X135540602Y-80870827D01*
X135480264Y-81016498D01*
X135480261Y-81016510D01*
X135449500Y-81171153D01*
X135449500Y-81328846D01*
X135480261Y-81483489D01*
X135480264Y-81483501D01*
X135540602Y-81629172D01*
X135540609Y-81629185D01*
X135628210Y-81760288D01*
X135628213Y-81760292D01*
X135739707Y-81871786D01*
X135739711Y-81871789D01*
X135870814Y-81959390D01*
X135870827Y-81959397D01*
X136016498Y-82019735D01*
X136016503Y-82019737D01*
X136171153Y-82050499D01*
X136171156Y-82050500D01*
X136171158Y-82050500D01*
X136328844Y-82050500D01*
X136328845Y-82050499D01*
X136483497Y-82019737D01*
X136629179Y-81959394D01*
X136760289Y-81871789D01*
X136769447Y-81862631D01*
X136782819Y-81849260D01*
X136844142Y-81815775D01*
X136913834Y-81820759D01*
X136969767Y-81862631D01*
X136994184Y-81928095D01*
X136994500Y-81936941D01*
X136994500Y-85447022D01*
X137007030Y-85558877D01*
X137007031Y-85558881D01*
X137019172Y-85612388D01*
X137019174Y-85612393D01*
X137056145Y-85718701D01*
X137136080Y-85838333D01*
X137182770Y-85890312D01*
X137293172Y-85982578D01*
X137319572Y-85994069D01*
X137334081Y-86006194D01*
X137351284Y-86014051D01*
X137360335Y-86028134D01*
X137373182Y-86038871D01*
X137378833Y-86056919D01*
X137389058Y-86072829D01*
X137393508Y-86103784D01*
X137394061Y-86105548D01*
X137394081Y-86107764D01*
X137394081Y-86247674D01*
X137374396Y-86314713D01*
X137337121Y-86351989D01*
X137241462Y-86413465D01*
X137241451Y-86413474D01*
X137188659Y-86459218D01*
X137094433Y-86567959D01*
X137094430Y-86567963D01*
X137034664Y-86698829D01*
X137014976Y-86765877D01*
X137001325Y-86860823D01*
X136994500Y-86908295D01*
X136994500Y-89376000D01*
X136994501Y-89376009D01*
X137006052Y-89483450D01*
X137006054Y-89483462D01*
X137017260Y-89534972D01*
X137051383Y-89637497D01*
X137051386Y-89637503D01*
X137129171Y-89758537D01*
X137129179Y-89758548D01*
X137174923Y-89811340D01*
X137174926Y-89811343D01*
X137174930Y-89811347D01*
X137283664Y-89905567D01*
X137283667Y-89905568D01*
X137283668Y-89905569D01*
X137386007Y-89952307D01*
X137414541Y-89965338D01*
X137481580Y-89985023D01*
X137481584Y-89985024D01*
X137624000Y-90005500D01*
X143402795Y-90005500D01*
X143469834Y-90025185D01*
X143515589Y-90077989D01*
X143525533Y-90147147D01*
X143517356Y-90176953D01*
X143480263Y-90266502D01*
X143480261Y-90266510D01*
X143449500Y-90421153D01*
X143449500Y-90578846D01*
X143480261Y-90733489D01*
X143480264Y-90733501D01*
X143540602Y-90879172D01*
X143540609Y-90879185D01*
X143628210Y-91010288D01*
X143628213Y-91010292D01*
X143739707Y-91121786D01*
X143739711Y-91121789D01*
X143870814Y-91209390D01*
X143870827Y-91209397D01*
X144016498Y-91269735D01*
X144016503Y-91269737D01*
X144171153Y-91300499D01*
X144171156Y-91300500D01*
X144171158Y-91300500D01*
X144328844Y-91300500D01*
X144328845Y-91300499D01*
X144483497Y-91269737D01*
X144622443Y-91212184D01*
X144629172Y-91209397D01*
X144629172Y-91209396D01*
X144629179Y-91209394D01*
X144760289Y-91121789D01*
X144825115Y-91056962D01*
X144886436Y-91023479D01*
X144956128Y-91028463D01*
X145012062Y-91070334D01*
X145027356Y-91097191D01*
X145040606Y-91129179D01*
X145040609Y-91129185D01*
X145128210Y-91260288D01*
X145128213Y-91260292D01*
X145239707Y-91371786D01*
X145239711Y-91371789D01*
X145370814Y-91459390D01*
X145370827Y-91459397D01*
X145516498Y-91519735D01*
X145516503Y-91519737D01*
X145671153Y-91550499D01*
X145671156Y-91550500D01*
X145671158Y-91550500D01*
X145828844Y-91550500D01*
X145828845Y-91550499D01*
X145983497Y-91519737D01*
X146129179Y-91459394D01*
X146260289Y-91371789D01*
X146371789Y-91260289D01*
X146459394Y-91129179D01*
X146519737Y-90983497D01*
X146550500Y-90828842D01*
X146550500Y-90671158D01*
X146550500Y-90671155D01*
X146550499Y-90671153D01*
X146546291Y-90650000D01*
X146519737Y-90516503D01*
X146486099Y-90435292D01*
X146459397Y-90370827D01*
X146459390Y-90370814D01*
X146371789Y-90239711D01*
X146371786Y-90239707D01*
X146349260Y-90217181D01*
X146315775Y-90155858D01*
X146320759Y-90086166D01*
X146362631Y-90030233D01*
X146428095Y-90005816D01*
X146436941Y-90005500D01*
X149598066Y-90005500D01*
X149665105Y-90025185D01*
X149710860Y-90077989D01*
X149719683Y-90105309D01*
X149730261Y-90158489D01*
X149730263Y-90158498D01*
X149790602Y-90304172D01*
X149790609Y-90304185D01*
X149878210Y-90435288D01*
X149878213Y-90435292D01*
X149989707Y-90546786D01*
X149989711Y-90546789D01*
X150120814Y-90634390D01*
X150120827Y-90634397D01*
X150266498Y-90694735D01*
X150266503Y-90694737D01*
X150421153Y-90725499D01*
X150421156Y-90725500D01*
X150421158Y-90725500D01*
X150578844Y-90725500D01*
X150578845Y-90725499D01*
X150733497Y-90694737D01*
X150815876Y-90660614D01*
X150885342Y-90653146D01*
X150947821Y-90684421D01*
X150975655Y-90728812D01*
X150977932Y-90727870D01*
X151040602Y-90879172D01*
X151040609Y-90879185D01*
X151128210Y-91010288D01*
X151128213Y-91010292D01*
X151239707Y-91121786D01*
X151239711Y-91121789D01*
X151370814Y-91209390D01*
X151370827Y-91209397D01*
X151516498Y-91269735D01*
X151516503Y-91269737D01*
X151671153Y-91300499D01*
X151671156Y-91300500D01*
X151671158Y-91300500D01*
X151828844Y-91300500D01*
X151828845Y-91300499D01*
X151983497Y-91269737D01*
X152122443Y-91212184D01*
X152129172Y-91209397D01*
X152129172Y-91209396D01*
X152129179Y-91209394D01*
X152260289Y-91121789D01*
X152371789Y-91010289D01*
X152459394Y-90879179D01*
X152519737Y-90733497D01*
X152550500Y-90578842D01*
X152550500Y-90421158D01*
X152550500Y-90421155D01*
X152550499Y-90421153D01*
X152519738Y-90266510D01*
X152519737Y-90266503D01*
X152482643Y-90176951D01*
X152475175Y-90107483D01*
X152506450Y-90045004D01*
X152566539Y-90009352D01*
X152597205Y-90005500D01*
X154466578Y-90005500D01*
X154484560Y-90005179D01*
X154484570Y-90005178D01*
X154484605Y-90005178D01*
X154493451Y-90004862D01*
X154511468Y-90003896D01*
X154652060Y-89973312D01*
X154717524Y-89948895D01*
X154843799Y-89879944D01*
X154945539Y-89778207D01*
X154987411Y-89722274D01*
X154987417Y-89722266D01*
X155032617Y-89639486D01*
X155032979Y-89638841D01*
X155057470Y-89614899D01*
X155081701Y-89590669D01*
X155082454Y-89590476D01*
X155082942Y-89590000D01*
X155090047Y-89588538D01*
X155141129Y-89575500D01*
X155199271Y-89575500D01*
X155266310Y-89595185D01*
X155303586Y-89632460D01*
X155384611Y-89758537D01*
X155384620Y-89758548D01*
X155430364Y-89811340D01*
X155430367Y-89811343D01*
X155430371Y-89811347D01*
X155539105Y-89905567D01*
X155539108Y-89905568D01*
X155539109Y-89905569D01*
X155641448Y-89952307D01*
X155669982Y-89965338D01*
X155737021Y-89985023D01*
X155737025Y-89985024D01*
X155879441Y-90005500D01*
X155879444Y-90005500D01*
X157775490Y-90005500D01*
X157775500Y-90005500D01*
X157882956Y-89993947D01*
X157934467Y-89982741D01*
X157934474Y-89982738D01*
X157937304Y-89982123D01*
X158006995Y-89987106D01*
X158062930Y-90028977D01*
X158074149Y-90046994D01*
X158094108Y-90086166D01*
X158094951Y-90087819D01*
X158219890Y-90259786D01*
X158370213Y-90410109D01*
X158542182Y-90535050D01*
X158550946Y-90539516D01*
X158601742Y-90587491D01*
X158618536Y-90655312D01*
X158595998Y-90721447D01*
X158550946Y-90760484D01*
X158542182Y-90764949D01*
X158370213Y-90889890D01*
X158219890Y-91040213D01*
X158094951Y-91212179D01*
X157998444Y-91401585D01*
X157932753Y-91603760D01*
X157899500Y-91813713D01*
X157899500Y-92026287D01*
X157909534Y-92089644D01*
X157931806Y-92230261D01*
X157932754Y-92236243D01*
X157980138Y-92382076D01*
X157998444Y-92438414D01*
X158094951Y-92627820D01*
X158219890Y-92799786D01*
X158370213Y-92950109D01*
X158542182Y-93075050D01*
X158550946Y-93079516D01*
X158601742Y-93127491D01*
X158618536Y-93195312D01*
X158595998Y-93261447D01*
X158550946Y-93300484D01*
X158542182Y-93304949D01*
X158370213Y-93429890D01*
X158219890Y-93580213D01*
X158094951Y-93752179D01*
X157998444Y-93941585D01*
X157932753Y-94143760D01*
X157899500Y-94353713D01*
X157899500Y-94566286D01*
X157925471Y-94730264D01*
X157932754Y-94776243D01*
X157996224Y-94971584D01*
X157998444Y-94978414D01*
X158094951Y-95167820D01*
X158219890Y-95339786D01*
X158370213Y-95490109D01*
X158542179Y-95615048D01*
X158542181Y-95615049D01*
X158542184Y-95615051D01*
X158551493Y-95619794D01*
X158602290Y-95667766D01*
X158619087Y-95735587D01*
X158596552Y-95801722D01*
X158551505Y-95840760D01*
X158542446Y-95845376D01*
X158542440Y-95845380D01*
X158488282Y-95884727D01*
X158488282Y-95884728D01*
X159120591Y-96517037D01*
X159057007Y-96534075D01*
X158942993Y-96599901D01*
X158849901Y-96692993D01*
X158784075Y-96807007D01*
X158767037Y-96870591D01*
X158134728Y-96238282D01*
X158134727Y-96238282D01*
X158095380Y-96292439D01*
X157998904Y-96481782D01*
X157933242Y-96683869D01*
X157933242Y-96683872D01*
X157900000Y-96893753D01*
X157900000Y-97106246D01*
X157933242Y-97316127D01*
X157933242Y-97316130D01*
X157998904Y-97518217D01*
X158095375Y-97707550D01*
X158134728Y-97761716D01*
X158767037Y-97129408D01*
X158784075Y-97192993D01*
X158849901Y-97307007D01*
X158942993Y-97400099D01*
X159057007Y-97465925D01*
X159120590Y-97482962D01*
X158488282Y-98115269D01*
X158488282Y-98115270D01*
X158542452Y-98154626D01*
X158542451Y-98154626D01*
X158551495Y-98159234D01*
X158602292Y-98207208D01*
X158619087Y-98275029D01*
X158596550Y-98341164D01*
X158551499Y-98380202D01*
X158542182Y-98384949D01*
X158370213Y-98509890D01*
X158219890Y-98660213D01*
X158094951Y-98832179D01*
X157998444Y-99021585D01*
X157932753Y-99223760D01*
X157899500Y-99433713D01*
X157899500Y-99646287D01*
X157909534Y-99709644D01*
X157926522Y-99816900D01*
X157932754Y-99856243D01*
X157992658Y-100040609D01*
X157998444Y-100058414D01*
X158094951Y-100247820D01*
X158219890Y-100419786D01*
X158333430Y-100533326D01*
X158366915Y-100594649D01*
X158361931Y-100664341D01*
X158320059Y-100720274D01*
X158289083Y-100737189D01*
X158157669Y-100786203D01*
X158157664Y-100786206D01*
X158042455Y-100872452D01*
X158042452Y-100872455D01*
X157956206Y-100987664D01*
X157956202Y-100987671D01*
X157905908Y-101122517D01*
X157899501Y-101182116D01*
X157899501Y-101182123D01*
X157899500Y-101182135D01*
X157899500Y-102977870D01*
X157899501Y-102977876D01*
X157905908Y-103037483D01*
X157956202Y-103172328D01*
X157956206Y-103172335D01*
X158042451Y-103287543D01*
X158042452Y-103287544D01*
X158042454Y-103287546D01*
X158081230Y-103316574D01*
X158123100Y-103372506D01*
X158128084Y-103442197D01*
X158094599Y-103503520D01*
X158033276Y-103537005D01*
X157982727Y-103537456D01*
X157900433Y-103521087D01*
X157900429Y-103521087D01*
X157742745Y-103521087D01*
X157742742Y-103521087D01*
X157588097Y-103551848D01*
X157588085Y-103551851D01*
X157442414Y-103612189D01*
X157442401Y-103612196D01*
X157311298Y-103699797D01*
X157311294Y-103699800D01*
X157199800Y-103811294D01*
X157199797Y-103811298D01*
X157112196Y-103942401D01*
X157112189Y-103942414D01*
X157051851Y-104088085D01*
X157051848Y-104088097D01*
X157021087Y-104242740D01*
X157021087Y-104400433D01*
X157051848Y-104555076D01*
X157051851Y-104555088D01*
X157112189Y-104700759D01*
X157112196Y-104700772D01*
X157199797Y-104831875D01*
X157199800Y-104831879D01*
X157311294Y-104943373D01*
X157311298Y-104943376D01*
X157442401Y-105030977D01*
X157442414Y-105030984D01*
X157588085Y-105091322D01*
X157588090Y-105091324D01*
X157742740Y-105122086D01*
X157742743Y-105122087D01*
X157742745Y-105122087D01*
X157900431Y-105122087D01*
X157900432Y-105122086D01*
X158055084Y-105091324D01*
X158177539Y-105040602D01*
X158200759Y-105030984D01*
X158200759Y-105030983D01*
X158200766Y-105030981D01*
X158331876Y-104943376D01*
X158443376Y-104831876D01*
X158530981Y-104700766D01*
X158591324Y-104555084D01*
X158622087Y-104400429D01*
X158622087Y-104242745D01*
X158622087Y-104242742D01*
X158622086Y-104242740D01*
X158607172Y-104167762D01*
X158591324Y-104088090D01*
X158568484Y-104032948D01*
X158530984Y-103942414D01*
X158530977Y-103942401D01*
X158443376Y-103811298D01*
X158443373Y-103811294D01*
X158331879Y-103699800D01*
X158267216Y-103656593D01*
X158222412Y-103602980D01*
X158213705Y-103533655D01*
X158243860Y-103470628D01*
X158303303Y-103433909D01*
X158349377Y-103430204D01*
X158352127Y-103430500D01*
X160147872Y-103430499D01*
X160207483Y-103424091D01*
X160342331Y-103373796D01*
X160457546Y-103287546D01*
X160543796Y-103172331D01*
X160594091Y-103037483D01*
X160600500Y-102977873D01*
X160600499Y-101182128D01*
X160594091Y-101122517D01*
X160545865Y-100993217D01*
X160543797Y-100987671D01*
X160543793Y-100987664D01*
X160457547Y-100872455D01*
X160457544Y-100872452D01*
X160342335Y-100786206D01*
X160342328Y-100786202D01*
X160210917Y-100737189D01*
X160154983Y-100695318D01*
X160130566Y-100629853D01*
X160145418Y-100561580D01*
X160166563Y-100533332D01*
X160280104Y-100419792D01*
X160405051Y-100247816D01*
X160501557Y-100058412D01*
X160567246Y-99856243D01*
X160600500Y-99646287D01*
X160600500Y-99433713D01*
X160567246Y-99223757D01*
X160501557Y-99021588D01*
X160405051Y-98832184D01*
X160405049Y-98832181D01*
X160405048Y-98832179D01*
X160280109Y-98660213D01*
X160129786Y-98509890D01*
X159957817Y-98384949D01*
X159948504Y-98380204D01*
X159897707Y-98332230D01*
X159880912Y-98264409D01*
X159903449Y-98198274D01*
X159948507Y-98159232D01*
X159957555Y-98154622D01*
X160011716Y-98115270D01*
X160011717Y-98115270D01*
X159379408Y-97482962D01*
X159442993Y-97465925D01*
X159557007Y-97400099D01*
X159650099Y-97307007D01*
X159715925Y-97192993D01*
X159732962Y-97129408D01*
X160365270Y-97761717D01*
X160365270Y-97761716D01*
X160404622Y-97707554D01*
X160501095Y-97518217D01*
X160566757Y-97316130D01*
X160566757Y-97316127D01*
X160600000Y-97106246D01*
X160600000Y-96893753D01*
X160566757Y-96683872D01*
X160566757Y-96683869D01*
X160501095Y-96481782D01*
X160404624Y-96292449D01*
X160365270Y-96238282D01*
X160365269Y-96238282D01*
X159732962Y-96870590D01*
X159715925Y-96807007D01*
X159650099Y-96692993D01*
X159557007Y-96599901D01*
X159442993Y-96534075D01*
X159379409Y-96517037D01*
X160011716Y-95884728D01*
X159957547Y-95845373D01*
X159957547Y-95845372D01*
X159948500Y-95840763D01*
X159897706Y-95792788D01*
X159880912Y-95724966D01*
X159903451Y-95658832D01*
X159948508Y-95619793D01*
X159957816Y-95615051D01*
X160037007Y-95557515D01*
X160129786Y-95490109D01*
X160129788Y-95490106D01*
X160129792Y-95490104D01*
X160280104Y-95339792D01*
X160280106Y-95339788D01*
X160280109Y-95339786D01*
X160405048Y-95167820D01*
X160405047Y-95167820D01*
X160405051Y-95167816D01*
X160501557Y-94978412D01*
X160567246Y-94776243D01*
X160600500Y-94566287D01*
X160600500Y-94353713D01*
X160567246Y-94143757D01*
X160501557Y-93941588D01*
X160405051Y-93752184D01*
X160405049Y-93752181D01*
X160405048Y-93752179D01*
X160280109Y-93580213D01*
X160129786Y-93429890D01*
X159957820Y-93304951D01*
X159957115Y-93304591D01*
X159949054Y-93300485D01*
X159898259Y-93252512D01*
X159881463Y-93184692D01*
X159903999Y-93118556D01*
X159949054Y-93079515D01*
X159957816Y-93075051D01*
X160020337Y-93029627D01*
X160129786Y-92950109D01*
X160129788Y-92950106D01*
X160129792Y-92950104D01*
X160280104Y-92799792D01*
X160280106Y-92799788D01*
X160280109Y-92799786D01*
X160405048Y-92627820D01*
X160405047Y-92627820D01*
X160405051Y-92627816D01*
X160501557Y-92438412D01*
X160567246Y-92236243D01*
X160600500Y-92026287D01*
X160600500Y-91813713D01*
X160567246Y-91603757D01*
X160501557Y-91401588D01*
X160405051Y-91212184D01*
X160405049Y-91212181D01*
X160405048Y-91212179D01*
X160280109Y-91040213D01*
X160129786Y-90889890D01*
X159957820Y-90764951D01*
X159957115Y-90764591D01*
X159949054Y-90760485D01*
X159898259Y-90712512D01*
X159881463Y-90644692D01*
X159903999Y-90578556D01*
X159949054Y-90539515D01*
X159957816Y-90535051D01*
X159983352Y-90516498D01*
X160129786Y-90410109D01*
X160129788Y-90410106D01*
X160129792Y-90410104D01*
X160280104Y-90259792D01*
X160280106Y-90259788D01*
X160280109Y-90259786D01*
X160353698Y-90158498D01*
X160405051Y-90087816D01*
X160426943Y-90044849D01*
X160474914Y-89994056D01*
X160542734Y-89977260D01*
X160572366Y-89982170D01*
X160576488Y-89983381D01*
X160582079Y-89985023D01*
X160582081Y-89985023D01*
X160582084Y-89985024D01*
X160724500Y-90005500D01*
X160724503Y-90005500D01*
X161125500Y-90005500D01*
X161192539Y-90025185D01*
X161238294Y-90077989D01*
X161249500Y-90129500D01*
X161249500Y-107197809D01*
X161229815Y-107264848D01*
X161177011Y-107310603D01*
X161107853Y-107320547D01*
X161044297Y-107291522D01*
X161010939Y-107245261D01*
X160959397Y-107120827D01*
X160959390Y-107120814D01*
X160871789Y-106989711D01*
X160871786Y-106989707D01*
X160760292Y-106878213D01*
X160760288Y-106878210D01*
X160629185Y-106790609D01*
X160629172Y-106790602D01*
X160483501Y-106730264D01*
X160483489Y-106730261D01*
X160328845Y-106699500D01*
X160328842Y-106699500D01*
X160171158Y-106699500D01*
X160171155Y-106699500D01*
X160016510Y-106730261D01*
X160016498Y-106730264D01*
X159870827Y-106790602D01*
X159870814Y-106790609D01*
X159739711Y-106878210D01*
X159739707Y-106878213D01*
X159628213Y-106989707D01*
X159628210Y-106989711D01*
X159540609Y-107120814D01*
X159540602Y-107120827D01*
X159480264Y-107266498D01*
X159480261Y-107266510D01*
X159449500Y-107421153D01*
X159449500Y-107578846D01*
X159480261Y-107733489D01*
X159480264Y-107733501D01*
X159540602Y-107879172D01*
X159540609Y-107879185D01*
X159628210Y-108010288D01*
X159628213Y-108010292D01*
X159739707Y-108121786D01*
X159739711Y-108121789D01*
X159870814Y-108209390D01*
X159870827Y-108209397D01*
X160016498Y-108269735D01*
X160016503Y-108269737D01*
X160171153Y-108300499D01*
X160171156Y-108300500D01*
X160171158Y-108300500D01*
X160328844Y-108300500D01*
X160328845Y-108300499D01*
X160483497Y-108269737D01*
X160629179Y-108209394D01*
X160760289Y-108121789D01*
X160871789Y-108010289D01*
X160959394Y-107879179D01*
X161010939Y-107754738D01*
X161054779Y-107700334D01*
X161121074Y-107678269D01*
X161188773Y-107695548D01*
X161236384Y-107746685D01*
X161249500Y-107802190D01*
X161249500Y-128125500D01*
X161229815Y-128192539D01*
X161177011Y-128238294D01*
X161125500Y-128249500D01*
X130360527Y-128249500D01*
X130293488Y-128229815D01*
X130247733Y-128177011D01*
X130236527Y-128125500D01*
X130236527Y-126678871D01*
X131731789Y-126678871D01*
X131731789Y-126836564D01*
X131762550Y-126991207D01*
X131762553Y-126991219D01*
X131822891Y-127136890D01*
X131822898Y-127136903D01*
X131910499Y-127268006D01*
X131910502Y-127268010D01*
X132021996Y-127379504D01*
X132022000Y-127379507D01*
X132153103Y-127467108D01*
X132153116Y-127467115D01*
X132298787Y-127527453D01*
X132298792Y-127527455D01*
X132445157Y-127556569D01*
X132453442Y-127558217D01*
X132453445Y-127558218D01*
X132453447Y-127558218D01*
X132611133Y-127558218D01*
X132611134Y-127558217D01*
X132765786Y-127527455D01*
X132911468Y-127467112D01*
X133042578Y-127379507D01*
X133154078Y-127268007D01*
X133241683Y-127136897D01*
X133302026Y-126991215D01*
X133332789Y-126836560D01*
X133332789Y-126806670D01*
X133352474Y-126739631D01*
X133387899Y-126703568D01*
X133462062Y-126654012D01*
X133510289Y-126621789D01*
X133621789Y-126510289D01*
X133709394Y-126379179D01*
X133769737Y-126233497D01*
X133800500Y-126078842D01*
X133800500Y-125921158D01*
X133800500Y-125921155D01*
X133800499Y-125921153D01*
X134199500Y-125921153D01*
X134199500Y-126078846D01*
X134230261Y-126233489D01*
X134230264Y-126233501D01*
X134290602Y-126379172D01*
X134290609Y-126379185D01*
X134378210Y-126510288D01*
X134378213Y-126510292D01*
X134489707Y-126621786D01*
X134489711Y-126621789D01*
X134620814Y-126709390D01*
X134620827Y-126709397D01*
X134766498Y-126769735D01*
X134766503Y-126769737D01*
X134921153Y-126800499D01*
X134921156Y-126800500D01*
X134921158Y-126800500D01*
X135078844Y-126800500D01*
X135078845Y-126800499D01*
X135233497Y-126769737D01*
X135379179Y-126709394D01*
X135510289Y-126621789D01*
X135621789Y-126510289D01*
X135709394Y-126379179D01*
X135711215Y-126374781D01*
X135755052Y-126320376D01*
X135821345Y-126298306D01*
X135889045Y-126315581D01*
X135936659Y-126366715D01*
X135947465Y-126425066D01*
X135949500Y-126425066D01*
X135949500Y-126588846D01*
X135980261Y-126743489D01*
X135980264Y-126743501D01*
X136040602Y-126889172D01*
X136040609Y-126889185D01*
X136128210Y-127020288D01*
X136128213Y-127020292D01*
X136239707Y-127131786D01*
X136239711Y-127131789D01*
X136370814Y-127219390D01*
X136370827Y-127219397D01*
X136488184Y-127268007D01*
X136516503Y-127279737D01*
X136671153Y-127310499D01*
X136671156Y-127310500D01*
X136671158Y-127310500D01*
X136828844Y-127310500D01*
X136828845Y-127310499D01*
X136983497Y-127279737D01*
X137129179Y-127219394D01*
X137260289Y-127131789D01*
X137371789Y-127020289D01*
X137459394Y-126889179D01*
X137519737Y-126743497D01*
X137550500Y-126588842D01*
X137550500Y-126431158D01*
X137550500Y-126431155D01*
X137550499Y-126431153D01*
X137540159Y-126379172D01*
X137519737Y-126276503D01*
X137501925Y-126233501D01*
X137459397Y-126130827D01*
X137459390Y-126130814D01*
X137371789Y-125999711D01*
X137371786Y-125999707D01*
X137268583Y-125896504D01*
X140432000Y-125896504D01*
X140432000Y-126045000D01*
X141132000Y-126045000D01*
X141132000Y-126545000D01*
X140432000Y-126545000D01*
X140432000Y-126693495D01*
X140470427Y-126886681D01*
X140470430Y-126886693D01*
X140545807Y-127068671D01*
X140545814Y-127068684D01*
X140655248Y-127232462D01*
X140655251Y-127232466D01*
X140794533Y-127371748D01*
X140794537Y-127371751D01*
X140958315Y-127481185D01*
X140958328Y-127481192D01*
X141140308Y-127556569D01*
X141182000Y-127564862D01*
X141182000Y-126761988D01*
X141191940Y-126779205D01*
X141247795Y-126835060D01*
X141316204Y-126874556D01*
X141392504Y-126895000D01*
X141471496Y-126895000D01*
X141547796Y-126874556D01*
X141616205Y-126835060D01*
X141672060Y-126779205D01*
X141682000Y-126761988D01*
X141682000Y-127564862D01*
X141723690Y-127556569D01*
X141723692Y-127556569D01*
X141905671Y-127481192D01*
X141905684Y-127481185D01*
X142069462Y-127371751D01*
X142069466Y-127371748D01*
X142208748Y-127232466D01*
X142208751Y-127232462D01*
X142318185Y-127068684D01*
X142318192Y-127068671D01*
X142345166Y-127003550D01*
X142389006Y-126949146D01*
X142455300Y-126927081D01*
X142523000Y-126944360D01*
X142528618Y-126947900D01*
X142545814Y-126959390D01*
X142545827Y-126959397D01*
X142691498Y-127019735D01*
X142691503Y-127019737D01*
X142846153Y-127050499D01*
X142846156Y-127050500D01*
X142846158Y-127050500D01*
X143003844Y-127050500D01*
X143003845Y-127050499D01*
X143158497Y-127019737D01*
X143304179Y-126959394D01*
X143435289Y-126871789D01*
X143546789Y-126760289D01*
X143591387Y-126693543D01*
X149067499Y-126693543D01*
X149105947Y-126886829D01*
X149105950Y-126886839D01*
X149181364Y-127068907D01*
X149181371Y-127068920D01*
X149290860Y-127232781D01*
X149290863Y-127232785D01*
X149430214Y-127372136D01*
X149430218Y-127372139D01*
X149594079Y-127481628D01*
X149594092Y-127481635D01*
X149775001Y-127556569D01*
X149776165Y-127557051D01*
X149776169Y-127557051D01*
X149776170Y-127557052D01*
X149969456Y-127595500D01*
X149969459Y-127595500D01*
X150166543Y-127595500D01*
X150320567Y-127564862D01*
X150359835Y-127557051D01*
X150541914Y-127481632D01*
X150705782Y-127372139D01*
X150845139Y-127232782D01*
X150954632Y-127068914D01*
X151030051Y-126886835D01*
X151047224Y-126800500D01*
X151068500Y-126693543D01*
X151068500Y-125896456D01*
X151030052Y-125703170D01*
X151030051Y-125703169D01*
X151030051Y-125703165D01*
X150999005Y-125628213D01*
X150954635Y-125521092D01*
X150954628Y-125521079D01*
X150845139Y-125357218D01*
X150845136Y-125357214D01*
X150705785Y-125217863D01*
X150705781Y-125217860D01*
X150541920Y-125108371D01*
X150541907Y-125108364D01*
X150359839Y-125032950D01*
X150359829Y-125032947D01*
X150166543Y-124994500D01*
X150166541Y-124994500D01*
X149969459Y-124994500D01*
X149969457Y-124994500D01*
X149776170Y-125032947D01*
X149776160Y-125032950D01*
X149594092Y-125108364D01*
X149594079Y-125108371D01*
X149430218Y-125217860D01*
X149430214Y-125217863D01*
X149290863Y-125357214D01*
X149290860Y-125357218D01*
X149181371Y-125521079D01*
X149181364Y-125521092D01*
X149105950Y-125703160D01*
X149105947Y-125703170D01*
X149067500Y-125896456D01*
X149067500Y-125896459D01*
X149067500Y-126693541D01*
X149067500Y-126693543D01*
X149067499Y-126693543D01*
X143591387Y-126693543D01*
X143634394Y-126629179D01*
X143694737Y-126483497D01*
X143725500Y-126328842D01*
X143725500Y-126171158D01*
X143725500Y-126171155D01*
X143725499Y-126171153D01*
X143707137Y-126078842D01*
X143694737Y-126016503D01*
X143667625Y-125951048D01*
X143662146Y-125937819D01*
X143634395Y-125870823D01*
X143634390Y-125870814D01*
X143546789Y-125739711D01*
X143546786Y-125739707D01*
X143435292Y-125628213D01*
X143435288Y-125628210D01*
X143304185Y-125540609D01*
X143304172Y-125540602D01*
X143158501Y-125480264D01*
X143158489Y-125480261D01*
X143003845Y-125449500D01*
X143003842Y-125449500D01*
X142846158Y-125449500D01*
X142846155Y-125449500D01*
X142691510Y-125480261D01*
X142691498Y-125480264D01*
X142545827Y-125540602D01*
X142545816Y-125540608D01*
X142499419Y-125571610D01*
X142432741Y-125592487D01*
X142365361Y-125574002D01*
X142322279Y-125526039D01*
X142321059Y-125526692D01*
X142318185Y-125521315D01*
X142208751Y-125357537D01*
X142208748Y-125357533D01*
X142069466Y-125218251D01*
X142069462Y-125218248D01*
X141905684Y-125108814D01*
X141905671Y-125108807D01*
X141723691Y-125033429D01*
X141723683Y-125033427D01*
X141682000Y-125025135D01*
X141682000Y-125828011D01*
X141672060Y-125810795D01*
X141616205Y-125754940D01*
X141547796Y-125715444D01*
X141471496Y-125695000D01*
X141392504Y-125695000D01*
X141316204Y-125715444D01*
X141247795Y-125754940D01*
X141191940Y-125810795D01*
X141182000Y-125828011D01*
X141182000Y-125025136D01*
X141181999Y-125025135D01*
X141140316Y-125033427D01*
X141140308Y-125033429D01*
X140958328Y-125108807D01*
X140958315Y-125108814D01*
X140794537Y-125218248D01*
X140794533Y-125218251D01*
X140655251Y-125357533D01*
X140655248Y-125357537D01*
X140545814Y-125521315D01*
X140545807Y-125521328D01*
X140470430Y-125703306D01*
X140470427Y-125703318D01*
X140432000Y-125896504D01*
X137268583Y-125896504D01*
X137260292Y-125888213D01*
X137260288Y-125888210D01*
X137129185Y-125800609D01*
X137129172Y-125800602D01*
X136983501Y-125740264D01*
X136983489Y-125740261D01*
X136828845Y-125709500D01*
X136828842Y-125709500D01*
X136671158Y-125709500D01*
X136671155Y-125709500D01*
X136516510Y-125740261D01*
X136516498Y-125740264D01*
X136370827Y-125800602D01*
X136370814Y-125800609D01*
X136239711Y-125888210D01*
X136239707Y-125888213D01*
X136128213Y-125999707D01*
X136128210Y-125999711D01*
X136040609Y-126130814D01*
X136040605Y-126130822D01*
X136038779Y-126135231D01*
X135994935Y-126189632D01*
X135928639Y-126211693D01*
X135860941Y-126194410D01*
X135813333Y-126143271D01*
X135802546Y-126084934D01*
X135800500Y-126084934D01*
X135800500Y-125921155D01*
X135800499Y-125921153D01*
X135776521Y-125800609D01*
X135769737Y-125766503D01*
X135769735Y-125766498D01*
X135709397Y-125620827D01*
X135709390Y-125620814D01*
X135621789Y-125489711D01*
X135621786Y-125489707D01*
X135510292Y-125378213D01*
X135510288Y-125378210D01*
X135379185Y-125290609D01*
X135379172Y-125290602D01*
X135233501Y-125230264D01*
X135233489Y-125230261D01*
X135078845Y-125199500D01*
X135078842Y-125199500D01*
X134921158Y-125199500D01*
X134921155Y-125199500D01*
X134766510Y-125230261D01*
X134766498Y-125230264D01*
X134620827Y-125290602D01*
X134620814Y-125290609D01*
X134489711Y-125378210D01*
X134489707Y-125378213D01*
X134378213Y-125489707D01*
X134378210Y-125489711D01*
X134290609Y-125620814D01*
X134290602Y-125620827D01*
X134230264Y-125766498D01*
X134230261Y-125766510D01*
X134199500Y-125921153D01*
X133800499Y-125921153D01*
X133776521Y-125800609D01*
X133769737Y-125766503D01*
X133769735Y-125766498D01*
X133709397Y-125620827D01*
X133709390Y-125620814D01*
X133621789Y-125489711D01*
X133621786Y-125489707D01*
X133594760Y-125462681D01*
X133561275Y-125401358D01*
X133566259Y-125331666D01*
X133594760Y-125287319D01*
X133621786Y-125260292D01*
X133621789Y-125260289D01*
X133709394Y-125129179D01*
X133769737Y-124983497D01*
X133800500Y-124828842D01*
X133800500Y-124671158D01*
X133800500Y-124671155D01*
X133800499Y-124671153D01*
X133784795Y-124592205D01*
X133769737Y-124516503D01*
X133746785Y-124461092D01*
X133709397Y-124370827D01*
X133709390Y-124370814D01*
X133621789Y-124239711D01*
X133621786Y-124239707D01*
X133510292Y-124128213D01*
X133510288Y-124128210D01*
X133379185Y-124040609D01*
X133379172Y-124040602D01*
X133233501Y-123980264D01*
X133233489Y-123980261D01*
X133078845Y-123949500D01*
X133078842Y-123949500D01*
X132921158Y-123949500D01*
X132921155Y-123949500D01*
X132766510Y-123980261D01*
X132766498Y-123980264D01*
X132620827Y-124040602D01*
X132620814Y-124040609D01*
X132489711Y-124128210D01*
X132489707Y-124128213D01*
X132378213Y-124239707D01*
X132378210Y-124239711D01*
X132290609Y-124370814D01*
X132290602Y-124370827D01*
X132230264Y-124516498D01*
X132230261Y-124516510D01*
X132199500Y-124671153D01*
X132199500Y-124828846D01*
X132230261Y-124983489D01*
X132230264Y-124983501D01*
X132290602Y-125129172D01*
X132290609Y-125129185D01*
X132378210Y-125260288D01*
X132378213Y-125260292D01*
X132405240Y-125287319D01*
X132438725Y-125348642D01*
X132433741Y-125418334D01*
X132405240Y-125462681D01*
X132378213Y-125489707D01*
X132378210Y-125489711D01*
X132290609Y-125620814D01*
X132290602Y-125620827D01*
X132230264Y-125766498D01*
X132230261Y-125766510D01*
X132199500Y-125921153D01*
X132199500Y-125951048D01*
X132179815Y-126018087D01*
X132144390Y-126054150D01*
X132022004Y-126135925D01*
X132021996Y-126135931D01*
X131910502Y-126247425D01*
X131910499Y-126247429D01*
X131822898Y-126378532D01*
X131822891Y-126378545D01*
X131762553Y-126524216D01*
X131762550Y-126524228D01*
X131731789Y-126678871D01*
X130236527Y-126678871D01*
X130236527Y-123671153D01*
X134699500Y-123671153D01*
X134699500Y-123828846D01*
X134730261Y-123983489D01*
X134730264Y-123983501D01*
X134790602Y-124129172D01*
X134790609Y-124129185D01*
X134878210Y-124260288D01*
X134878213Y-124260292D01*
X134989707Y-124371786D01*
X134989711Y-124371789D01*
X135120814Y-124459390D01*
X135120827Y-124459397D01*
X135258683Y-124516498D01*
X135266503Y-124519737D01*
X135421153Y-124550499D01*
X135421156Y-124550500D01*
X135421158Y-124550500D01*
X135578844Y-124550500D01*
X135578845Y-124550499D01*
X135733497Y-124519737D01*
X135879179Y-124459394D01*
X136010289Y-124371789D01*
X136121789Y-124260289D01*
X136209394Y-124129179D01*
X136269737Y-123983497D01*
X136300500Y-123828842D01*
X136300500Y-123671158D01*
X136300500Y-123671155D01*
X136270469Y-123520182D01*
X136270468Y-123520180D01*
X136269738Y-123516510D01*
X136269737Y-123516503D01*
X136269735Y-123516498D01*
X136263762Y-123502077D01*
X137040403Y-123502077D01*
X137040403Y-123659770D01*
X137071164Y-123814413D01*
X137071167Y-123814425D01*
X137131505Y-123960096D01*
X137131512Y-123960109D01*
X137219113Y-124091212D01*
X137219116Y-124091216D01*
X137330610Y-124202710D01*
X137330614Y-124202713D01*
X137461717Y-124290314D01*
X137461729Y-124290321D01*
X137545592Y-124325057D01*
X137599996Y-124368897D01*
X137622061Y-124435191D01*
X137619758Y-124463808D01*
X137598587Y-124570245D01*
X137598587Y-124727933D01*
X137629348Y-124882576D01*
X137629351Y-124882588D01*
X137689689Y-125028259D01*
X137689696Y-125028272D01*
X137777297Y-125159375D01*
X137777300Y-125159379D01*
X137888794Y-125270873D01*
X137888798Y-125270876D01*
X138019901Y-125358477D01*
X138019914Y-125358484D01*
X138123423Y-125401358D01*
X138165590Y-125418824D01*
X138319808Y-125449500D01*
X138320240Y-125449586D01*
X138320243Y-125449587D01*
X138320245Y-125449587D01*
X138477931Y-125449587D01*
X138477932Y-125449586D01*
X138632584Y-125418824D01*
X138778266Y-125358481D01*
X138909376Y-125270876D01*
X139020876Y-125159376D01*
X139108481Y-125028266D01*
X139109778Y-125025136D01*
X139168822Y-124882588D01*
X139168824Y-124882584D01*
X139199587Y-124727929D01*
X139199587Y-124570245D01*
X139199587Y-124570242D01*
X139199586Y-124570240D01*
X139182332Y-124483501D01*
X139168824Y-124415590D01*
X139150280Y-124370821D01*
X139108484Y-124269914D01*
X139108477Y-124269901D01*
X139020876Y-124138798D01*
X139020873Y-124138794D01*
X138909379Y-124027300D01*
X138909375Y-124027297D01*
X138778272Y-123939696D01*
X138778259Y-123939689D01*
X138694397Y-123904953D01*
X138639993Y-123861112D01*
X138617928Y-123794818D01*
X138620232Y-123766200D01*
X138641403Y-123659768D01*
X138641403Y-123502079D01*
X138641402Y-123502077D01*
X138637063Y-123480263D01*
X138610640Y-123347427D01*
X138592147Y-123302781D01*
X138550300Y-123201751D01*
X138550293Y-123201738D01*
X138462692Y-123070635D01*
X138462689Y-123070631D01*
X138351195Y-122959137D01*
X138351191Y-122959134D01*
X138220088Y-122871533D01*
X138220075Y-122871526D01*
X138074404Y-122811188D01*
X138074392Y-122811185D01*
X137919748Y-122780424D01*
X137919745Y-122780424D01*
X137762061Y-122780424D01*
X137762058Y-122780424D01*
X137607413Y-122811185D01*
X137607401Y-122811188D01*
X137461730Y-122871526D01*
X137461717Y-122871533D01*
X137330614Y-122959134D01*
X137330610Y-122959137D01*
X137219116Y-123070631D01*
X137219113Y-123070635D01*
X137131512Y-123201738D01*
X137131505Y-123201751D01*
X137071167Y-123347422D01*
X137071164Y-123347434D01*
X137040403Y-123502077D01*
X136263762Y-123502077D01*
X136209397Y-123370827D01*
X136209390Y-123370814D01*
X136121789Y-123239711D01*
X136121786Y-123239707D01*
X136010292Y-123128213D01*
X136010288Y-123128210D01*
X135879185Y-123040609D01*
X135879172Y-123040602D01*
X135733501Y-122980264D01*
X135733489Y-122980261D01*
X135578845Y-122949500D01*
X135578842Y-122949500D01*
X135421158Y-122949500D01*
X135421155Y-122949500D01*
X135266510Y-122980261D01*
X135266498Y-122980264D01*
X135120827Y-123040602D01*
X135120814Y-123040609D01*
X134989711Y-123128210D01*
X134989707Y-123128213D01*
X134878213Y-123239707D01*
X134878210Y-123239711D01*
X134790609Y-123370814D01*
X134790602Y-123370827D01*
X134730264Y-123516498D01*
X134730261Y-123516510D01*
X134699500Y-123671153D01*
X130236527Y-123671153D01*
X130236527Y-122763543D01*
X140431499Y-122763543D01*
X140469947Y-122956829D01*
X140469950Y-122956839D01*
X140545364Y-123138907D01*
X140545371Y-123138920D01*
X140654860Y-123302781D01*
X140654863Y-123302785D01*
X140794214Y-123442136D01*
X140794218Y-123442139D01*
X140958079Y-123551628D01*
X140958092Y-123551635D01*
X141140160Y-123627049D01*
X141140165Y-123627051D01*
X141140169Y-123627051D01*
X141140170Y-123627052D01*
X141333456Y-123665500D01*
X141333459Y-123665500D01*
X141530543Y-123665500D01*
X141660582Y-123639632D01*
X141723835Y-123627051D01*
X141905914Y-123551632D01*
X141905919Y-123551628D01*
X141905922Y-123551627D01*
X141961287Y-123514633D01*
X142027964Y-123493754D01*
X142095345Y-123512238D01*
X142142035Y-123564216D01*
X142153212Y-123633186D01*
X142133284Y-123686621D01*
X142122522Y-123702728D01*
X142122515Y-123702740D01*
X142062177Y-123848411D01*
X142062174Y-123848423D01*
X142031413Y-124003066D01*
X142031413Y-124160759D01*
X142062174Y-124315402D01*
X142062177Y-124315414D01*
X142122515Y-124461085D01*
X142122522Y-124461098D01*
X142210123Y-124592201D01*
X142210126Y-124592205D01*
X142321620Y-124703699D01*
X142321624Y-124703702D01*
X142452727Y-124791303D01*
X142452740Y-124791310D01*
X142598411Y-124851648D01*
X142598416Y-124851650D01*
X142753066Y-124882412D01*
X142753069Y-124882413D01*
X142753071Y-124882413D01*
X142910757Y-124882413D01*
X142910758Y-124882412D01*
X143065410Y-124851650D01*
X143211092Y-124791307D01*
X143342202Y-124703702D01*
X143453702Y-124592202D01*
X143541307Y-124461092D01*
X143601650Y-124315410D01*
X143630345Y-124171153D01*
X153199500Y-124171153D01*
X153199500Y-124328846D01*
X153230261Y-124483489D01*
X153230264Y-124483501D01*
X153290602Y-124629172D01*
X153290609Y-124629185D01*
X153378210Y-124760288D01*
X153378213Y-124760292D01*
X153489707Y-124871786D01*
X153489711Y-124871789D01*
X153620814Y-124959390D01*
X153620827Y-124959397D01*
X153766498Y-125019735D01*
X153766503Y-125019737D01*
X153921153Y-125050499D01*
X153921156Y-125050500D01*
X153921158Y-125050500D01*
X154078844Y-125050500D01*
X154078845Y-125050499D01*
X154233497Y-125019737D01*
X154379179Y-124959394D01*
X154510289Y-124871789D01*
X154621789Y-124760289D01*
X154709394Y-124629179D01*
X154769737Y-124483497D01*
X154800500Y-124328842D01*
X154800500Y-124171158D01*
X154800500Y-124171155D01*
X154800499Y-124171153D01*
X154784598Y-124091213D01*
X154769737Y-124016503D01*
X154756062Y-123983489D01*
X154709397Y-123870827D01*
X154709390Y-123870814D01*
X154621789Y-123739711D01*
X154621786Y-123739707D01*
X154510292Y-123628213D01*
X154510288Y-123628210D01*
X154379185Y-123540609D01*
X154379172Y-123540602D01*
X154233501Y-123480264D01*
X154233489Y-123480261D01*
X154078845Y-123449500D01*
X154078842Y-123449500D01*
X153921158Y-123449500D01*
X153921155Y-123449500D01*
X153766510Y-123480261D01*
X153766498Y-123480264D01*
X153620827Y-123540602D01*
X153620814Y-123540609D01*
X153489711Y-123628210D01*
X153489707Y-123628213D01*
X153378213Y-123739707D01*
X153378210Y-123739711D01*
X153290609Y-123870814D01*
X153290602Y-123870827D01*
X153230264Y-124016498D01*
X153230261Y-124016510D01*
X153199500Y-124171153D01*
X143630345Y-124171153D01*
X143632413Y-124160755D01*
X143632413Y-124003071D01*
X143632413Y-124003068D01*
X143632412Y-124003066D01*
X143606108Y-123870827D01*
X143601650Y-123848416D01*
X143579449Y-123794818D01*
X143541310Y-123702740D01*
X143541303Y-123702727D01*
X143453702Y-123571624D01*
X143453699Y-123571620D01*
X143342205Y-123460126D01*
X143342201Y-123460123D01*
X143211098Y-123372522D01*
X143211085Y-123372515D01*
X143175447Y-123357754D01*
X143121043Y-123313914D01*
X143098978Y-123247619D01*
X143116257Y-123179920D01*
X143160898Y-123135806D01*
X143213365Y-123105515D01*
X143320515Y-122998365D01*
X143396281Y-122867135D01*
X143435500Y-122720766D01*
X143435500Y-122569234D01*
X148064500Y-122569234D01*
X148064500Y-122720766D01*
X148075962Y-122763543D01*
X148103719Y-122867136D01*
X148106254Y-122871526D01*
X148179485Y-122998365D01*
X148286635Y-123105515D01*
X148400281Y-123171129D01*
X148415507Y-123179920D01*
X148417865Y-123181281D01*
X148564234Y-123220500D01*
X148564236Y-123220500D01*
X148715764Y-123220500D01*
X148715766Y-123220500D01*
X148862135Y-123181281D01*
X148993365Y-123105515D01*
X148993371Y-123105508D01*
X148998069Y-123101904D01*
X149063236Y-123076705D01*
X149131682Y-123090738D01*
X149176709Y-123134699D01*
X149177983Y-123133849D01*
X149290860Y-123302781D01*
X149290863Y-123302785D01*
X149430214Y-123442136D01*
X149430218Y-123442139D01*
X149594079Y-123551628D01*
X149594092Y-123551635D01*
X149776160Y-123627049D01*
X149776165Y-123627051D01*
X149776169Y-123627051D01*
X149776170Y-123627052D01*
X149969456Y-123665500D01*
X149969459Y-123665500D01*
X150166543Y-123665500D01*
X150296582Y-123639632D01*
X150359835Y-123627051D01*
X150541914Y-123551632D01*
X150705782Y-123442139D01*
X150845139Y-123302782D01*
X150954632Y-123138914D01*
X150959065Y-123128213D01*
X150982914Y-123070635D01*
X151030051Y-122956835D01*
X151047020Y-122871526D01*
X151068500Y-122763543D01*
X151068500Y-121466456D01*
X151030052Y-121273170D01*
X151030051Y-121273169D01*
X151030051Y-121273165D01*
X151030049Y-121273160D01*
X150954635Y-121091092D01*
X150954628Y-121091079D01*
X150845139Y-120927218D01*
X150845136Y-120927214D01*
X150705785Y-120787863D01*
X150705781Y-120787860D01*
X150541920Y-120678371D01*
X150541907Y-120678364D01*
X150359839Y-120602950D01*
X150359829Y-120602947D01*
X150166543Y-120564500D01*
X150166541Y-120564500D01*
X149969459Y-120564500D01*
X149969457Y-120564500D01*
X149776170Y-120602947D01*
X149776160Y-120602950D01*
X149594092Y-120678364D01*
X149594079Y-120678371D01*
X149430218Y-120787860D01*
X149430214Y-120787863D01*
X149290863Y-120927214D01*
X149290860Y-120927218D01*
X149181371Y-121091079D01*
X149181364Y-121091092D01*
X149105950Y-121273160D01*
X149105947Y-121273170D01*
X149067500Y-121466456D01*
X149067500Y-122012511D01*
X149047815Y-122079550D01*
X148995011Y-122125305D01*
X148925853Y-122135249D01*
X148881502Y-122119900D01*
X148862136Y-122108719D01*
X148788950Y-122089109D01*
X148715766Y-122069500D01*
X148564234Y-122069500D01*
X148417863Y-122108719D01*
X148286635Y-122184485D01*
X148286632Y-122184487D01*
X148179487Y-122291632D01*
X148179485Y-122291635D01*
X148103719Y-122422863D01*
X148064500Y-122569234D01*
X143435500Y-122569234D01*
X143396281Y-122422865D01*
X143320515Y-122291635D01*
X143213365Y-122184485D01*
X143110863Y-122125305D01*
X143082136Y-122108719D01*
X143008950Y-122089109D01*
X142935766Y-122069500D01*
X142784234Y-122069500D01*
X142637863Y-122108719D01*
X142618498Y-122119900D01*
X142550597Y-122136370D01*
X142484571Y-122113517D01*
X142441381Y-122058595D01*
X142432500Y-122012511D01*
X142432500Y-121466456D01*
X142394052Y-121273170D01*
X142394051Y-121273169D01*
X142394051Y-121273165D01*
X142394049Y-121273160D01*
X142318635Y-121091092D01*
X142318628Y-121091079D01*
X142209139Y-120927218D01*
X142209136Y-120927214D01*
X142069785Y-120787863D01*
X142069781Y-120787860D01*
X141905920Y-120678371D01*
X141905907Y-120678364D01*
X141723839Y-120602950D01*
X141723829Y-120602947D01*
X141530543Y-120564500D01*
X141530541Y-120564500D01*
X141333459Y-120564500D01*
X141333457Y-120564500D01*
X141140170Y-120602947D01*
X141140160Y-120602950D01*
X140958092Y-120678364D01*
X140958079Y-120678371D01*
X140794218Y-120787860D01*
X140794214Y-120787863D01*
X140654863Y-120927214D01*
X140654860Y-120927218D01*
X140545371Y-121091079D01*
X140545364Y-121091092D01*
X140469950Y-121273160D01*
X140469947Y-121273170D01*
X140431500Y-121466456D01*
X140431500Y-121466459D01*
X140431500Y-122763541D01*
X140431500Y-122763543D01*
X140431499Y-122763543D01*
X130236527Y-122763543D01*
X130236527Y-118671153D01*
X137349500Y-118671153D01*
X137349500Y-118828846D01*
X137380261Y-118983489D01*
X137380264Y-118983501D01*
X137440602Y-119129172D01*
X137440609Y-119129185D01*
X137528210Y-119260288D01*
X137528213Y-119260292D01*
X137639707Y-119371786D01*
X137639711Y-119371789D01*
X137770814Y-119459390D01*
X137770827Y-119459397D01*
X137844013Y-119489711D01*
X137916503Y-119519737D01*
X137916505Y-119519737D01*
X137916507Y-119519738D01*
X137921646Y-119520760D01*
X137983558Y-119553142D01*
X138018135Y-119613856D01*
X138014399Y-119683626D01*
X138012021Y-119689830D01*
X137980264Y-119766498D01*
X137980261Y-119766510D01*
X137949500Y-119921153D01*
X137949500Y-120078846D01*
X137980261Y-120233489D01*
X137980264Y-120233501D01*
X138040602Y-120379172D01*
X138040609Y-120379185D01*
X138128210Y-120510288D01*
X138128213Y-120510292D01*
X138239707Y-120621786D01*
X138239711Y-120621789D01*
X138370814Y-120709390D01*
X138370827Y-120709397D01*
X138516498Y-120769735D01*
X138516503Y-120769737D01*
X138671153Y-120800499D01*
X138671156Y-120800500D01*
X138671158Y-120800500D01*
X138828844Y-120800500D01*
X138828845Y-120800499D01*
X138983497Y-120769737D01*
X139129179Y-120709394D01*
X139260289Y-120621789D01*
X139371789Y-120510289D01*
X139459394Y-120379179D01*
X139519737Y-120233497D01*
X139550500Y-120078842D01*
X139550500Y-119921158D01*
X139550500Y-119921155D01*
X139550499Y-119921153D01*
X139519738Y-119766510D01*
X139519737Y-119766503D01*
X139519735Y-119766498D01*
X139459397Y-119620827D01*
X139459390Y-119620814D01*
X139371789Y-119489711D01*
X139371786Y-119489707D01*
X139260292Y-119378213D01*
X139260288Y-119378210D01*
X139129185Y-119290609D01*
X139129172Y-119290602D01*
X138983501Y-119230264D01*
X138983493Y-119230262D01*
X138978345Y-119229238D01*
X138916434Y-119196851D01*
X138881862Y-119136134D01*
X138885603Y-119066365D01*
X138887959Y-119060214D01*
X138919737Y-118983497D01*
X138950500Y-118828842D01*
X138950500Y-118671158D01*
X138950500Y-118671155D01*
X138950499Y-118671153D01*
X138919738Y-118516510D01*
X138919737Y-118516503D01*
X138919735Y-118516498D01*
X138859397Y-118370827D01*
X138859390Y-118370814D01*
X138771789Y-118239711D01*
X138771786Y-118239707D01*
X138660292Y-118128213D01*
X138660288Y-118128210D01*
X138529185Y-118040609D01*
X138529172Y-118040602D01*
X138383501Y-117980264D01*
X138383489Y-117980261D01*
X138228845Y-117949500D01*
X138228842Y-117949500D01*
X138071158Y-117949500D01*
X138071155Y-117949500D01*
X137916510Y-117980261D01*
X137916498Y-117980264D01*
X137770827Y-118040602D01*
X137770814Y-118040609D01*
X137639711Y-118128210D01*
X137639707Y-118128213D01*
X137528213Y-118239707D01*
X137528210Y-118239711D01*
X137440609Y-118370814D01*
X137440602Y-118370827D01*
X137380264Y-118516498D01*
X137380261Y-118516510D01*
X137349500Y-118671153D01*
X130236527Y-118671153D01*
X130236527Y-115171153D01*
X133949500Y-115171153D01*
X133949500Y-115328846D01*
X133980261Y-115483489D01*
X133980264Y-115483501D01*
X134040602Y-115629172D01*
X134040609Y-115629185D01*
X134128210Y-115760288D01*
X134128213Y-115760292D01*
X134239707Y-115871786D01*
X134239711Y-115871789D01*
X134370814Y-115959390D01*
X134370827Y-115959397D01*
X134516498Y-116019735D01*
X134516503Y-116019737D01*
X134671153Y-116050499D01*
X134671156Y-116050500D01*
X134671158Y-116050500D01*
X134828844Y-116050500D01*
X134828845Y-116050499D01*
X134983497Y-116019737D01*
X135129179Y-115959394D01*
X135260289Y-115871789D01*
X135371789Y-115760289D01*
X135459394Y-115629179D01*
X135519737Y-115483497D01*
X135550500Y-115328842D01*
X135550500Y-115171158D01*
X135550500Y-115171155D01*
X135550499Y-115171153D01*
X135519738Y-115016510D01*
X135519737Y-115016503D01*
X135480242Y-114921153D01*
X138248500Y-114921153D01*
X138248500Y-115078846D01*
X138279261Y-115233489D01*
X138279264Y-115233501D01*
X138339602Y-115379172D01*
X138339609Y-115379185D01*
X138427210Y-115510288D01*
X138427213Y-115510292D01*
X138538707Y-115621786D01*
X138538711Y-115621789D01*
X138669814Y-115709390D01*
X138669827Y-115709397D01*
X138815498Y-115769735D01*
X138815503Y-115769737D01*
X138970153Y-115800499D01*
X138970156Y-115800500D01*
X138970158Y-115800500D01*
X139127844Y-115800500D01*
X139127845Y-115800499D01*
X139282497Y-115769737D01*
X139428179Y-115709394D01*
X139559289Y-115621789D01*
X139670789Y-115510289D01*
X139758394Y-115379179D01*
X139818737Y-115233497D01*
X139849500Y-115078842D01*
X139849500Y-114921158D01*
X139849500Y-114921155D01*
X139849499Y-114921153D01*
X139821077Y-114778264D01*
X139821076Y-114778260D01*
X139818738Y-114766510D01*
X139818737Y-114766503D01*
X139816107Y-114760153D01*
X141703189Y-114760153D01*
X141703189Y-114917846D01*
X141733950Y-115072489D01*
X141733953Y-115072501D01*
X141794291Y-115218172D01*
X141794298Y-115218185D01*
X141881899Y-115349288D01*
X141881902Y-115349292D01*
X141993396Y-115460786D01*
X141993400Y-115460789D01*
X142124503Y-115548390D01*
X142124516Y-115548397D01*
X142270187Y-115608735D01*
X142270192Y-115608737D01*
X142424842Y-115639499D01*
X142424845Y-115639500D01*
X142424847Y-115639500D01*
X142582533Y-115639500D01*
X142582534Y-115639499D01*
X142737186Y-115608737D01*
X142882868Y-115548394D01*
X143013978Y-115460789D01*
X143125478Y-115349289D01*
X143213083Y-115218179D01*
X143273426Y-115072497D01*
X143304189Y-114917842D01*
X143304189Y-114760158D01*
X143304189Y-114760155D01*
X143304188Y-114760153D01*
X143277943Y-114628211D01*
X143273426Y-114605503D01*
X143246545Y-114540606D01*
X143213086Y-114459827D01*
X143213079Y-114459814D01*
X143125478Y-114328711D01*
X143125475Y-114328707D01*
X143013981Y-114217213D01*
X143013977Y-114217210D01*
X142882874Y-114129609D01*
X142882861Y-114129602D01*
X142737190Y-114069264D01*
X142737178Y-114069261D01*
X142582534Y-114038500D01*
X142582531Y-114038500D01*
X142424847Y-114038500D01*
X142424844Y-114038500D01*
X142270199Y-114069261D01*
X142270187Y-114069264D01*
X142124516Y-114129602D01*
X142124503Y-114129609D01*
X141993400Y-114217210D01*
X141993396Y-114217213D01*
X141881902Y-114328707D01*
X141881899Y-114328711D01*
X141794298Y-114459814D01*
X141794291Y-114459827D01*
X141733953Y-114605498D01*
X141733950Y-114605510D01*
X141703189Y-114760153D01*
X139816107Y-114760153D01*
X139758397Y-114620827D01*
X139758390Y-114620814D01*
X139670789Y-114489711D01*
X139670786Y-114489707D01*
X139559292Y-114378213D01*
X139559288Y-114378210D01*
X139428185Y-114290609D01*
X139428172Y-114290602D01*
X139282501Y-114230264D01*
X139282489Y-114230261D01*
X139127845Y-114199500D01*
X139127842Y-114199500D01*
X138970158Y-114199500D01*
X138970155Y-114199500D01*
X138815510Y-114230261D01*
X138815498Y-114230264D01*
X138669827Y-114290602D01*
X138669814Y-114290609D01*
X138538711Y-114378210D01*
X138538707Y-114378213D01*
X138427213Y-114489707D01*
X138427210Y-114489711D01*
X138339609Y-114620814D01*
X138339602Y-114620827D01*
X138279264Y-114766498D01*
X138279261Y-114766510D01*
X138248500Y-114921153D01*
X135480242Y-114921153D01*
X135478871Y-114917842D01*
X135459397Y-114870827D01*
X135459390Y-114870814D01*
X135371789Y-114739711D01*
X135371786Y-114739707D01*
X135260292Y-114628213D01*
X135260288Y-114628210D01*
X135129185Y-114540609D01*
X135129172Y-114540602D01*
X134983501Y-114480264D01*
X134983489Y-114480261D01*
X134828845Y-114449500D01*
X134828842Y-114449500D01*
X134671158Y-114449500D01*
X134671155Y-114449500D01*
X134516510Y-114480261D01*
X134516498Y-114480264D01*
X134370827Y-114540602D01*
X134370814Y-114540609D01*
X134239711Y-114628210D01*
X134239707Y-114628213D01*
X134128213Y-114739707D01*
X134128210Y-114739711D01*
X134040609Y-114870814D01*
X134040602Y-114870827D01*
X133980264Y-115016498D01*
X133980261Y-115016510D01*
X133949500Y-115171153D01*
X130236527Y-115171153D01*
X130236527Y-112921153D01*
X138949500Y-112921153D01*
X138949500Y-113078846D01*
X138980261Y-113233489D01*
X138980264Y-113233501D01*
X139040602Y-113379172D01*
X139040609Y-113379185D01*
X139128210Y-113510288D01*
X139128213Y-113510292D01*
X139239707Y-113621786D01*
X139239711Y-113621789D01*
X139370814Y-113709390D01*
X139370827Y-113709397D01*
X139516498Y-113769735D01*
X139516503Y-113769737D01*
X139671153Y-113800499D01*
X139671156Y-113800500D01*
X139671158Y-113800500D01*
X139828844Y-113800500D01*
X139828845Y-113800499D01*
X139983497Y-113769737D01*
X140121002Y-113712781D01*
X140129172Y-113709397D01*
X140129172Y-113709396D01*
X140129179Y-113709394D01*
X140260289Y-113621789D01*
X140371789Y-113510289D01*
X140459394Y-113379179D01*
X140462854Y-113370827D01*
X140517163Y-113239711D01*
X140519737Y-113233497D01*
X140550500Y-113078842D01*
X140550500Y-113074837D01*
X140551093Y-113072814D01*
X140551097Y-113072782D01*
X140551103Y-113072782D01*
X140570185Y-113007798D01*
X140622989Y-112962043D01*
X140626986Y-112960302D01*
X140629179Y-112959394D01*
X140760289Y-112871789D01*
X140767882Y-112864196D01*
X142750915Y-112864196D01*
X142750915Y-113021889D01*
X142781676Y-113176532D01*
X142781679Y-113176544D01*
X142842017Y-113322215D01*
X142842024Y-113322228D01*
X142929625Y-113453331D01*
X142929628Y-113453335D01*
X143041122Y-113564829D01*
X143041126Y-113564832D01*
X143172229Y-113652433D01*
X143172242Y-113652440D01*
X143317913Y-113712778D01*
X143317918Y-113712780D01*
X143472568Y-113743542D01*
X143472571Y-113743543D01*
X143472573Y-113743543D01*
X143630259Y-113743543D01*
X143630260Y-113743542D01*
X143784912Y-113712780D01*
X143885409Y-113671153D01*
X144699500Y-113671153D01*
X144699500Y-113828846D01*
X144730261Y-113983489D01*
X144730264Y-113983501D01*
X144790602Y-114129172D01*
X144790609Y-114129185D01*
X144878210Y-114260288D01*
X144878213Y-114260292D01*
X144989707Y-114371786D01*
X144989711Y-114371789D01*
X145120814Y-114459390D01*
X145120827Y-114459397D01*
X145194013Y-114489711D01*
X145266503Y-114519737D01*
X145421153Y-114550499D01*
X145421156Y-114550500D01*
X145421158Y-114550500D01*
X145578844Y-114550500D01*
X145578845Y-114550499D01*
X145733497Y-114519737D01*
X145879179Y-114459394D01*
X146010289Y-114371789D01*
X146121789Y-114260289D01*
X146209394Y-114129179D01*
X146269737Y-113983497D01*
X146300500Y-113828842D01*
X146300500Y-113671158D01*
X146300500Y-113671155D01*
X146300499Y-113671153D01*
X146279350Y-113564832D01*
X146269737Y-113516503D01*
X146243571Y-113453331D01*
X146209397Y-113370827D01*
X146209390Y-113370814D01*
X146121789Y-113239711D01*
X146121786Y-113239707D01*
X146010292Y-113128213D01*
X146010288Y-113128210D01*
X145879185Y-113040609D01*
X145879172Y-113040602D01*
X145733501Y-112980264D01*
X145733489Y-112980261D01*
X145578845Y-112949500D01*
X145578842Y-112949500D01*
X145421158Y-112949500D01*
X145421155Y-112949500D01*
X145266510Y-112980261D01*
X145266498Y-112980264D01*
X145120827Y-113040602D01*
X145120814Y-113040609D01*
X144989711Y-113128210D01*
X144989707Y-113128213D01*
X144878213Y-113239707D01*
X144878210Y-113239711D01*
X144790609Y-113370814D01*
X144790602Y-113370827D01*
X144730264Y-113516498D01*
X144730261Y-113516510D01*
X144699500Y-113671153D01*
X143885409Y-113671153D01*
X143930594Y-113652437D01*
X144061704Y-113564832D01*
X144173204Y-113453332D01*
X144260809Y-113322222D01*
X144321152Y-113176540D01*
X144351915Y-113021885D01*
X144351915Y-112864201D01*
X144351915Y-112864198D01*
X144351914Y-112864196D01*
X144332483Y-112766510D01*
X144321152Y-112709546D01*
X144287863Y-112629179D01*
X144260812Y-112563870D01*
X144260805Y-112563857D01*
X144173204Y-112432754D01*
X144173201Y-112432750D01*
X144061707Y-112321256D01*
X144061703Y-112321253D01*
X143930600Y-112233652D01*
X143930587Y-112233645D01*
X143784916Y-112173307D01*
X143784904Y-112173304D01*
X143630260Y-112142543D01*
X143630257Y-112142543D01*
X143472573Y-112142543D01*
X143472570Y-112142543D01*
X143317925Y-112173304D01*
X143317913Y-112173307D01*
X143172242Y-112233645D01*
X143172229Y-112233652D01*
X143041126Y-112321253D01*
X143041122Y-112321256D01*
X142929628Y-112432750D01*
X142929625Y-112432754D01*
X142842024Y-112563857D01*
X142842017Y-112563870D01*
X142781679Y-112709541D01*
X142781676Y-112709553D01*
X142750915Y-112864196D01*
X140767882Y-112864196D01*
X140861651Y-112770428D01*
X140871786Y-112760292D01*
X140871789Y-112760289D01*
X140959394Y-112629179D01*
X140962854Y-112620827D01*
X141017163Y-112489711D01*
X141019737Y-112483497D01*
X141050500Y-112328842D01*
X141050500Y-112171158D01*
X141050500Y-112171155D01*
X141050499Y-112171153D01*
X141019738Y-112016510D01*
X141019737Y-112016503D01*
X141016306Y-112008219D01*
X140959397Y-111870827D01*
X140959390Y-111870814D01*
X140871789Y-111739711D01*
X140871786Y-111739707D01*
X140760292Y-111628213D01*
X140760288Y-111628210D01*
X140629185Y-111540609D01*
X140629173Y-111540602D01*
X140602674Y-111529627D01*
X140483501Y-111480264D01*
X140483489Y-111480261D01*
X140328845Y-111449500D01*
X140328842Y-111449500D01*
X140171158Y-111449500D01*
X140171155Y-111449500D01*
X140016510Y-111480261D01*
X140016498Y-111480264D01*
X139870827Y-111540602D01*
X139870814Y-111540609D01*
X139739711Y-111628210D01*
X139739707Y-111628213D01*
X139628213Y-111739707D01*
X139628210Y-111739711D01*
X139540609Y-111870814D01*
X139540602Y-111870827D01*
X139480264Y-112016498D01*
X139480261Y-112016510D01*
X139449500Y-112171153D01*
X139449500Y-112175161D01*
X139448906Y-112177182D01*
X139448903Y-112177218D01*
X139448896Y-112177217D01*
X139429815Y-112242200D01*
X139377011Y-112287955D01*
X139372962Y-112289718D01*
X139370830Y-112290601D01*
X139370814Y-112290609D01*
X139239711Y-112378210D01*
X139239707Y-112378213D01*
X139128213Y-112489707D01*
X139128210Y-112489711D01*
X139040609Y-112620814D01*
X139040602Y-112620827D01*
X138980264Y-112766498D01*
X138980261Y-112766510D01*
X138949500Y-112921153D01*
X130236527Y-112921153D01*
X130236527Y-111419080D01*
X137114499Y-111419080D01*
X137114499Y-111576773D01*
X137145260Y-111731416D01*
X137145263Y-111731428D01*
X137205601Y-111877099D01*
X137205608Y-111877112D01*
X137293209Y-112008215D01*
X137293212Y-112008219D01*
X137404706Y-112119713D01*
X137404710Y-112119716D01*
X137535813Y-112207317D01*
X137535826Y-112207324D01*
X137658209Y-112258016D01*
X137681502Y-112267664D01*
X137796854Y-112290609D01*
X137836152Y-112298426D01*
X137836155Y-112298427D01*
X137836157Y-112298427D01*
X137993843Y-112298427D01*
X137993844Y-112298426D01*
X138148496Y-112267664D01*
X138289166Y-112209397D01*
X138294171Y-112207324D01*
X138294171Y-112207323D01*
X138294178Y-112207321D01*
X138425288Y-112119716D01*
X138536788Y-112008216D01*
X138624393Y-111877106D01*
X138684736Y-111731424D01*
X138715499Y-111576769D01*
X138715499Y-111421153D01*
X145374500Y-111421153D01*
X145374500Y-111578846D01*
X145405261Y-111733489D01*
X145405264Y-111733501D01*
X145465602Y-111879172D01*
X145465609Y-111879185D01*
X145553210Y-112010288D01*
X145553213Y-112010292D01*
X145664707Y-112121786D01*
X145664711Y-112121789D01*
X145795814Y-112209390D01*
X145795827Y-112209397D01*
X145936493Y-112267662D01*
X145941503Y-112269737D01*
X146096153Y-112300499D01*
X146096156Y-112300500D01*
X146096158Y-112300500D01*
X146253844Y-112300500D01*
X146253845Y-112300499D01*
X146408497Y-112269737D01*
X146554179Y-112209394D01*
X146685289Y-112121789D01*
X146796789Y-112010289D01*
X146884394Y-111879179D01*
X146887854Y-111870827D01*
X146942163Y-111739711D01*
X146944737Y-111733497D01*
X146975500Y-111578842D01*
X146975500Y-111421158D01*
X146975500Y-111421155D01*
X146975499Y-111421153D01*
X146944738Y-111266510D01*
X146944737Y-111266503D01*
X146943876Y-111264425D01*
X146884397Y-111120827D01*
X146884390Y-111120814D01*
X146796789Y-110989711D01*
X146796786Y-110989707D01*
X146685292Y-110878213D01*
X146685288Y-110878210D01*
X146554185Y-110790609D01*
X146554172Y-110790602D01*
X146408501Y-110730264D01*
X146408489Y-110730261D01*
X146253845Y-110699500D01*
X146253842Y-110699500D01*
X146096158Y-110699500D01*
X146096155Y-110699500D01*
X145941510Y-110730261D01*
X145941498Y-110730264D01*
X145795827Y-110790602D01*
X145795814Y-110790609D01*
X145664711Y-110878210D01*
X145664707Y-110878213D01*
X145553213Y-110989707D01*
X145553210Y-110989711D01*
X145465609Y-111120814D01*
X145465602Y-111120827D01*
X145405264Y-111266498D01*
X145405261Y-111266510D01*
X145374500Y-111421153D01*
X138715499Y-111421153D01*
X138715499Y-111419085D01*
X138715499Y-111419082D01*
X138715498Y-111419080D01*
X138684736Y-111264430D01*
X138684734Y-111264425D01*
X138624396Y-111118754D01*
X138624389Y-111118741D01*
X138536788Y-110987638D01*
X138536785Y-110987634D01*
X138425291Y-110876140D01*
X138425287Y-110876137D01*
X138294184Y-110788536D01*
X138294171Y-110788529D01*
X138148500Y-110728191D01*
X138148488Y-110728188D01*
X137993844Y-110697427D01*
X137993841Y-110697427D01*
X137836157Y-110697427D01*
X137836154Y-110697427D01*
X137681509Y-110728188D01*
X137681497Y-110728191D01*
X137535826Y-110788529D01*
X137535813Y-110788536D01*
X137404710Y-110876137D01*
X137404706Y-110876140D01*
X137293212Y-110987634D01*
X137293209Y-110987638D01*
X137205608Y-111118741D01*
X137205601Y-111118754D01*
X137145263Y-111264425D01*
X137145260Y-111264437D01*
X137114499Y-111419080D01*
X130236527Y-111419080D01*
X130236527Y-109765947D01*
X130256212Y-109698908D01*
X130309016Y-109653153D01*
X130378174Y-109643209D01*
X130441730Y-109672234D01*
X130477857Y-109727900D01*
X130477932Y-109727870D01*
X130478099Y-109728274D01*
X130479187Y-109729950D01*
X130480263Y-109733499D01*
X130540602Y-109879172D01*
X130540609Y-109879185D01*
X130628210Y-110010288D01*
X130628213Y-110010292D01*
X130739707Y-110121786D01*
X130739711Y-110121789D01*
X130870814Y-110209390D01*
X130870827Y-110209397D01*
X131016498Y-110269735D01*
X131016503Y-110269737D01*
X131171153Y-110300499D01*
X131171156Y-110300500D01*
X131171158Y-110300500D01*
X131328844Y-110300500D01*
X131328845Y-110300499D01*
X131483497Y-110269737D01*
X131629179Y-110209394D01*
X131686411Y-110171153D01*
X141199500Y-110171153D01*
X141199500Y-110328846D01*
X141230261Y-110483489D01*
X141230264Y-110483501D01*
X141290602Y-110629172D01*
X141290609Y-110629185D01*
X141378210Y-110760288D01*
X141378213Y-110760292D01*
X141489707Y-110871786D01*
X141489711Y-110871789D01*
X141620814Y-110959390D01*
X141620827Y-110959397D01*
X141694013Y-110989711D01*
X141766503Y-111019737D01*
X141921153Y-111050499D01*
X141921156Y-111050500D01*
X141921158Y-111050500D01*
X142078844Y-111050500D01*
X142078845Y-111050499D01*
X142233497Y-111019737D01*
X142379179Y-110959394D01*
X142510289Y-110871789D01*
X142621789Y-110760289D01*
X142709394Y-110629179D01*
X142769737Y-110483497D01*
X142800500Y-110328842D01*
X142800500Y-110171158D01*
X142800500Y-110171155D01*
X142800499Y-110171153D01*
X142769738Y-110016510D01*
X142769737Y-110016503D01*
X142760721Y-109994736D01*
X142709397Y-109870827D01*
X142709390Y-109870814D01*
X142621789Y-109739711D01*
X142621786Y-109739707D01*
X142510292Y-109628213D01*
X142510288Y-109628210D01*
X142379185Y-109540609D01*
X142379172Y-109540602D01*
X142233501Y-109480264D01*
X142233489Y-109480261D01*
X142078845Y-109449500D01*
X142078842Y-109449500D01*
X141921158Y-109449500D01*
X141921155Y-109449500D01*
X141766510Y-109480261D01*
X141766498Y-109480264D01*
X141620827Y-109540602D01*
X141620814Y-109540609D01*
X141489711Y-109628210D01*
X141489707Y-109628213D01*
X141378213Y-109739707D01*
X141378210Y-109739711D01*
X141290609Y-109870814D01*
X141290602Y-109870827D01*
X141230264Y-110016498D01*
X141230261Y-110016510D01*
X141199500Y-110171153D01*
X131686411Y-110171153D01*
X131760289Y-110121789D01*
X131760292Y-110121786D01*
X131804694Y-110077385D01*
X131871786Y-110010292D01*
X131871789Y-110010289D01*
X131959394Y-109879179D01*
X131962854Y-109870827D01*
X132017163Y-109739711D01*
X132019737Y-109733497D01*
X132050500Y-109578842D01*
X132050500Y-109421158D01*
X132050500Y-109421155D01*
X132050499Y-109421153D01*
X132037727Y-109356943D01*
X132019737Y-109266503D01*
X132019735Y-109266498D01*
X131987020Y-109187516D01*
X131969886Y-109146151D01*
X138949500Y-109146151D01*
X138949500Y-109303844D01*
X138980261Y-109458487D01*
X138980264Y-109458499D01*
X139040602Y-109604170D01*
X139040609Y-109604183D01*
X139128210Y-109735286D01*
X139128213Y-109735290D01*
X139239707Y-109846784D01*
X139239711Y-109846787D01*
X139370814Y-109934388D01*
X139370827Y-109934395D01*
X139516498Y-109994733D01*
X139516503Y-109994735D01*
X139625973Y-110016510D01*
X139671153Y-110025497D01*
X139671156Y-110025498D01*
X139671158Y-110025498D01*
X139828844Y-110025498D01*
X139828845Y-110025497D01*
X139983497Y-109994735D01*
X140129179Y-109934392D01*
X140260289Y-109846787D01*
X140371789Y-109735287D01*
X140459394Y-109604177D01*
X140519737Y-109458495D01*
X140550500Y-109303840D01*
X140550500Y-109146156D01*
X140550500Y-109146153D01*
X140550499Y-109146151D01*
X140545462Y-109120827D01*
X140519737Y-108991501D01*
X140472812Y-108878213D01*
X140459397Y-108845825D01*
X140459390Y-108845812D01*
X140371789Y-108714709D01*
X140371786Y-108714705D01*
X140260292Y-108603211D01*
X140260288Y-108603208D01*
X140129185Y-108515607D01*
X140129172Y-108515600D01*
X139983501Y-108455262D01*
X139983489Y-108455259D01*
X139828845Y-108424498D01*
X139828842Y-108424498D01*
X139671158Y-108424498D01*
X139671155Y-108424498D01*
X139516510Y-108455259D01*
X139516498Y-108455262D01*
X139370827Y-108515600D01*
X139370814Y-108515607D01*
X139239711Y-108603208D01*
X139239707Y-108603211D01*
X139128213Y-108714705D01*
X139128210Y-108714709D01*
X139040609Y-108845812D01*
X139040602Y-108845825D01*
X138980264Y-108991496D01*
X138980261Y-108991508D01*
X138949500Y-109146151D01*
X131969886Y-109146151D01*
X131959397Y-109120827D01*
X131959390Y-109120814D01*
X131871789Y-108989711D01*
X131871786Y-108989707D01*
X131760292Y-108878213D01*
X131760288Y-108878210D01*
X131629185Y-108790609D01*
X131629172Y-108790602D01*
X131483501Y-108730264D01*
X131483489Y-108730261D01*
X131328845Y-108699500D01*
X131328842Y-108699500D01*
X131171158Y-108699500D01*
X131171155Y-108699500D01*
X131016510Y-108730261D01*
X131016498Y-108730264D01*
X130870827Y-108790602D01*
X130870814Y-108790609D01*
X130739711Y-108878210D01*
X130739707Y-108878213D01*
X130628213Y-108989707D01*
X130628210Y-108989711D01*
X130540609Y-109120814D01*
X130540602Y-109120827D01*
X130480262Y-109266503D01*
X130479186Y-109270052D01*
X130478117Y-109271682D01*
X130477932Y-109272130D01*
X130477847Y-109272094D01*
X130440886Y-109328489D01*
X130377073Y-109356943D01*
X130308006Y-109346380D01*
X130255615Y-109300153D01*
X130236527Y-109234052D01*
X130236527Y-107527387D01*
X133520092Y-107527387D01*
X133520092Y-107685080D01*
X133550853Y-107839723D01*
X133550856Y-107839735D01*
X133611194Y-107985406D01*
X133611201Y-107985419D01*
X133698802Y-108116522D01*
X133698805Y-108116526D01*
X133810299Y-108228020D01*
X133810303Y-108228023D01*
X133941406Y-108315624D01*
X133941419Y-108315631D01*
X134087090Y-108375969D01*
X134087095Y-108375971D01*
X134241745Y-108406733D01*
X134241748Y-108406734D01*
X134241750Y-108406734D01*
X134399436Y-108406734D01*
X134399437Y-108406733D01*
X134554089Y-108375971D01*
X134699771Y-108315628D01*
X134830881Y-108228023D01*
X134942381Y-108116523D01*
X135029986Y-107985413D01*
X135090329Y-107839731D01*
X135121092Y-107685076D01*
X135121092Y-107527392D01*
X135121092Y-107527389D01*
X135121091Y-107527387D01*
X135090329Y-107372737D01*
X135090327Y-107372732D01*
X135029989Y-107227061D01*
X135029982Y-107227048D01*
X134942381Y-107095945D01*
X134942378Y-107095941D01*
X134830884Y-106984447D01*
X134830880Y-106984444D01*
X134699777Y-106896843D01*
X134699764Y-106896836D01*
X134554093Y-106836498D01*
X134554081Y-106836495D01*
X134399437Y-106805734D01*
X134399434Y-106805734D01*
X134241750Y-106805734D01*
X134241747Y-106805734D01*
X134087102Y-106836495D01*
X134087090Y-106836498D01*
X133941419Y-106896836D01*
X133941406Y-106896843D01*
X133810303Y-106984444D01*
X133810299Y-106984447D01*
X133698805Y-107095941D01*
X133698802Y-107095945D01*
X133611201Y-107227048D01*
X133611194Y-107227061D01*
X133550856Y-107372732D01*
X133550853Y-107372744D01*
X133520092Y-107527387D01*
X130236527Y-107527387D01*
X130236527Y-105671153D01*
X134949500Y-105671153D01*
X134949500Y-105828846D01*
X134980261Y-105983489D01*
X134980264Y-105983501D01*
X135040602Y-106129172D01*
X135040609Y-106129185D01*
X135128210Y-106260288D01*
X135128213Y-106260292D01*
X135239707Y-106371786D01*
X135239711Y-106371789D01*
X135370814Y-106459390D01*
X135370827Y-106459397D01*
X135516498Y-106519735D01*
X135516503Y-106519737D01*
X135667900Y-106549852D01*
X135671153Y-106550499D01*
X135671156Y-106550500D01*
X135671158Y-106550500D01*
X135828844Y-106550500D01*
X135828845Y-106550499D01*
X135983497Y-106519737D01*
X136129179Y-106459394D01*
X136186411Y-106421153D01*
X136949500Y-106421153D01*
X136949500Y-106578846D01*
X136980261Y-106733489D01*
X136980264Y-106733501D01*
X137040602Y-106879172D01*
X137040609Y-106879185D01*
X137128210Y-107010288D01*
X137128213Y-107010292D01*
X137239707Y-107121786D01*
X137239711Y-107121789D01*
X137370814Y-107209390D01*
X137370827Y-107209397D01*
X137457412Y-107245261D01*
X137516503Y-107269737D01*
X137626023Y-107291522D01*
X137671153Y-107300499D01*
X137671156Y-107300500D01*
X137671158Y-107300500D01*
X137828844Y-107300500D01*
X137828845Y-107300499D01*
X137983497Y-107269737D01*
X138129179Y-107209394D01*
X138260289Y-107121789D01*
X138371789Y-107010289D01*
X138459394Y-106879179D01*
X138519737Y-106733497D01*
X138550500Y-106578842D01*
X138550500Y-106421158D01*
X138550500Y-106421155D01*
X138550499Y-106421153D01*
X138519737Y-106266503D01*
X138507786Y-106237650D01*
X138459397Y-106120827D01*
X138459390Y-106120814D01*
X138371789Y-105989711D01*
X138371786Y-105989707D01*
X138260292Y-105878213D01*
X138260288Y-105878210D01*
X138137485Y-105796155D01*
X142124500Y-105796155D01*
X142124500Y-105953848D01*
X142155261Y-106108491D01*
X142155264Y-106108503D01*
X142215602Y-106254174D01*
X142215609Y-106254187D01*
X142303210Y-106385290D01*
X142303213Y-106385294D01*
X142414707Y-106496788D01*
X142414711Y-106496791D01*
X142545814Y-106584392D01*
X142545827Y-106584399D01*
X142691498Y-106644737D01*
X142691503Y-106644739D01*
X142846153Y-106675501D01*
X142846156Y-106675502D01*
X142846158Y-106675502D01*
X143003844Y-106675502D01*
X143003845Y-106675501D01*
X143158497Y-106644739D01*
X143304179Y-106584396D01*
X143435289Y-106496791D01*
X143546789Y-106385291D01*
X143634394Y-106254181D01*
X143694737Y-106108499D01*
X143706065Y-106051551D01*
X143738449Y-105989640D01*
X143799165Y-105955066D01*
X143868935Y-105958805D01*
X143875134Y-105961181D01*
X143944013Y-105989711D01*
X144016503Y-106019737D01*
X144171153Y-106050499D01*
X144171156Y-106050500D01*
X144171158Y-106050500D01*
X144328844Y-106050500D01*
X144328845Y-106050499D01*
X144483497Y-106019737D01*
X144596166Y-105973067D01*
X144629172Y-105959397D01*
X144629172Y-105959396D01*
X144629179Y-105959394D01*
X144630061Y-105958805D01*
X144761609Y-105870907D01*
X144828286Y-105850029D01*
X144895666Y-105868513D01*
X144899391Y-105870907D01*
X145031814Y-105959390D01*
X145031827Y-105959397D01*
X145105013Y-105989711D01*
X145177503Y-106019737D01*
X145219882Y-106028166D01*
X145281791Y-106060549D01*
X145310252Y-106102331D01*
X145333844Y-106159289D01*
X145333851Y-106159302D01*
X145421452Y-106290405D01*
X145421455Y-106290409D01*
X145532949Y-106401903D01*
X145532953Y-106401906D01*
X145664056Y-106489507D01*
X145664069Y-106489514D01*
X145809740Y-106549852D01*
X145809745Y-106549854D01*
X145955477Y-106578842D01*
X145964395Y-106580616D01*
X145964398Y-106580617D01*
X145964400Y-106580617D01*
X146122086Y-106580617D01*
X146122087Y-106580616D01*
X146276739Y-106549854D01*
X146389408Y-106503184D01*
X146422414Y-106489514D01*
X146422414Y-106489513D01*
X146422421Y-106489511D01*
X146553531Y-106401906D01*
X146665031Y-106290406D01*
X146752636Y-106159296D01*
X146784830Y-106081570D01*
X146804085Y-106057675D01*
X146821584Y-106032472D01*
X146826969Y-106029276D01*
X146828668Y-106027169D01*
X146851932Y-106014465D01*
X146975518Y-105963274D01*
X147044986Y-105955806D01*
X147107465Y-105987081D01*
X147126071Y-106008944D01*
X147136703Y-106024856D01*
X147248197Y-106136350D01*
X147248201Y-106136353D01*
X147379304Y-106223954D01*
X147379317Y-106223961D01*
X147499484Y-106273735D01*
X147524993Y-106284301D01*
X147679643Y-106315063D01*
X147679646Y-106315064D01*
X147679648Y-106315064D01*
X147837334Y-106315064D01*
X147837335Y-106315063D01*
X147991987Y-106284301D01*
X148137669Y-106223958D01*
X148137679Y-106223950D01*
X148141764Y-106221768D01*
X148210166Y-106207521D01*
X148247672Y-106216559D01*
X148298590Y-106237650D01*
X148443618Y-106266498D01*
X148453240Y-106268412D01*
X148453243Y-106268413D01*
X148453245Y-106268413D01*
X148610931Y-106268413D01*
X148754780Y-106239799D01*
X148824372Y-106246026D01*
X148866653Y-106273735D01*
X148964704Y-106371786D01*
X148964708Y-106371789D01*
X149095811Y-106459390D01*
X149095824Y-106459397D01*
X149241495Y-106519735D01*
X149241500Y-106519737D01*
X149392897Y-106549852D01*
X149396150Y-106550499D01*
X149396153Y-106550500D01*
X149396155Y-106550500D01*
X149553841Y-106550500D01*
X149553842Y-106550499D01*
X149708494Y-106519737D01*
X149763898Y-106496788D01*
X149815047Y-106475602D01*
X149884516Y-106468133D01*
X149909948Y-106475600D01*
X150016503Y-106519737D01*
X150167900Y-106549852D01*
X150171153Y-106550499D01*
X150171156Y-106550500D01*
X150171158Y-106550500D01*
X150328844Y-106550500D01*
X150328845Y-106550499D01*
X150483497Y-106519737D01*
X150629179Y-106459394D01*
X150760289Y-106371789D01*
X150871789Y-106260289D01*
X150959394Y-106129179D01*
X150962854Y-106120827D01*
X151001235Y-106028165D01*
X151019737Y-105983497D01*
X151050500Y-105828842D01*
X151050500Y-105671158D01*
X151050500Y-105671155D01*
X151050499Y-105671153D01*
X151019738Y-105516510D01*
X151019737Y-105516503D01*
X151011168Y-105495816D01*
X150959397Y-105370827D01*
X150959390Y-105370814D01*
X150871789Y-105239711D01*
X150871786Y-105239707D01*
X150760292Y-105128213D01*
X150760288Y-105128210D01*
X150629185Y-105040609D01*
X150629172Y-105040602D01*
X150483501Y-104980264D01*
X150483489Y-104980261D01*
X150328845Y-104949500D01*
X150328842Y-104949500D01*
X150171158Y-104949500D01*
X150171155Y-104949500D01*
X150016510Y-104980261D01*
X150016503Y-104980263D01*
X149909949Y-105024398D01*
X149840480Y-105031866D01*
X149815046Y-105024397D01*
X149708498Y-104980264D01*
X149708486Y-104980261D01*
X149553842Y-104949500D01*
X149553839Y-104949500D01*
X149396155Y-104949500D01*
X149396150Y-104949500D01*
X149252302Y-104978113D01*
X149182710Y-104971886D01*
X149140430Y-104944177D01*
X149042379Y-104846126D01*
X149042375Y-104846123D01*
X148918141Y-104763112D01*
X148873336Y-104709500D01*
X148864629Y-104640175D01*
X148883930Y-104591119D01*
X148959390Y-104478185D01*
X148959390Y-104478184D01*
X148959394Y-104478179D01*
X149019737Y-104332497D01*
X149050500Y-104177842D01*
X149050500Y-104020158D01*
X149050500Y-104020155D01*
X149050499Y-104020153D01*
X149046234Y-103998714D01*
X149019737Y-103865503D01*
X149010858Y-103844067D01*
X148959397Y-103719827D01*
X148959390Y-103719814D01*
X148871789Y-103588711D01*
X148871786Y-103588707D01*
X148760292Y-103477213D01*
X148760288Y-103477210D01*
X148629185Y-103389609D01*
X148629172Y-103389602D01*
X148483501Y-103329264D01*
X148483489Y-103329261D01*
X148328845Y-103298500D01*
X148328842Y-103298500D01*
X148171158Y-103298500D01*
X148171155Y-103298500D01*
X148016510Y-103329261D01*
X148016498Y-103329264D01*
X147870827Y-103389602D01*
X147870814Y-103389609D01*
X147739711Y-103477210D01*
X147739707Y-103477213D01*
X147628213Y-103588707D01*
X147628210Y-103588711D01*
X147540609Y-103719814D01*
X147540602Y-103719827D01*
X147480264Y-103865498D01*
X147480261Y-103865510D01*
X147449500Y-104020153D01*
X147449500Y-104177846D01*
X147480261Y-104332489D01*
X147480264Y-104332501D01*
X147540602Y-104478172D01*
X147540609Y-104478185D01*
X147593227Y-104556933D01*
X147599603Y-104577298D01*
X147610410Y-104595700D01*
X147609835Y-104609976D01*
X147614105Y-104623611D01*
X147608459Y-104644188D01*
X147607602Y-104665513D01*
X147599399Y-104677213D01*
X147595620Y-104690991D01*
X147579744Y-104705250D01*
X147567495Y-104722725D01*
X147550113Y-104731867D01*
X147543641Y-104737681D01*
X147537061Y-104740598D01*
X147528355Y-104744158D01*
X147524993Y-104744827D01*
X147390897Y-104800370D01*
X147390579Y-104800501D01*
X147356102Y-104804050D01*
X147321626Y-104807757D01*
X147321365Y-104807626D01*
X147321077Y-104807656D01*
X147290169Y-104792010D01*
X147259147Y-104776481D01*
X147258886Y-104776174D01*
X147258739Y-104776100D01*
X147258552Y-104775782D01*
X147240541Y-104754618D01*
X147229912Y-104738710D01*
X147118415Y-104627213D01*
X147118411Y-104627210D01*
X146987308Y-104539609D01*
X146987295Y-104539602D01*
X146841624Y-104479264D01*
X146841612Y-104479261D01*
X146686968Y-104448500D01*
X146686965Y-104448500D01*
X146529281Y-104448500D01*
X146529278Y-104448500D01*
X146374633Y-104479261D01*
X146374621Y-104479264D01*
X146228950Y-104539602D01*
X146228937Y-104539609D01*
X146097837Y-104627208D01*
X146097824Y-104627219D01*
X146096726Y-104628317D01*
X146096011Y-104628706D01*
X146093130Y-104631072D01*
X146092680Y-104630524D01*
X146035397Y-104661791D01*
X145965706Y-104656794D01*
X145926431Y-104631548D01*
X145925999Y-104632076D01*
X145921467Y-104628357D01*
X145921380Y-104628301D01*
X145921292Y-104628213D01*
X145921288Y-104628210D01*
X145790185Y-104540609D01*
X145790172Y-104540602D01*
X145644501Y-104480264D01*
X145644489Y-104480261D01*
X145489845Y-104449500D01*
X145489842Y-104449500D01*
X145332158Y-104449500D01*
X145332155Y-104449500D01*
X145177510Y-104480261D01*
X145177498Y-104480264D01*
X145031827Y-104540602D01*
X145031814Y-104540609D01*
X144899391Y-104629092D01*
X144832713Y-104649970D01*
X144765333Y-104631485D01*
X144761609Y-104629092D01*
X144629185Y-104540609D01*
X144629172Y-104540602D01*
X144483501Y-104480264D01*
X144483489Y-104480261D01*
X144328845Y-104449500D01*
X144328842Y-104449500D01*
X144171158Y-104449500D01*
X144171155Y-104449500D01*
X144016510Y-104480261D01*
X144016498Y-104480264D01*
X143870827Y-104540602D01*
X143870814Y-104540609D01*
X143739711Y-104628210D01*
X143739707Y-104628213D01*
X143628213Y-104739707D01*
X143628210Y-104739711D01*
X143540609Y-104870814D01*
X143540602Y-104870827D01*
X143480264Y-105016498D01*
X143480261Y-105016507D01*
X143468934Y-105073452D01*
X143436548Y-105135363D01*
X143375832Y-105169936D01*
X143306062Y-105166195D01*
X143299865Y-105163820D01*
X143158501Y-105105266D01*
X143158489Y-105105263D01*
X143003845Y-105074502D01*
X143003842Y-105074502D01*
X142846158Y-105074502D01*
X142846155Y-105074502D01*
X142691510Y-105105263D01*
X142691498Y-105105266D01*
X142545827Y-105165604D01*
X142545814Y-105165611D01*
X142414711Y-105253212D01*
X142414707Y-105253215D01*
X142303213Y-105364709D01*
X142303210Y-105364713D01*
X142215609Y-105495816D01*
X142215602Y-105495829D01*
X142155264Y-105641500D01*
X142155261Y-105641512D01*
X142124500Y-105796155D01*
X138137485Y-105796155D01*
X138129185Y-105790609D01*
X138129172Y-105790602D01*
X137983501Y-105730264D01*
X137983489Y-105730261D01*
X137828845Y-105699500D01*
X137828842Y-105699500D01*
X137671158Y-105699500D01*
X137671155Y-105699500D01*
X137516510Y-105730261D01*
X137516498Y-105730264D01*
X137370827Y-105790602D01*
X137370814Y-105790609D01*
X137239711Y-105878210D01*
X137239707Y-105878213D01*
X137128213Y-105989707D01*
X137128210Y-105989711D01*
X137040609Y-106120814D01*
X137040602Y-106120827D01*
X136980264Y-106266498D01*
X136980261Y-106266510D01*
X136949500Y-106421153D01*
X136186411Y-106421153D01*
X136260289Y-106371789D01*
X136260292Y-106371786D01*
X136304694Y-106327385D01*
X136371786Y-106260292D01*
X136371789Y-106260289D01*
X136459394Y-106129179D01*
X136462854Y-106120827D01*
X136501235Y-106028165D01*
X136519737Y-105983497D01*
X136550500Y-105828842D01*
X136550500Y-105671158D01*
X136550500Y-105671155D01*
X136550499Y-105671153D01*
X136519738Y-105516510D01*
X136519737Y-105516503D01*
X136511168Y-105495816D01*
X136459397Y-105370827D01*
X136459390Y-105370814D01*
X136371789Y-105239711D01*
X136371786Y-105239707D01*
X136260292Y-105128213D01*
X136260288Y-105128210D01*
X136129185Y-105040609D01*
X136129172Y-105040602D01*
X135983501Y-104980264D01*
X135983489Y-104980261D01*
X135828845Y-104949500D01*
X135828842Y-104949500D01*
X135671158Y-104949500D01*
X135671155Y-104949500D01*
X135516510Y-104980261D01*
X135516498Y-104980264D01*
X135370827Y-105040602D01*
X135370814Y-105040609D01*
X135239711Y-105128210D01*
X135239707Y-105128213D01*
X135128213Y-105239707D01*
X135128210Y-105239711D01*
X135040609Y-105370814D01*
X135040602Y-105370827D01*
X134980264Y-105516498D01*
X134980261Y-105516510D01*
X134949500Y-105671153D01*
X130236527Y-105671153D01*
X130236527Y-103523920D01*
X130999499Y-103523920D01*
X131028340Y-103668907D01*
X131028343Y-103668917D01*
X131084912Y-103805488D01*
X131084919Y-103805501D01*
X131167048Y-103928415D01*
X131167051Y-103928419D01*
X131271580Y-104032948D01*
X131271584Y-104032951D01*
X131394498Y-104115080D01*
X131394511Y-104115087D01*
X131521679Y-104167761D01*
X131531087Y-104171658D01*
X131531091Y-104171658D01*
X131531092Y-104171659D01*
X131676079Y-104200500D01*
X131676082Y-104200500D01*
X131823920Y-104200500D01*
X131921462Y-104181096D01*
X131968913Y-104171658D01*
X132105495Y-104115084D01*
X132228416Y-104032951D01*
X132332951Y-103928416D01*
X132415084Y-103805495D01*
X132471658Y-103668913D01*
X132494944Y-103551850D01*
X132500500Y-103523920D01*
X132500500Y-103376079D01*
X132471659Y-103231092D01*
X132471658Y-103231091D01*
X132471658Y-103231087D01*
X132415084Y-103094505D01*
X132415081Y-103094500D01*
X132415080Y-103094498D01*
X132387179Y-103052741D01*
X138567912Y-103052741D01*
X138567912Y-103210434D01*
X138598673Y-103365077D01*
X138598676Y-103365089D01*
X138659014Y-103510760D01*
X138659021Y-103510773D01*
X138746622Y-103641876D01*
X138746625Y-103641880D01*
X138858119Y-103753374D01*
X138858123Y-103753377D01*
X138989226Y-103840978D01*
X138989239Y-103840985D01*
X139134910Y-103901323D01*
X139134915Y-103901325D01*
X139271105Y-103928415D01*
X139289565Y-103932087D01*
X139289568Y-103932088D01*
X139289570Y-103932088D01*
X139447256Y-103932088D01*
X139447257Y-103932087D01*
X139601909Y-103901325D01*
X139723654Y-103850897D01*
X139747584Y-103840985D01*
X139747584Y-103840984D01*
X139747591Y-103840982D01*
X139878701Y-103753377D01*
X139990201Y-103641877D01*
X140077806Y-103510767D01*
X140138149Y-103365085D01*
X140168912Y-103210430D01*
X140168912Y-103150264D01*
X149678611Y-103150264D01*
X149678611Y-103307957D01*
X149709372Y-103462600D01*
X149709375Y-103462612D01*
X149769713Y-103608283D01*
X149769720Y-103608296D01*
X149857321Y-103739399D01*
X149857324Y-103739403D01*
X149968818Y-103850897D01*
X149968822Y-103850900D01*
X150099925Y-103938501D01*
X150099938Y-103938508D01*
X150245290Y-103998714D01*
X150245614Y-103998848D01*
X150352721Y-104020153D01*
X150381075Y-104025793D01*
X150442986Y-104058177D01*
X150471445Y-104099958D01*
X150489855Y-104144404D01*
X150489856Y-104144407D01*
X150577459Y-104275513D01*
X150577462Y-104275517D01*
X150688956Y-104387011D01*
X150688960Y-104387014D01*
X150820063Y-104474615D01*
X150820076Y-104474622D01*
X150965747Y-104534960D01*
X150965752Y-104534962D01*
X151120402Y-104565724D01*
X151120405Y-104565725D01*
X151120407Y-104565725D01*
X151278093Y-104565725D01*
X151278094Y-104565724D01*
X151432746Y-104534962D01*
X151569819Y-104478185D01*
X151578421Y-104474622D01*
X151578421Y-104474621D01*
X151578428Y-104474619D01*
X151709538Y-104387014D01*
X151821038Y-104275514D01*
X151886299Y-104177844D01*
X151893036Y-104167762D01*
X151893036Y-104167761D01*
X151908643Y-104144404D01*
X151968986Y-103998722D01*
X151999749Y-103844067D01*
X151999749Y-103686383D01*
X151999749Y-103686380D01*
X151999748Y-103686378D01*
X151984992Y-103612196D01*
X151968986Y-103531728D01*
X151957302Y-103503520D01*
X151908646Y-103386052D01*
X151908639Y-103386039D01*
X151821038Y-103254936D01*
X151821035Y-103254932D01*
X151709541Y-103143438D01*
X151709537Y-103143435D01*
X151578434Y-103055834D01*
X151578421Y-103055827D01*
X151432750Y-102995489D01*
X151432740Y-102995486D01*
X151297283Y-102968542D01*
X151235372Y-102936157D01*
X151206915Y-102894379D01*
X151188505Y-102849932D01*
X151188500Y-102849925D01*
X151100900Y-102718822D01*
X151100897Y-102718818D01*
X150989403Y-102607324D01*
X150989399Y-102607321D01*
X150858296Y-102519720D01*
X150858283Y-102519713D01*
X150712612Y-102459375D01*
X150712600Y-102459372D01*
X150557956Y-102428611D01*
X150557953Y-102428611D01*
X150400269Y-102428611D01*
X150400266Y-102428611D01*
X150245621Y-102459372D01*
X150245609Y-102459375D01*
X150099938Y-102519713D01*
X150099925Y-102519720D01*
X149968822Y-102607321D01*
X149968818Y-102607324D01*
X149857324Y-102718818D01*
X149857321Y-102718822D01*
X149769720Y-102849925D01*
X149769713Y-102849938D01*
X149709375Y-102995609D01*
X149709372Y-102995621D01*
X149678611Y-103150264D01*
X140168912Y-103150264D01*
X140168912Y-103052746D01*
X140168912Y-103052743D01*
X140168911Y-103052741D01*
X140157523Y-102995489D01*
X140138149Y-102898091D01*
X140097726Y-102800500D01*
X140077809Y-102752415D01*
X140077802Y-102752402D01*
X139990201Y-102621299D01*
X139990198Y-102621295D01*
X139878704Y-102509801D01*
X139878700Y-102509798D01*
X139747597Y-102422197D01*
X139747584Y-102422190D01*
X139601913Y-102361852D01*
X139601901Y-102361849D01*
X139447257Y-102331088D01*
X139447254Y-102331088D01*
X139289570Y-102331088D01*
X139289567Y-102331088D01*
X139134922Y-102361849D01*
X139134910Y-102361852D01*
X138989239Y-102422190D01*
X138989226Y-102422197D01*
X138858123Y-102509798D01*
X138858119Y-102509801D01*
X138746625Y-102621295D01*
X138746622Y-102621299D01*
X138659021Y-102752402D01*
X138659014Y-102752415D01*
X138598676Y-102898086D01*
X138598673Y-102898098D01*
X138567912Y-103052741D01*
X132387179Y-103052741D01*
X132332951Y-102971584D01*
X132332948Y-102971580D01*
X132228419Y-102867051D01*
X132228415Y-102867048D01*
X132105501Y-102784919D01*
X132105488Y-102784912D01*
X131968917Y-102728343D01*
X131968907Y-102728340D01*
X131823920Y-102699500D01*
X131823918Y-102699500D01*
X131676082Y-102699500D01*
X131676080Y-102699500D01*
X131531092Y-102728340D01*
X131531082Y-102728343D01*
X131394511Y-102784912D01*
X131394498Y-102784919D01*
X131271584Y-102867048D01*
X131271580Y-102867051D01*
X131167051Y-102971580D01*
X131167048Y-102971584D01*
X131084919Y-103094498D01*
X131084912Y-103094511D01*
X131028343Y-103231082D01*
X131028340Y-103231092D01*
X130999500Y-103376079D01*
X130999500Y-103376082D01*
X130999500Y-103523918D01*
X130999500Y-103523920D01*
X130999499Y-103523920D01*
X130236527Y-103523920D01*
X130236527Y-101147867D01*
X134697948Y-101147867D01*
X134697948Y-101305560D01*
X134728709Y-101460203D01*
X134728712Y-101460215D01*
X134789051Y-101605888D01*
X134791923Y-101611260D01*
X134790368Y-101612090D01*
X134808750Y-101670810D01*
X134799332Y-101720466D01*
X134780262Y-101766506D01*
X134780260Y-101766511D01*
X134749500Y-101921153D01*
X134749500Y-102078846D01*
X134780261Y-102233489D01*
X134780264Y-102233501D01*
X134840602Y-102379172D01*
X134840609Y-102379185D01*
X134928210Y-102510288D01*
X134928213Y-102510292D01*
X135039707Y-102621786D01*
X135039711Y-102621789D01*
X135170814Y-102709390D01*
X135170827Y-102709397D01*
X135316498Y-102769735D01*
X135316503Y-102769737D01*
X135471153Y-102800499D01*
X135471156Y-102800500D01*
X135471158Y-102800500D01*
X135628844Y-102800500D01*
X135628845Y-102800499D01*
X135783497Y-102769737D01*
X135929179Y-102709394D01*
X136060289Y-102621789D01*
X136171789Y-102510289D01*
X136259394Y-102379179D01*
X136319737Y-102233497D01*
X136350500Y-102078842D01*
X136350500Y-101921158D01*
X136350500Y-101921155D01*
X136350499Y-101921153D01*
X136319737Y-101766503D01*
X136259394Y-101620821D01*
X136259393Y-101620819D01*
X136256525Y-101615454D01*
X136258080Y-101614622D01*
X136239697Y-101555912D01*
X136249117Y-101506244D01*
X136268183Y-101460215D01*
X136268185Y-101460211D01*
X136298948Y-101305556D01*
X136298948Y-101147872D01*
X136298948Y-101147869D01*
X136298947Y-101147867D01*
X136295228Y-101129172D01*
X136268185Y-100993217D01*
X136264156Y-100983489D01*
X136207845Y-100847541D01*
X136207838Y-100847528D01*
X136120237Y-100716425D01*
X136120234Y-100716421D01*
X136008740Y-100604927D01*
X136008736Y-100604924D01*
X135877633Y-100517323D01*
X135877620Y-100517316D01*
X135731949Y-100456978D01*
X135731937Y-100456975D01*
X135577293Y-100426214D01*
X135577290Y-100426214D01*
X135419606Y-100426214D01*
X135419603Y-100426214D01*
X135264958Y-100456975D01*
X135264946Y-100456978D01*
X135119275Y-100517316D01*
X135119262Y-100517323D01*
X134988159Y-100604924D01*
X134988155Y-100604927D01*
X134876661Y-100716421D01*
X134876658Y-100716425D01*
X134789057Y-100847528D01*
X134789050Y-100847541D01*
X134728712Y-100993212D01*
X134728709Y-100993224D01*
X134697948Y-101147867D01*
X130236527Y-101147867D01*
X130236527Y-98421153D01*
X139150500Y-98421153D01*
X139150500Y-98578846D01*
X139181261Y-98733489D01*
X139181264Y-98733501D01*
X139241602Y-98879172D01*
X139241609Y-98879185D01*
X139329210Y-99010288D01*
X139329213Y-99010292D01*
X139440707Y-99121786D01*
X139440712Y-99121790D01*
X139468792Y-99140552D01*
X139513598Y-99194163D01*
X139522307Y-99263488D01*
X139492153Y-99326516D01*
X139487585Y-99331335D01*
X139433467Y-99385453D01*
X139433463Y-99385458D01*
X139345862Y-99516561D01*
X139345855Y-99516574D01*
X139285517Y-99662245D01*
X139285514Y-99662257D01*
X139254753Y-99816900D01*
X139254753Y-99974593D01*
X139285514Y-100129236D01*
X139285517Y-100129248D01*
X139345855Y-100274919D01*
X139345862Y-100274932D01*
X139433463Y-100406035D01*
X139433466Y-100406039D01*
X139544960Y-100517533D01*
X139544964Y-100517536D01*
X139676067Y-100605137D01*
X139676080Y-100605144D01*
X139821751Y-100665482D01*
X139821756Y-100665484D01*
X139970398Y-100695051D01*
X139976406Y-100696246D01*
X139976409Y-100696247D01*
X139976411Y-100696247D01*
X140134097Y-100696247D01*
X140134098Y-100696246D01*
X140260250Y-100671153D01*
X143449500Y-100671153D01*
X143449500Y-100828846D01*
X143480261Y-100983489D01*
X143480264Y-100983501D01*
X143540602Y-101129172D01*
X143540609Y-101129185D01*
X143628210Y-101260288D01*
X143628213Y-101260292D01*
X143739707Y-101371786D01*
X143739711Y-101371789D01*
X143870814Y-101459390D01*
X143870827Y-101459397D01*
X144016498Y-101519735D01*
X144016503Y-101519737D01*
X144171153Y-101550499D01*
X144171156Y-101550500D01*
X144171158Y-101550500D01*
X144328844Y-101550500D01*
X144328845Y-101550499D01*
X144483497Y-101519737D01*
X144629179Y-101459394D01*
X144760289Y-101371789D01*
X144871789Y-101260289D01*
X144959394Y-101129179D01*
X144962154Y-101122517D01*
X145019735Y-100983501D01*
X145019737Y-100983497D01*
X145050500Y-100828842D01*
X145050500Y-100671158D01*
X145050500Y-100671155D01*
X145050499Y-100671153D01*
X145037368Y-100605141D01*
X145019737Y-100516503D01*
X144995080Y-100456975D01*
X144959397Y-100370827D01*
X144959390Y-100370814D01*
X144871789Y-100239711D01*
X144871786Y-100239707D01*
X144760292Y-100128213D01*
X144760288Y-100128210D01*
X144629185Y-100040609D01*
X144629172Y-100040602D01*
X144483501Y-99980264D01*
X144483489Y-99980261D01*
X144328845Y-99949500D01*
X144328842Y-99949500D01*
X144171158Y-99949500D01*
X144171155Y-99949500D01*
X144016510Y-99980261D01*
X144016498Y-99980264D01*
X143870827Y-100040602D01*
X143870814Y-100040609D01*
X143739711Y-100128210D01*
X143739707Y-100128213D01*
X143628213Y-100239707D01*
X143628210Y-100239711D01*
X143540609Y-100370814D01*
X143540602Y-100370827D01*
X143480264Y-100516498D01*
X143480261Y-100516510D01*
X143449500Y-100671153D01*
X140260250Y-100671153D01*
X140288750Y-100665484D01*
X140434432Y-100605141D01*
X140434757Y-100604924D01*
X140499052Y-100561964D01*
X140534264Y-100538434D01*
X140565542Y-100517536D01*
X140677042Y-100406036D01*
X140710736Y-100355608D01*
X140764347Y-100310805D01*
X140813838Y-100300500D01*
X140828844Y-100300500D01*
X140828845Y-100300499D01*
X140983497Y-100269737D01*
X141129179Y-100209394D01*
X141260289Y-100121789D01*
X141371789Y-100010289D01*
X141459394Y-99879179D01*
X141519737Y-99733497D01*
X141550500Y-99578842D01*
X141550500Y-99421158D01*
X141550500Y-99421155D01*
X141550499Y-99421153D01*
X141519738Y-99266510D01*
X141519737Y-99266503D01*
X141518488Y-99263488D01*
X141459397Y-99120827D01*
X141459390Y-99120814D01*
X141371789Y-98989711D01*
X141371786Y-98989707D01*
X141260292Y-98878213D01*
X141260288Y-98878210D01*
X141129185Y-98790609D01*
X141129172Y-98790602D01*
X140983501Y-98730264D01*
X140983491Y-98730261D01*
X140851308Y-98703968D01*
X140789397Y-98671583D01*
X140754823Y-98610867D01*
X140751500Y-98582351D01*
X140751500Y-98421155D01*
X140751499Y-98421153D01*
X140720737Y-98266503D01*
X140702616Y-98222754D01*
X140660397Y-98120827D01*
X140660390Y-98120814D01*
X140572789Y-97989711D01*
X140572786Y-97989707D01*
X140461292Y-97878213D01*
X140461288Y-97878210D01*
X140330185Y-97790609D01*
X140330172Y-97790602D01*
X140184501Y-97730264D01*
X140184489Y-97730261D01*
X140029845Y-97699500D01*
X140029842Y-97699500D01*
X139872158Y-97699500D01*
X139872155Y-97699500D01*
X139717510Y-97730261D01*
X139717498Y-97730264D01*
X139571827Y-97790602D01*
X139571814Y-97790609D01*
X139440711Y-97878210D01*
X139440707Y-97878213D01*
X139329213Y-97989707D01*
X139329210Y-97989711D01*
X139241609Y-98120814D01*
X139241602Y-98120827D01*
X139181264Y-98266498D01*
X139181261Y-98266510D01*
X139150500Y-98421153D01*
X130236527Y-98421153D01*
X130236527Y-95523920D01*
X130999499Y-95523920D01*
X131028340Y-95668907D01*
X131028343Y-95668917D01*
X131084912Y-95805488D01*
X131084919Y-95805501D01*
X131167048Y-95928415D01*
X131167051Y-95928419D01*
X131271580Y-96032948D01*
X131271584Y-96032951D01*
X131394498Y-96115080D01*
X131394511Y-96115087D01*
X131529868Y-96171153D01*
X131531087Y-96171658D01*
X131531091Y-96171658D01*
X131531092Y-96171659D01*
X131676079Y-96200500D01*
X131676082Y-96200500D01*
X131823920Y-96200500D01*
X131921462Y-96181096D01*
X131968913Y-96171658D01*
X131970132Y-96171153D01*
X139699500Y-96171153D01*
X139699500Y-96328846D01*
X139730261Y-96483489D01*
X139730264Y-96483501D01*
X139790602Y-96629172D01*
X139790609Y-96629185D01*
X139878210Y-96760288D01*
X139878213Y-96760292D01*
X139989707Y-96871786D01*
X139989711Y-96871789D01*
X140120814Y-96959390D01*
X140120827Y-96959397D01*
X140218853Y-97000000D01*
X140266503Y-97019737D01*
X140421153Y-97050499D01*
X140421156Y-97050500D01*
X140421158Y-97050500D01*
X140578844Y-97050500D01*
X140578845Y-97050499D01*
X140733497Y-97019737D01*
X140879179Y-96959394D01*
X141010289Y-96871789D01*
X141121789Y-96760289D01*
X141209394Y-96629179D01*
X141269737Y-96483497D01*
X141300500Y-96328842D01*
X141300500Y-96324837D01*
X141301093Y-96322814D01*
X141301097Y-96322782D01*
X141301103Y-96322782D01*
X141320185Y-96257798D01*
X141372989Y-96212043D01*
X141376986Y-96210302D01*
X141379179Y-96209394D01*
X141510289Y-96121789D01*
X141599097Y-96032981D01*
X144374501Y-96032981D01*
X144374501Y-96190674D01*
X144405262Y-96345317D01*
X144405265Y-96345329D01*
X144465603Y-96491000D01*
X144465610Y-96491013D01*
X144553211Y-96622116D01*
X144553214Y-96622120D01*
X144664708Y-96733614D01*
X144664712Y-96733617D01*
X144795815Y-96821218D01*
X144795828Y-96821225D01*
X144917895Y-96871786D01*
X144941504Y-96881565D01*
X145096154Y-96912327D01*
X145096157Y-96912328D01*
X145096159Y-96912328D01*
X145253845Y-96912328D01*
X145253846Y-96912327D01*
X145408498Y-96881565D01*
X145554180Y-96821222D01*
X145554186Y-96821218D01*
X145607225Y-96785779D01*
X145645374Y-96760288D01*
X145685290Y-96733617D01*
X145796790Y-96622117D01*
X145884395Y-96491007D01*
X145944738Y-96345325D01*
X145975501Y-96190670D01*
X145975501Y-96032986D01*
X145975501Y-96032983D01*
X145975500Y-96032981D01*
X145954701Y-95928419D01*
X145944738Y-95878331D01*
X145941624Y-95870814D01*
X145884398Y-95732655D01*
X145884391Y-95732642D01*
X145796790Y-95601539D01*
X145796787Y-95601535D01*
X145685293Y-95490041D01*
X145685289Y-95490038D01*
X145554186Y-95402437D01*
X145554173Y-95402430D01*
X145408502Y-95342092D01*
X145408490Y-95342089D01*
X145253846Y-95311328D01*
X145253843Y-95311328D01*
X145096159Y-95311328D01*
X145096156Y-95311328D01*
X144941511Y-95342089D01*
X144941499Y-95342092D01*
X144795828Y-95402430D01*
X144795815Y-95402437D01*
X144664712Y-95490038D01*
X144664708Y-95490041D01*
X144553214Y-95601535D01*
X144553211Y-95601539D01*
X144465610Y-95732642D01*
X144465603Y-95732655D01*
X144405265Y-95878326D01*
X144405262Y-95878338D01*
X144374501Y-96032981D01*
X141599097Y-96032981D01*
X141621789Y-96010289D01*
X141640607Y-95982125D01*
X141656726Y-95958003D01*
X141709390Y-95879185D01*
X141709390Y-95879184D01*
X141709394Y-95879179D01*
X141712854Y-95870827D01*
X141725308Y-95840760D01*
X141769737Y-95733497D01*
X141800500Y-95578842D01*
X141800500Y-95421158D01*
X141800500Y-95421155D01*
X141800499Y-95421153D01*
X141796776Y-95402437D01*
X141769737Y-95266503D01*
X141769735Y-95266498D01*
X141709397Y-95120827D01*
X141709395Y-95120823D01*
X141709394Y-95120821D01*
X141686586Y-95086686D01*
X141665708Y-95020009D01*
X141684192Y-94952629D01*
X141736171Y-94905938D01*
X141765495Y-94896178D01*
X141914764Y-94866487D01*
X142060446Y-94806144D01*
X142191556Y-94718539D01*
X142303056Y-94607039D01*
X142390661Y-94475929D01*
X142451004Y-94330247D01*
X142481767Y-94175592D01*
X142481767Y-94019707D01*
X142501452Y-93952668D01*
X142554256Y-93906913D01*
X142623414Y-93896969D01*
X142629959Y-93898090D01*
X142692346Y-93910500D01*
X142692349Y-93910500D01*
X142850035Y-93910500D01*
X142850036Y-93910499D01*
X143004688Y-93879737D01*
X143150370Y-93819394D01*
X143281480Y-93731789D01*
X143342116Y-93671153D01*
X146199500Y-93671153D01*
X146199500Y-93828846D01*
X146230261Y-93983489D01*
X146230264Y-93983501D01*
X146290602Y-94129172D01*
X146290609Y-94129185D01*
X146378210Y-94260288D01*
X146378213Y-94260292D01*
X146489707Y-94371786D01*
X146489711Y-94371789D01*
X146620814Y-94459390D01*
X146620827Y-94459397D01*
X146766498Y-94519735D01*
X146766503Y-94519737D01*
X146921153Y-94550499D01*
X146921156Y-94550500D01*
X146921158Y-94550500D01*
X147078844Y-94550500D01*
X147078845Y-94550499D01*
X147233497Y-94519737D01*
X147379179Y-94459394D01*
X147510289Y-94371789D01*
X147621789Y-94260289D01*
X147709394Y-94129179D01*
X147769737Y-93983497D01*
X147800500Y-93828842D01*
X147800500Y-93671158D01*
X147800500Y-93671155D01*
X147800499Y-93671153D01*
X147783653Y-93586464D01*
X147769737Y-93516503D01*
X147767163Y-93510288D01*
X147709397Y-93370827D01*
X147709390Y-93370814D01*
X147621789Y-93239711D01*
X147621786Y-93239707D01*
X147510292Y-93128213D01*
X147510288Y-93128210D01*
X147379185Y-93040609D01*
X147379173Y-93040602D01*
X147352674Y-93029627D01*
X147233501Y-92980264D01*
X147233489Y-92980261D01*
X147078845Y-92949500D01*
X147078842Y-92949500D01*
X146921158Y-92949500D01*
X146921155Y-92949500D01*
X146766510Y-92980261D01*
X146766498Y-92980264D01*
X146620827Y-93040602D01*
X146620814Y-93040609D01*
X146489711Y-93128210D01*
X146489707Y-93128213D01*
X146378213Y-93239707D01*
X146378210Y-93239711D01*
X146290609Y-93370814D01*
X146290602Y-93370827D01*
X146230264Y-93516498D01*
X146230261Y-93516510D01*
X146199500Y-93671153D01*
X143342116Y-93671153D01*
X143392980Y-93620289D01*
X143402024Y-93606752D01*
X143409093Y-93596175D01*
X143480581Y-93489185D01*
X143480581Y-93489184D01*
X143480585Y-93489179D01*
X143540928Y-93343497D01*
X143571691Y-93188842D01*
X143571691Y-93031158D01*
X143571691Y-93031155D01*
X143571690Y-93031153D01*
X143549809Y-92921153D01*
X149449500Y-92921153D01*
X149449500Y-93078846D01*
X149480261Y-93233489D01*
X149480264Y-93233501D01*
X149540602Y-93379172D01*
X149540609Y-93379185D01*
X149628210Y-93510288D01*
X149628213Y-93510292D01*
X149739707Y-93621786D01*
X149739711Y-93621789D01*
X149870814Y-93709390D01*
X149870827Y-93709397D01*
X149974126Y-93752184D01*
X150016503Y-93769737D01*
X150171153Y-93800499D01*
X150171156Y-93800500D01*
X150171158Y-93800500D01*
X150328844Y-93800500D01*
X150328845Y-93800499D01*
X150483497Y-93769737D01*
X150571008Y-93733489D01*
X150592377Y-93724638D01*
X150661846Y-93717169D01*
X150724325Y-93748444D01*
X150754390Y-93791746D01*
X150790604Y-93879176D01*
X150790609Y-93879185D01*
X150878210Y-94010288D01*
X150878213Y-94010292D01*
X150989707Y-94121786D01*
X150989711Y-94121789D01*
X151120814Y-94209390D01*
X151120827Y-94209397D01*
X151266498Y-94269735D01*
X151266503Y-94269737D01*
X151421153Y-94300499D01*
X151421156Y-94300500D01*
X151421158Y-94300500D01*
X151578844Y-94300500D01*
X151578845Y-94300499D01*
X151733497Y-94269737D01*
X151879179Y-94209394D01*
X152010289Y-94121789D01*
X152121789Y-94010289D01*
X152209394Y-93879179D01*
X152269737Y-93733497D01*
X152285828Y-93652603D01*
X152288848Y-93637423D01*
X152321233Y-93575512D01*
X152381949Y-93540938D01*
X152410465Y-93537614D01*
X152425896Y-93537614D01*
X152425897Y-93537613D01*
X152580549Y-93506851D01*
X152726231Y-93446508D01*
X152857341Y-93358903D01*
X152968841Y-93247403D01*
X153056446Y-93116293D01*
X153116789Y-92970611D01*
X153147552Y-92815956D01*
X153147552Y-92658272D01*
X153147552Y-92658269D01*
X153147551Y-92658267D01*
X153135903Y-92599711D01*
X153116789Y-92503617D01*
X153092259Y-92444396D01*
X153056449Y-92357941D01*
X153056442Y-92357928D01*
X152968841Y-92226825D01*
X152968838Y-92226821D01*
X152857344Y-92115327D01*
X152857340Y-92115324D01*
X152726237Y-92027723D01*
X152726224Y-92027716D01*
X152580553Y-91967378D01*
X152580541Y-91967375D01*
X152425897Y-91936614D01*
X152425894Y-91936614D01*
X152268210Y-91936614D01*
X152268207Y-91936614D01*
X152113562Y-91967375D01*
X152113550Y-91967378D01*
X151967879Y-92027716D01*
X151967866Y-92027723D01*
X151836763Y-92115324D01*
X151836759Y-92115327D01*
X151725265Y-92226821D01*
X151725262Y-92226825D01*
X151637661Y-92357928D01*
X151637654Y-92357941D01*
X151577316Y-92503612D01*
X151577313Y-92503624D01*
X151558204Y-92599691D01*
X151525819Y-92661602D01*
X151465103Y-92696176D01*
X151436587Y-92699500D01*
X151421155Y-92699500D01*
X151266510Y-92730261D01*
X151266498Y-92730264D01*
X151157622Y-92775362D01*
X151088153Y-92782831D01*
X151025674Y-92751555D01*
X150995611Y-92708257D01*
X150959394Y-92620821D01*
X150959392Y-92620818D01*
X150959390Y-92620814D01*
X150871789Y-92489711D01*
X150871786Y-92489707D01*
X150760292Y-92378213D01*
X150760288Y-92378210D01*
X150629185Y-92290609D01*
X150629172Y-92290602D01*
X150483501Y-92230264D01*
X150483489Y-92230261D01*
X150328845Y-92199500D01*
X150328842Y-92199500D01*
X150171158Y-92199500D01*
X150171155Y-92199500D01*
X150016510Y-92230261D01*
X150016498Y-92230264D01*
X149870827Y-92290602D01*
X149870814Y-92290609D01*
X149739711Y-92378210D01*
X149739707Y-92378213D01*
X149628213Y-92489707D01*
X149628210Y-92489711D01*
X149540609Y-92620814D01*
X149540602Y-92620827D01*
X149480264Y-92766498D01*
X149480261Y-92766510D01*
X149449500Y-92921153D01*
X143549809Y-92921153D01*
X143540929Y-92876510D01*
X143540928Y-92876503D01*
X143528872Y-92847396D01*
X143480588Y-92730827D01*
X143480581Y-92730814D01*
X143392980Y-92599711D01*
X143392977Y-92599707D01*
X143281483Y-92488213D01*
X143281479Y-92488210D01*
X143150376Y-92400609D01*
X143150363Y-92400602D01*
X143004692Y-92340264D01*
X143004680Y-92340261D01*
X142850036Y-92309500D01*
X142850033Y-92309500D01*
X142692349Y-92309500D01*
X142692346Y-92309500D01*
X142537701Y-92340261D01*
X142537689Y-92340264D01*
X142391252Y-92400920D01*
X142321783Y-92408389D01*
X142266227Y-92380578D01*
X142264999Y-92382076D01*
X142260288Y-92378210D01*
X142129185Y-92290609D01*
X142129172Y-92290602D01*
X141983501Y-92230264D01*
X141983489Y-92230261D01*
X141828845Y-92199500D01*
X141828842Y-92199500D01*
X141671158Y-92199500D01*
X141671155Y-92199500D01*
X141516510Y-92230261D01*
X141516498Y-92230264D01*
X141370827Y-92290602D01*
X141370814Y-92290609D01*
X141239711Y-92378210D01*
X141239707Y-92378213D01*
X141128213Y-92489707D01*
X141128210Y-92489711D01*
X141040609Y-92620814D01*
X141040602Y-92620827D01*
X140980264Y-92766498D01*
X140980261Y-92766510D01*
X140949500Y-92921153D01*
X140949500Y-93078846D01*
X140980261Y-93233489D01*
X140980264Y-93233501D01*
X141040602Y-93379172D01*
X141040606Y-93379179D01*
X141074653Y-93430134D01*
X141095531Y-93496811D01*
X141077047Y-93564191D01*
X141063224Y-93581662D01*
X141063339Y-93581757D01*
X141059475Y-93586464D01*
X140971876Y-93717564D01*
X140971869Y-93717577D01*
X140911531Y-93863248D01*
X140911528Y-93863260D01*
X140880767Y-94017903D01*
X140880767Y-94175596D01*
X140911528Y-94330239D01*
X140911531Y-94330251D01*
X140971869Y-94475922D01*
X140971876Y-94475935D01*
X140994680Y-94510063D01*
X141015558Y-94576741D01*
X140997073Y-94644121D01*
X140945095Y-94690811D01*
X140915770Y-94700571D01*
X140766508Y-94730261D01*
X140766498Y-94730264D01*
X140620827Y-94790602D01*
X140620814Y-94790609D01*
X140489711Y-94878210D01*
X140489707Y-94878213D01*
X140378213Y-94989707D01*
X140378210Y-94989711D01*
X140290609Y-95120814D01*
X140290602Y-95120827D01*
X140230264Y-95266498D01*
X140230261Y-95266510D01*
X140199500Y-95421153D01*
X140199500Y-95425161D01*
X140198906Y-95427182D01*
X140198903Y-95427218D01*
X140198896Y-95427217D01*
X140179815Y-95492200D01*
X140127011Y-95537955D01*
X140122962Y-95539718D01*
X140120830Y-95540601D01*
X140120814Y-95540609D01*
X139989711Y-95628210D01*
X139989707Y-95628213D01*
X139878213Y-95739707D01*
X139878210Y-95739711D01*
X139790609Y-95870814D01*
X139790602Y-95870827D01*
X139730264Y-96016498D01*
X139730261Y-96016510D01*
X139699500Y-96171153D01*
X131970132Y-96171153D01*
X132105495Y-96115084D01*
X132105501Y-96115080D01*
X132184996Y-96061964D01*
X132207948Y-96046626D01*
X132228416Y-96032951D01*
X132332951Y-95928416D01*
X132415084Y-95805495D01*
X132471658Y-95668913D01*
X132482372Y-95615051D01*
X132500500Y-95523920D01*
X132500500Y-95376079D01*
X132471659Y-95231092D01*
X132471658Y-95231091D01*
X132471658Y-95231087D01*
X132445452Y-95167820D01*
X132415087Y-95094511D01*
X132415080Y-95094498D01*
X132332951Y-94971584D01*
X132332948Y-94971580D01*
X132228419Y-94867051D01*
X132228415Y-94867048D01*
X132105501Y-94784919D01*
X132105488Y-94784912D01*
X131968917Y-94728343D01*
X131968907Y-94728340D01*
X131823920Y-94699500D01*
X131823918Y-94699500D01*
X131676082Y-94699500D01*
X131676080Y-94699500D01*
X131531092Y-94728340D01*
X131531082Y-94728343D01*
X131394511Y-94784912D01*
X131394498Y-94784919D01*
X131271584Y-94867048D01*
X131271580Y-94867051D01*
X131167051Y-94971580D01*
X131167048Y-94971584D01*
X131084919Y-95094498D01*
X131084912Y-95094511D01*
X131028343Y-95231082D01*
X131028340Y-95231092D01*
X130999500Y-95376079D01*
X130999500Y-95376082D01*
X130999500Y-95523918D01*
X130999500Y-95523920D01*
X130999499Y-95523920D01*
X130236527Y-95523920D01*
X130236527Y-87061304D01*
X130649500Y-87061304D01*
X130649500Y-87238695D01*
X130684103Y-87412658D01*
X130684106Y-87412667D01*
X130751983Y-87576540D01*
X130751990Y-87576553D01*
X130850535Y-87724034D01*
X130850538Y-87724038D01*
X130975961Y-87849461D01*
X130975965Y-87849464D01*
X131123446Y-87948009D01*
X131123459Y-87948016D01*
X131224122Y-87989711D01*
X131287334Y-88015894D01*
X131287336Y-88015894D01*
X131287341Y-88015896D01*
X131461304Y-88050499D01*
X131461307Y-88050500D01*
X131461309Y-88050500D01*
X131634155Y-88050500D01*
X131701194Y-88070185D01*
X131746949Y-88122989D01*
X131756893Y-88192147D01*
X131748716Y-88221952D01*
X131730264Y-88266498D01*
X131730261Y-88266510D01*
X131699500Y-88421153D01*
X131699500Y-88578846D01*
X131730261Y-88733489D01*
X131730264Y-88733501D01*
X131790602Y-88879172D01*
X131790609Y-88879185D01*
X131878210Y-89010288D01*
X131878213Y-89010292D01*
X131989707Y-89121786D01*
X131989711Y-89121789D01*
X132120814Y-89209390D01*
X132120827Y-89209397D01*
X132266498Y-89269735D01*
X132266503Y-89269737D01*
X132421153Y-89300499D01*
X132421156Y-89300500D01*
X132421158Y-89300500D01*
X132578844Y-89300500D01*
X132578845Y-89300499D01*
X132733497Y-89269737D01*
X132879179Y-89209394D01*
X133010289Y-89121789D01*
X133121789Y-89010289D01*
X133209394Y-88879179D01*
X133269737Y-88733497D01*
X133300500Y-88578842D01*
X133300500Y-88421158D01*
X133300500Y-88421155D01*
X133300499Y-88421153D01*
X133269738Y-88266510D01*
X133269737Y-88266503D01*
X133250424Y-88219879D01*
X133242956Y-88150410D01*
X133274231Y-88087931D01*
X133334320Y-88052279D01*
X133404145Y-88054773D01*
X133452667Y-88084746D01*
X133489707Y-88121786D01*
X133489711Y-88121789D01*
X133620814Y-88209390D01*
X133620827Y-88209397D01*
X133758683Y-88266498D01*
X133766503Y-88269737D01*
X133921153Y-88300499D01*
X133921156Y-88300500D01*
X133921158Y-88300500D01*
X134078844Y-88300500D01*
X134078845Y-88300499D01*
X134233497Y-88269737D01*
X134379179Y-88209394D01*
X134510289Y-88121789D01*
X134621789Y-88010289D01*
X134709394Y-87879179D01*
X134769737Y-87733497D01*
X134779508Y-87684373D01*
X134811892Y-87622464D01*
X134872607Y-87587890D01*
X134942377Y-87591629D01*
X134984696Y-87618295D01*
X134985001Y-87617924D01*
X134987957Y-87620350D01*
X134988806Y-87620885D01*
X134989707Y-87621786D01*
X134989711Y-87621789D01*
X135120814Y-87709390D01*
X135120827Y-87709397D01*
X135241718Y-87759471D01*
X135266503Y-87769737D01*
X135421153Y-87800499D01*
X135421156Y-87800500D01*
X135421158Y-87800500D01*
X135578844Y-87800500D01*
X135578845Y-87800499D01*
X135733497Y-87769737D01*
X135879179Y-87709394D01*
X136010289Y-87621789D01*
X136121789Y-87510289D01*
X136209394Y-87379179D01*
X136269737Y-87233497D01*
X136300500Y-87078842D01*
X136300500Y-86921158D01*
X136300500Y-86921155D01*
X136300499Y-86921153D01*
X136293772Y-86887334D01*
X136269737Y-86766503D01*
X136269477Y-86765875D01*
X136209397Y-86620827D01*
X136209390Y-86620814D01*
X136121789Y-86489711D01*
X136121786Y-86489707D01*
X136010292Y-86378213D01*
X136010288Y-86378210D01*
X135879185Y-86290609D01*
X135879172Y-86290602D01*
X135733501Y-86230264D01*
X135733489Y-86230261D01*
X135578845Y-86199500D01*
X135578842Y-86199500D01*
X135421158Y-86199500D01*
X135421155Y-86199500D01*
X135266510Y-86230261D01*
X135266498Y-86230264D01*
X135120827Y-86290602D01*
X135120814Y-86290609D01*
X134989711Y-86378210D01*
X134989707Y-86378213D01*
X134878213Y-86489707D01*
X134878210Y-86489711D01*
X134790609Y-86620814D01*
X134790602Y-86620827D01*
X134730264Y-86766498D01*
X134730261Y-86766507D01*
X134720491Y-86815626D01*
X134688105Y-86877536D01*
X134627389Y-86912110D01*
X134557620Y-86908369D01*
X134515303Y-86881704D01*
X134514999Y-86882076D01*
X134512040Y-86879647D01*
X134511193Y-86879114D01*
X134510292Y-86878213D01*
X134510288Y-86878210D01*
X134379185Y-86790609D01*
X134379172Y-86790602D01*
X134233501Y-86730264D01*
X134233489Y-86730261D01*
X134078845Y-86699500D01*
X134078842Y-86699500D01*
X133921158Y-86699500D01*
X133921155Y-86699500D01*
X133766510Y-86730261D01*
X133766498Y-86730264D01*
X133620827Y-86790602D01*
X133620814Y-86790609D01*
X133489711Y-86878210D01*
X133489707Y-86878213D01*
X133378213Y-86989707D01*
X133378210Y-86989711D01*
X133290609Y-87120814D01*
X133290602Y-87120827D01*
X133230264Y-87266498D01*
X133230261Y-87266510D01*
X133199500Y-87421153D01*
X133199500Y-87578846D01*
X133230261Y-87733489D01*
X133230263Y-87733497D01*
X133249575Y-87780120D01*
X133257043Y-87849590D01*
X133225767Y-87912069D01*
X133165678Y-87947721D01*
X133095853Y-87945226D01*
X133047332Y-87915253D01*
X133010292Y-87878213D01*
X133010288Y-87878210D01*
X132879185Y-87790609D01*
X132879176Y-87790604D01*
X132804013Y-87759471D01*
X132749610Y-87715630D01*
X132727545Y-87649336D01*
X132744824Y-87581636D01*
X132747909Y-87576741D01*
X132748009Y-87576551D01*
X132748013Y-87576547D01*
X132815894Y-87412666D01*
X132822557Y-87379172D01*
X132850499Y-87238695D01*
X132850500Y-87238693D01*
X132850500Y-87061306D01*
X132850499Y-87061304D01*
X132815896Y-86887341D01*
X132815893Y-86887332D01*
X132811835Y-86877536D01*
X132775830Y-86790609D01*
X132748016Y-86723459D01*
X132748009Y-86723446D01*
X132649464Y-86575965D01*
X132649461Y-86575961D01*
X132524038Y-86450538D01*
X132524034Y-86450535D01*
X132376553Y-86351990D01*
X132376540Y-86351983D01*
X132212667Y-86284106D01*
X132212658Y-86284103D01*
X132038694Y-86249500D01*
X132038691Y-86249500D01*
X131461309Y-86249500D01*
X131461306Y-86249500D01*
X131287341Y-86284103D01*
X131287332Y-86284106D01*
X131123459Y-86351983D01*
X131123446Y-86351990D01*
X130975965Y-86450535D01*
X130975961Y-86450538D01*
X130850538Y-86575961D01*
X130850535Y-86575965D01*
X130751990Y-86723446D01*
X130751983Y-86723459D01*
X130684106Y-86887332D01*
X130684103Y-86887341D01*
X130649500Y-87061304D01*
X130236527Y-87061304D01*
X130236527Y-81561304D01*
X130649500Y-81561304D01*
X130649500Y-81738695D01*
X130684103Y-81912658D01*
X130684106Y-81912667D01*
X130751983Y-82076540D01*
X130751990Y-82076553D01*
X130821853Y-82181109D01*
X130842731Y-82247786D01*
X130824247Y-82315166D01*
X130821853Y-82318891D01*
X130751990Y-82423446D01*
X130751983Y-82423459D01*
X130684106Y-82587332D01*
X130684103Y-82587341D01*
X130649500Y-82761304D01*
X130649500Y-82938695D01*
X130684103Y-83112658D01*
X130684106Y-83112667D01*
X130751983Y-83276540D01*
X130751990Y-83276553D01*
X130850535Y-83424034D01*
X130850538Y-83424038D01*
X130975961Y-83549461D01*
X130975965Y-83549464D01*
X131123446Y-83648009D01*
X131123459Y-83648016D01*
X131246363Y-83698923D01*
X131287334Y-83715894D01*
X131287336Y-83715894D01*
X131287341Y-83715896D01*
X131461304Y-83750499D01*
X131461307Y-83750500D01*
X131461309Y-83750500D01*
X132038693Y-83750500D01*
X132038694Y-83750499D01*
X132096682Y-83738964D01*
X132212658Y-83715896D01*
X132212661Y-83715894D01*
X132212666Y-83715894D01*
X132376547Y-83648013D01*
X132524035Y-83549464D01*
X132649464Y-83424035D01*
X132748013Y-83276547D01*
X132802677Y-83144574D01*
X134774501Y-83144574D01*
X134774501Y-83302267D01*
X134805262Y-83456910D01*
X134805265Y-83456922D01*
X134865603Y-83602593D01*
X134865610Y-83602606D01*
X134953211Y-83733709D01*
X134953214Y-83733713D01*
X135064708Y-83845207D01*
X135064712Y-83845210D01*
X135195815Y-83932811D01*
X135195828Y-83932818D01*
X135341499Y-83993156D01*
X135341504Y-83993158D01*
X135496154Y-84023920D01*
X135496157Y-84023921D01*
X135496159Y-84023921D01*
X135653845Y-84023921D01*
X135653846Y-84023920D01*
X135808498Y-83993158D01*
X135954180Y-83932815D01*
X136085290Y-83845210D01*
X136196790Y-83733710D01*
X136284395Y-83602600D01*
X136344738Y-83456918D01*
X136375501Y-83302263D01*
X136375501Y-83144579D01*
X136375501Y-83144576D01*
X136375500Y-83144574D01*
X136344739Y-82989931D01*
X136344738Y-82989924D01*
X136344736Y-82989919D01*
X136284398Y-82844248D01*
X136284391Y-82844235D01*
X136196790Y-82713132D01*
X136196787Y-82713128D01*
X136085293Y-82601634D01*
X136085289Y-82601631D01*
X135954186Y-82514030D01*
X135954173Y-82514023D01*
X135808502Y-82453685D01*
X135808490Y-82453682D01*
X135653846Y-82422921D01*
X135653843Y-82422921D01*
X135496159Y-82422921D01*
X135496156Y-82422921D01*
X135341511Y-82453682D01*
X135341499Y-82453685D01*
X135195828Y-82514023D01*
X135195815Y-82514030D01*
X135064712Y-82601631D01*
X135064708Y-82601634D01*
X134953214Y-82713128D01*
X134953211Y-82713132D01*
X134865610Y-82844235D01*
X134865603Y-82844248D01*
X134805265Y-82989919D01*
X134805262Y-82989931D01*
X134774501Y-83144574D01*
X132802677Y-83144574D01*
X132815894Y-83112666D01*
X132840310Y-82989919D01*
X132850500Y-82938693D01*
X132850500Y-82761306D01*
X132850499Y-82761304D01*
X132815896Y-82587341D01*
X132815893Y-82587332D01*
X132748016Y-82423459D01*
X132748012Y-82423452D01*
X132748008Y-82423446D01*
X132678145Y-82318888D01*
X132657268Y-82252215D01*
X132675752Y-82184834D01*
X132678118Y-82181150D01*
X132748013Y-82076547D01*
X132815894Y-81912666D01*
X132828507Y-81849260D01*
X132850499Y-81738695D01*
X132850500Y-81738693D01*
X132850500Y-81561306D01*
X132850499Y-81561304D01*
X132815896Y-81387341D01*
X132815893Y-81387332D01*
X132748016Y-81223459D01*
X132748009Y-81223446D01*
X132649464Y-81075965D01*
X132649461Y-81075961D01*
X132524038Y-80950538D01*
X132524034Y-80950535D01*
X132376553Y-80851990D01*
X132376540Y-80851983D01*
X132212667Y-80784106D01*
X132212658Y-80784103D01*
X132038694Y-80749500D01*
X132038691Y-80749500D01*
X131461309Y-80749500D01*
X131461306Y-80749500D01*
X131287341Y-80784103D01*
X131287332Y-80784106D01*
X131123459Y-80851983D01*
X131123446Y-80851990D01*
X130975965Y-80950535D01*
X130975961Y-80950538D01*
X130850538Y-81075961D01*
X130850535Y-81075965D01*
X130751990Y-81223446D01*
X130751983Y-81223459D01*
X130684106Y-81387332D01*
X130684103Y-81387341D01*
X130649500Y-81561304D01*
X130236527Y-81561304D01*
X130236527Y-79367968D01*
X130256212Y-79300929D01*
X130309016Y-79255174D01*
X130378174Y-79245230D01*
X130441730Y-79274255D01*
X130448208Y-79280287D01*
X130539707Y-79371786D01*
X130539711Y-79371789D01*
X130670814Y-79459390D01*
X130670827Y-79459397D01*
X130808683Y-79516498D01*
X130816503Y-79519737D01*
X130971153Y-79550499D01*
X130971156Y-79550500D01*
X130971158Y-79550500D01*
X131128844Y-79550500D01*
X131128845Y-79550499D01*
X131283497Y-79519737D01*
X131429179Y-79459394D01*
X131560289Y-79371789D01*
X131671789Y-79260289D01*
X131759394Y-79129179D01*
X131819737Y-78983497D01*
X131850500Y-78828842D01*
X131850500Y-78671158D01*
X131850500Y-78671155D01*
X131850499Y-78671153D01*
X131825761Y-78546789D01*
X131819737Y-78516503D01*
X131780572Y-78421951D01*
X131773104Y-78352483D01*
X131804379Y-78290004D01*
X131864468Y-78254352D01*
X131895134Y-78250500D01*
X132038693Y-78250500D01*
X132038694Y-78250499D01*
X132096682Y-78238964D01*
X132212658Y-78215896D01*
X132212661Y-78215894D01*
X132212666Y-78215894D01*
X132376547Y-78148013D01*
X132524035Y-78049464D01*
X132649464Y-77924035D01*
X132701503Y-77846153D01*
X134774500Y-77846153D01*
X134774500Y-78003846D01*
X134805261Y-78158489D01*
X134805264Y-78158501D01*
X134865602Y-78304172D01*
X134865609Y-78304185D01*
X134953210Y-78435288D01*
X134953213Y-78435292D01*
X135064707Y-78546786D01*
X135064711Y-78546789D01*
X135195814Y-78634390D01*
X135195827Y-78634397D01*
X135341498Y-78694735D01*
X135341503Y-78694737D01*
X135496153Y-78725499D01*
X135496156Y-78725500D01*
X135496158Y-78725500D01*
X135653844Y-78725500D01*
X135653845Y-78725499D01*
X135808497Y-78694737D01*
X135954179Y-78634394D01*
X136085289Y-78546789D01*
X136196789Y-78435289D01*
X136284394Y-78304179D01*
X136344737Y-78158497D01*
X136375500Y-78003842D01*
X136375500Y-77846158D01*
X136375500Y-77846155D01*
X136375499Y-77846153D01*
X136362816Y-77782391D01*
X136344737Y-77691503D01*
X136344735Y-77691498D01*
X136284397Y-77545827D01*
X136284390Y-77545814D01*
X136196789Y-77414711D01*
X136196786Y-77414707D01*
X136085292Y-77303213D01*
X136085288Y-77303210D01*
X135954185Y-77215609D01*
X135954172Y-77215602D01*
X135808501Y-77155264D01*
X135808489Y-77155261D01*
X135653845Y-77124500D01*
X135653842Y-77124500D01*
X135496158Y-77124500D01*
X135496155Y-77124500D01*
X135341510Y-77155261D01*
X135341498Y-77155264D01*
X135195827Y-77215602D01*
X135195814Y-77215609D01*
X135064711Y-77303210D01*
X135064707Y-77303213D01*
X134953213Y-77414707D01*
X134953210Y-77414711D01*
X134865609Y-77545814D01*
X134865602Y-77545827D01*
X134805264Y-77691498D01*
X134805261Y-77691510D01*
X134774500Y-77846153D01*
X132701503Y-77846153D01*
X132748013Y-77776547D01*
X132815894Y-77612666D01*
X132820934Y-77587325D01*
X132825008Y-77576983D01*
X132839898Y-77557827D01*
X132851147Y-77536323D01*
X132860961Y-77530734D01*
X132867890Y-77521821D01*
X132890773Y-77513756D01*
X132911862Y-77501747D01*
X132923137Y-77502351D01*
X132933787Y-77498598D01*
X132957400Y-77504186D01*
X132981632Y-77505485D01*
X132987821Y-77507856D01*
X133016503Y-77519737D01*
X133171153Y-77550499D01*
X133171156Y-77550500D01*
X133171158Y-77550500D01*
X133328844Y-77550500D01*
X133328845Y-77550499D01*
X133483497Y-77519737D01*
X133629179Y-77459394D01*
X133760289Y-77371789D01*
X133871789Y-77260289D01*
X133871791Y-77260285D01*
X133876096Y-77255981D01*
X133877144Y-77257029D01*
X133928799Y-77221829D01*
X133991119Y-77218204D01*
X134051323Y-77230179D01*
X134133655Y-77246557D01*
X134133658Y-77246557D01*
X134291344Y-77246557D01*
X134291345Y-77246556D01*
X134445997Y-77215794D01*
X134558666Y-77169124D01*
X134591672Y-77155454D01*
X134591672Y-77155453D01*
X134591679Y-77155451D01*
X134722789Y-77067846D01*
X134834289Y-76956346D01*
X134921894Y-76825236D01*
X134982237Y-76679554D01*
X135013000Y-76524899D01*
X135013000Y-76367215D01*
X135013000Y-76367212D01*
X135012999Y-76367210D01*
X134982237Y-76212560D01*
X134947299Y-76128211D01*
X134921897Y-76066884D01*
X134921890Y-76066871D01*
X134834289Y-75935768D01*
X134834286Y-75935764D01*
X134722792Y-75824270D01*
X134722788Y-75824267D01*
X134591685Y-75736666D01*
X134591672Y-75736659D01*
X134446001Y-75676321D01*
X134445989Y-75676318D01*
X134291345Y-75645557D01*
X134291342Y-75645557D01*
X134133658Y-75645557D01*
X134133655Y-75645557D01*
X133979010Y-75676318D01*
X133978998Y-75676321D01*
X133833327Y-75736659D01*
X133833314Y-75736666D01*
X133702211Y-75824267D01*
X133702207Y-75824270D01*
X133586403Y-75940075D01*
X133585360Y-75939032D01*
X133533662Y-75974239D01*
X133471377Y-75977852D01*
X133328844Y-75949500D01*
X133328842Y-75949500D01*
X133171158Y-75949500D01*
X133171155Y-75949500D01*
X133016510Y-75980261D01*
X133016498Y-75980264D01*
X132870827Y-76040602D01*
X132870814Y-76040609D01*
X132739711Y-76128210D01*
X132739707Y-76128213D01*
X132628213Y-76239707D01*
X132628210Y-76239711D01*
X132540609Y-76370814D01*
X132540604Y-76370823D01*
X132499981Y-76468898D01*
X132456140Y-76523301D01*
X132389846Y-76545366D01*
X132337969Y-76536007D01*
X132276045Y-76510358D01*
X132212666Y-76484106D01*
X132212662Y-76484105D01*
X132212658Y-76484103D01*
X132038694Y-76449500D01*
X132038691Y-76449500D01*
X131461309Y-76449500D01*
X131461306Y-76449500D01*
X131287341Y-76484103D01*
X131287332Y-76484106D01*
X131123459Y-76551983D01*
X131123446Y-76551990D01*
X130975965Y-76650535D01*
X130975961Y-76650538D01*
X130850538Y-76775961D01*
X130850535Y-76775965D01*
X130751990Y-76923446D01*
X130751983Y-76923459D01*
X130684106Y-77087332D01*
X130684103Y-77087341D01*
X130649500Y-77261304D01*
X130649500Y-77438695D01*
X130684103Y-77612658D01*
X130684106Y-77612667D01*
X130751983Y-77776540D01*
X130751993Y-77776558D01*
X130788639Y-77831403D01*
X130809517Y-77898080D01*
X130791032Y-77965460D01*
X130739053Y-78012150D01*
X130732991Y-78014854D01*
X130670820Y-78040606D01*
X130670814Y-78040609D01*
X130539711Y-78128210D01*
X130539707Y-78128213D01*
X130448208Y-78219713D01*
X130386885Y-78253198D01*
X130317193Y-78248214D01*
X130261260Y-78206342D01*
X130236843Y-78140878D01*
X130236527Y-78132032D01*
X130236527Y-74409389D01*
X130256212Y-74342350D01*
X130309016Y-74296595D01*
X130378174Y-74286651D01*
X130441730Y-74315676D01*
X130448208Y-74321708D01*
X130525961Y-74399461D01*
X130525965Y-74399464D01*
X130673446Y-74498009D01*
X130673459Y-74498016D01*
X130796363Y-74548923D01*
X130837334Y-74565894D01*
X130837336Y-74565894D01*
X130837341Y-74565896D01*
X131011304Y-74600499D01*
X131011307Y-74600500D01*
X131011309Y-74600500D01*
X131188693Y-74600500D01*
X131188694Y-74600499D01*
X131246682Y-74588964D01*
X131362658Y-74565896D01*
X131362661Y-74565894D01*
X131362666Y-74565894D01*
X131526547Y-74498013D01*
X131674035Y-74399464D01*
X131799464Y-74274035D01*
X131898013Y-74126547D01*
X131965894Y-73962666D01*
X132000500Y-73788691D01*
X132000500Y-73211309D01*
X132000500Y-73211306D01*
X132000499Y-73211304D01*
X134499500Y-73211304D01*
X134499500Y-73788695D01*
X134534103Y-73962658D01*
X134534106Y-73962667D01*
X134601983Y-74126540D01*
X134601990Y-74126553D01*
X134700535Y-74274034D01*
X134700538Y-74274038D01*
X134825961Y-74399461D01*
X134825965Y-74399464D01*
X134973446Y-74498009D01*
X134973459Y-74498016D01*
X135096363Y-74548923D01*
X135137334Y-74565894D01*
X135137336Y-74565894D01*
X135137341Y-74565896D01*
X135311304Y-74600499D01*
X135311307Y-74600500D01*
X135311309Y-74600500D01*
X135488693Y-74600500D01*
X135488694Y-74600499D01*
X135546682Y-74588964D01*
X135662658Y-74565896D01*
X135662661Y-74565894D01*
X135662666Y-74565894D01*
X135826547Y-74498013D01*
X135974035Y-74399464D01*
X136099464Y-74274035D01*
X136198013Y-74126547D01*
X136265894Y-73962666D01*
X136300500Y-73788691D01*
X136300500Y-73211309D01*
X136300500Y-73211306D01*
X136300499Y-73211304D01*
X136265896Y-73037341D01*
X136265893Y-73037332D01*
X136198016Y-72873459D01*
X136198009Y-72873446D01*
X136099464Y-72725965D01*
X136099461Y-72725961D01*
X135974038Y-72600538D01*
X135974034Y-72600535D01*
X135826553Y-72501990D01*
X135826540Y-72501983D01*
X135662667Y-72434106D01*
X135662658Y-72434103D01*
X135488694Y-72399500D01*
X135488691Y-72399500D01*
X135311309Y-72399500D01*
X135311306Y-72399500D01*
X135137341Y-72434103D01*
X135137332Y-72434106D01*
X134973459Y-72501983D01*
X134973446Y-72501990D01*
X134825965Y-72600535D01*
X134825961Y-72600538D01*
X134700538Y-72725961D01*
X134700535Y-72725965D01*
X134601990Y-72873446D01*
X134601983Y-72873459D01*
X134534106Y-73037332D01*
X134534103Y-73037341D01*
X134499500Y-73211304D01*
X132000499Y-73211304D01*
X131965896Y-73037341D01*
X131965893Y-73037332D01*
X131898016Y-72873459D01*
X131898009Y-72873446D01*
X131799464Y-72725965D01*
X131799461Y-72725961D01*
X131674038Y-72600538D01*
X131674034Y-72600535D01*
X131526553Y-72501990D01*
X131526540Y-72501983D01*
X131362667Y-72434106D01*
X131362658Y-72434103D01*
X131188694Y-72399500D01*
X131188691Y-72399500D01*
X131011309Y-72399500D01*
X131011306Y-72399500D01*
X130837341Y-72434103D01*
X130837332Y-72434106D01*
X130673459Y-72501983D01*
X130673446Y-72501990D01*
X130525965Y-72600535D01*
X130525961Y-72600538D01*
X130448208Y-72678292D01*
X130386885Y-72711777D01*
X130317193Y-72706793D01*
X130261260Y-72664921D01*
X130236843Y-72599457D01*
X130236527Y-72590611D01*
X130236527Y-72124500D01*
X130256212Y-72057461D01*
X130309016Y-72011706D01*
X130360527Y-72000500D01*
X136870500Y-72000500D01*
X136937539Y-72020185D01*
G37*
%TD.AperFunction*%
%TA.AperFunction,Conductor*%
G36*
X139290427Y-77007348D02*
G01*
X139323467Y-77013919D01*
X139346732Y-77020976D01*
X139377849Y-77033865D01*
X139399289Y-77045325D01*
X139427297Y-77064040D01*
X139446084Y-77079458D01*
X139469901Y-77103274D01*
X139485324Y-77122066D01*
X139504037Y-77150072D01*
X139515497Y-77171512D01*
X139528389Y-77202637D01*
X139535444Y-77225892D01*
X139535444Y-77225893D01*
X139542016Y-77258927D01*
X139544399Y-77283122D01*
X139544399Y-77316805D01*
X139542015Y-77341001D01*
X139535442Y-77374039D01*
X139528387Y-77397295D01*
X139515497Y-77428415D01*
X139504038Y-77449854D01*
X139485319Y-77477869D01*
X139469901Y-77496655D01*
X139469898Y-77496659D01*
X139446092Y-77520465D01*
X139427302Y-77535886D01*
X139399284Y-77554607D01*
X139377845Y-77566066D01*
X139346727Y-77578955D01*
X139323470Y-77586011D01*
X139306739Y-77589339D01*
X139290430Y-77592583D01*
X139266240Y-77594966D01*
X139232558Y-77594966D01*
X139208369Y-77592583D01*
X139175323Y-77586010D01*
X139152066Y-77578954D01*
X139120946Y-77566064D01*
X139099506Y-77554604D01*
X139071498Y-77535889D01*
X139052711Y-77520471D01*
X139028894Y-77496655D01*
X139013473Y-77477865D01*
X138994756Y-77449854D01*
X138983300Y-77428421D01*
X138977619Y-77414707D01*
X138970406Y-77397292D01*
X138963353Y-77374039D01*
X138956780Y-77340997D01*
X138954399Y-77316810D01*
X138954399Y-77283119D01*
X138956781Y-77258930D01*
X138956782Y-77258927D01*
X138963355Y-77225880D01*
X138970405Y-77202640D01*
X138983301Y-77171505D01*
X138994750Y-77150085D01*
X139013478Y-77122056D01*
X139028887Y-77103282D01*
X139052713Y-77079455D01*
X139071497Y-77064040D01*
X139099510Y-77045322D01*
X139120944Y-77033866D01*
X139152067Y-77020974D01*
X139175317Y-77013921D01*
X139208369Y-77007347D01*
X139232553Y-77004966D01*
X139266240Y-77004966D01*
X139290427Y-77007348D01*
G37*
%TD.AperFunction*%
%TD*%
%TA.AperFunction,Conductor*%
%TO.N,GNDA*%
G36*
X143703869Y-72020185D02*
G01*
X143749624Y-72072989D01*
X143756605Y-72092407D01*
X143783608Y-72193187D01*
X143816554Y-72250250D01*
X143849500Y-72307314D01*
X143942686Y-72400500D01*
X144056814Y-72466392D01*
X144184108Y-72500500D01*
X147925500Y-72500500D01*
X147992539Y-72520185D01*
X148038294Y-72572989D01*
X148049500Y-72624500D01*
X148049500Y-73088695D01*
X148084103Y-73262658D01*
X148084106Y-73262667D01*
X148151983Y-73426540D01*
X148151990Y-73426553D01*
X148250535Y-73574034D01*
X148250538Y-73574038D01*
X148375961Y-73699461D01*
X148375965Y-73699464D01*
X148523446Y-73798009D01*
X148523459Y-73798016D01*
X148642733Y-73847420D01*
X148687334Y-73865894D01*
X148687336Y-73865894D01*
X148687341Y-73865896D01*
X148861304Y-73900499D01*
X148861307Y-73900500D01*
X148861309Y-73900500D01*
X152638693Y-73900500D01*
X152638694Y-73900499D01*
X152696682Y-73888964D01*
X152812658Y-73865896D01*
X152812661Y-73865894D01*
X152812666Y-73865894D01*
X152976547Y-73798013D01*
X153124035Y-73699464D01*
X153249464Y-73574035D01*
X153348013Y-73426547D01*
X153415894Y-73262666D01*
X153419151Y-73246295D01*
X153450499Y-73088695D01*
X153450500Y-73088693D01*
X153450500Y-72624500D01*
X153470185Y-72557461D01*
X153522989Y-72511706D01*
X153574500Y-72500500D01*
X157315890Y-72500500D01*
X157315892Y-72500500D01*
X157443186Y-72466392D01*
X157557314Y-72400500D01*
X157650500Y-72307314D01*
X157716392Y-72193186D01*
X157743395Y-72092405D01*
X157779760Y-72032746D01*
X157842607Y-72002217D01*
X157863170Y-72000500D01*
X161125500Y-72000500D01*
X161192539Y-72020185D01*
X161238294Y-72072989D01*
X161249500Y-72124500D01*
X161249500Y-89376000D01*
X161229815Y-89443039D01*
X161177011Y-89488794D01*
X161125500Y-89500000D01*
X160724500Y-89500000D01*
X160657461Y-89480315D01*
X160611706Y-89427511D01*
X160600500Y-89376000D01*
X160600500Y-89273713D01*
X160581568Y-89154185D01*
X160567246Y-89063757D01*
X160501557Y-88861588D01*
X160405051Y-88672184D01*
X160405049Y-88672181D01*
X160405048Y-88672179D01*
X160280109Y-88500213D01*
X160129786Y-88349890D01*
X159957820Y-88224951D01*
X159957115Y-88224591D01*
X159949054Y-88220485D01*
X159898259Y-88172512D01*
X159881463Y-88104692D01*
X159903999Y-88038556D01*
X159949054Y-87999515D01*
X159957816Y-87995051D01*
X159986102Y-87974500D01*
X160129786Y-87870109D01*
X160129788Y-87870106D01*
X160129792Y-87870104D01*
X160280104Y-87719792D01*
X160280106Y-87719788D01*
X160280109Y-87719786D01*
X160405048Y-87547820D01*
X160405047Y-87547820D01*
X160405051Y-87547816D01*
X160501557Y-87358412D01*
X160567246Y-87156243D01*
X160600500Y-86946287D01*
X160600500Y-86733713D01*
X160567246Y-86523757D01*
X160501557Y-86321588D01*
X160405051Y-86132184D01*
X160405049Y-86132181D01*
X160405048Y-86132179D01*
X160280109Y-85960213D01*
X160129786Y-85809890D01*
X159957820Y-85684951D01*
X159957115Y-85684591D01*
X159949054Y-85680485D01*
X159898259Y-85632512D01*
X159881463Y-85564692D01*
X159903999Y-85498556D01*
X159949054Y-85459515D01*
X159957816Y-85455051D01*
X160022684Y-85407922D01*
X160129786Y-85330109D01*
X160129788Y-85330106D01*
X160129792Y-85330104D01*
X160280104Y-85179792D01*
X160280106Y-85179788D01*
X160280109Y-85179786D01*
X160405048Y-85007820D01*
X160405047Y-85007820D01*
X160405051Y-85007816D01*
X160501557Y-84818412D01*
X160567246Y-84616243D01*
X160600500Y-84406287D01*
X160600500Y-84193713D01*
X160567246Y-83983757D01*
X160501557Y-83781588D01*
X160405051Y-83592184D01*
X160405049Y-83592181D01*
X160405048Y-83592179D01*
X160280109Y-83420213D01*
X160129786Y-83269890D01*
X159957820Y-83144951D01*
X159957115Y-83144591D01*
X159949054Y-83140485D01*
X159898259Y-83092512D01*
X159881463Y-83024692D01*
X159903999Y-82958556D01*
X159949054Y-82919515D01*
X159957816Y-82915051D01*
X160058410Y-82841966D01*
X160129786Y-82790109D01*
X160129788Y-82790106D01*
X160129792Y-82790104D01*
X160280104Y-82639792D01*
X160280106Y-82639788D01*
X160280109Y-82639786D01*
X160405048Y-82467820D01*
X160405047Y-82467820D01*
X160405051Y-82467816D01*
X160501557Y-82278412D01*
X160567246Y-82076243D01*
X160600500Y-81866287D01*
X160600500Y-81653713D01*
X160567246Y-81443757D01*
X160501557Y-81241588D01*
X160405051Y-81052184D01*
X160405049Y-81052181D01*
X160405048Y-81052179D01*
X160280109Y-80880213D01*
X160129786Y-80729890D01*
X159957820Y-80604951D01*
X159957115Y-80604591D01*
X159949054Y-80600485D01*
X159898259Y-80552512D01*
X159881463Y-80484692D01*
X159903999Y-80418556D01*
X159949054Y-80379515D01*
X159957816Y-80375051D01*
X160042873Y-80313254D01*
X160129786Y-80250109D01*
X160129788Y-80250106D01*
X160129792Y-80250104D01*
X160280104Y-80099792D01*
X160280106Y-80099788D01*
X160280109Y-80099786D01*
X160405048Y-79927820D01*
X160405047Y-79927820D01*
X160405051Y-79927816D01*
X160501557Y-79738412D01*
X160567246Y-79536243D01*
X160600500Y-79326287D01*
X160600500Y-79113713D01*
X160567246Y-78903757D01*
X160501557Y-78701588D01*
X160405051Y-78512184D01*
X160405049Y-78512181D01*
X160405048Y-78512179D01*
X160280109Y-78340213D01*
X160129786Y-78189890D01*
X159957820Y-78064951D01*
X159957115Y-78064591D01*
X159949054Y-78060485D01*
X159898259Y-78012512D01*
X159881463Y-77944692D01*
X159903999Y-77878556D01*
X159949054Y-77839515D01*
X159957816Y-77835051D01*
X160018995Y-77790602D01*
X160129786Y-77710109D01*
X160129788Y-77710106D01*
X160129792Y-77710104D01*
X160280104Y-77559792D01*
X160280106Y-77559788D01*
X160280109Y-77559786D01*
X160405048Y-77387820D01*
X160405047Y-77387820D01*
X160405051Y-77387816D01*
X160501557Y-77198412D01*
X160567246Y-76996243D01*
X160600500Y-76786287D01*
X160600500Y-76573713D01*
X160567246Y-76363757D01*
X160501557Y-76161588D01*
X160405051Y-75972184D01*
X160405049Y-75972181D01*
X160405048Y-75972179D01*
X160280109Y-75800213D01*
X160129786Y-75649890D01*
X159957820Y-75524951D01*
X159768414Y-75428444D01*
X159768413Y-75428443D01*
X159768412Y-75428443D01*
X159566243Y-75362754D01*
X159566241Y-75362753D01*
X159566240Y-75362753D01*
X159404957Y-75337208D01*
X159356287Y-75329500D01*
X159143713Y-75329500D01*
X159095042Y-75337208D01*
X158933760Y-75362753D01*
X158933757Y-75362754D01*
X158735768Y-75427085D01*
X158731585Y-75428444D01*
X158542179Y-75524951D01*
X158370213Y-75649890D01*
X158219890Y-75800213D01*
X158094951Y-75972179D01*
X157998444Y-76161585D01*
X157932753Y-76363760D01*
X157906387Y-76530229D01*
X157899500Y-76573713D01*
X157899500Y-76786287D01*
X157932754Y-76996243D01*
X157955574Y-77066476D01*
X157998444Y-77198414D01*
X158094951Y-77387820D01*
X158219890Y-77559786D01*
X158370213Y-77710109D01*
X158542182Y-77835050D01*
X158550946Y-77839516D01*
X158601742Y-77887491D01*
X158618536Y-77955312D01*
X158595998Y-78021447D01*
X158550946Y-78060484D01*
X158542182Y-78064949D01*
X158370213Y-78189890D01*
X158219890Y-78340213D01*
X158094951Y-78512179D01*
X157998444Y-78701585D01*
X157932753Y-78903760D01*
X157899500Y-79113713D01*
X157899500Y-79326286D01*
X157920355Y-79457963D01*
X157932754Y-79536243D01*
X157986146Y-79700567D01*
X157998444Y-79738414D01*
X158094951Y-79927820D01*
X158219890Y-80099786D01*
X158370213Y-80250109D01*
X158542182Y-80375050D01*
X158550946Y-80379516D01*
X158601742Y-80427491D01*
X158618536Y-80495312D01*
X158595998Y-80561447D01*
X158550946Y-80600484D01*
X158542182Y-80604949D01*
X158370213Y-80729890D01*
X158219890Y-80880213D01*
X158094951Y-81052179D01*
X157998444Y-81241585D01*
X157932753Y-81443760D01*
X157911900Y-81575420D01*
X157899500Y-81653713D01*
X157899500Y-81866287D01*
X157932754Y-82076243D01*
X157995083Y-82268072D01*
X157998444Y-82278414D01*
X158094951Y-82467820D01*
X158219890Y-82639786D01*
X158370213Y-82790109D01*
X158542182Y-82915050D01*
X158550946Y-82919516D01*
X158601742Y-82967491D01*
X158618536Y-83035312D01*
X158595998Y-83101447D01*
X158550946Y-83140484D01*
X158542182Y-83144949D01*
X158370213Y-83269890D01*
X158219890Y-83420213D01*
X158094951Y-83592179D01*
X157998444Y-83781585D01*
X157932753Y-83983760D01*
X157899500Y-84193713D01*
X157899500Y-84406286D01*
X157932263Y-84613148D01*
X157932754Y-84616243D01*
X157941744Y-84643912D01*
X157998444Y-84818414D01*
X158094951Y-85007820D01*
X158219890Y-85179786D01*
X158370213Y-85330109D01*
X158542182Y-85455050D01*
X158550946Y-85459516D01*
X158601742Y-85507491D01*
X158618536Y-85575312D01*
X158595998Y-85641447D01*
X158550946Y-85680484D01*
X158542182Y-85684949D01*
X158370213Y-85809890D01*
X158219890Y-85960213D01*
X158094951Y-86132179D01*
X157998444Y-86321585D01*
X157932753Y-86523760D01*
X157917227Y-86621789D01*
X157899500Y-86733713D01*
X157899500Y-86946287D01*
X157899676Y-86947396D01*
X157919548Y-87072868D01*
X157932754Y-87156243D01*
X157957855Y-87233497D01*
X157998444Y-87358414D01*
X158094951Y-87547820D01*
X158219890Y-87719786D01*
X158370213Y-87870109D01*
X158542182Y-87995050D01*
X158550946Y-87999516D01*
X158601742Y-88047491D01*
X158618536Y-88115312D01*
X158595998Y-88181447D01*
X158550946Y-88220484D01*
X158542182Y-88224949D01*
X158370213Y-88349890D01*
X158219890Y-88500213D01*
X158094951Y-88672179D01*
X157998444Y-88861585D01*
X157932753Y-89063760D01*
X157899500Y-89273713D01*
X157899500Y-89376000D01*
X157879815Y-89443039D01*
X157827011Y-89488794D01*
X157775500Y-89500000D01*
X155879441Y-89500000D01*
X155812402Y-89480315D01*
X155766647Y-89427511D01*
X155756703Y-89358353D01*
X155785728Y-89294797D01*
X155791760Y-89288319D01*
X155794786Y-89285292D01*
X155794789Y-89285289D01*
X155882394Y-89154179D01*
X155942737Y-89008497D01*
X155973500Y-88853842D01*
X155973500Y-88696158D01*
X155973500Y-88696155D01*
X155973499Y-88696153D01*
X155942738Y-88541510D01*
X155942737Y-88541503D01*
X155925632Y-88500208D01*
X155882397Y-88395827D01*
X155882390Y-88395814D01*
X155794789Y-88264711D01*
X155794786Y-88264707D01*
X155683292Y-88153213D01*
X155683288Y-88153210D01*
X155552185Y-88065609D01*
X155552172Y-88065602D01*
X155406501Y-88005264D01*
X155406489Y-88005261D01*
X155251845Y-87974500D01*
X155251842Y-87974500D01*
X155094158Y-87974500D01*
X155094155Y-87974500D01*
X154939510Y-88005261D01*
X154939498Y-88005264D01*
X154793827Y-88065602D01*
X154793814Y-88065609D01*
X154662711Y-88153210D01*
X154662707Y-88153213D01*
X154551213Y-88264707D01*
X154551210Y-88264711D01*
X154463609Y-88395814D01*
X154463602Y-88395827D01*
X154403264Y-88541498D01*
X154403261Y-88541510D01*
X154372500Y-88696153D01*
X154372500Y-88853846D01*
X154403261Y-89008489D01*
X154403264Y-89008501D01*
X154463602Y-89154172D01*
X154463609Y-89154185D01*
X154551210Y-89285288D01*
X154551213Y-89285292D01*
X154554240Y-89288319D01*
X154587725Y-89349642D01*
X154582741Y-89419334D01*
X154540869Y-89475267D01*
X154475405Y-89499684D01*
X154466559Y-89500000D01*
X151245056Y-89500000D01*
X151178017Y-89480315D01*
X151141955Y-89444892D01*
X151121789Y-89414711D01*
X151121787Y-89414709D01*
X151121785Y-89414706D01*
X151010292Y-89303213D01*
X151010288Y-89303210D01*
X150879185Y-89215609D01*
X150879172Y-89215602D01*
X150733501Y-89155264D01*
X150733489Y-89155261D01*
X150578845Y-89124500D01*
X150578842Y-89124500D01*
X150421158Y-89124500D01*
X150421155Y-89124500D01*
X150266510Y-89155261D01*
X150266498Y-89155264D01*
X150120827Y-89215602D01*
X150120814Y-89215609D01*
X149989711Y-89303210D01*
X149989707Y-89303213D01*
X149878214Y-89414706D01*
X149878211Y-89414711D01*
X149858045Y-89444891D01*
X149804436Y-89489695D01*
X149754944Y-89500000D01*
X137624000Y-89500000D01*
X137556961Y-89480315D01*
X137511206Y-89427511D01*
X137500000Y-89376000D01*
X137500000Y-86908295D01*
X137519685Y-86841256D01*
X137572489Y-86795501D01*
X137641647Y-86785557D01*
X137692891Y-86805193D01*
X137815395Y-86887048D01*
X137815408Y-86887055D01*
X137958409Y-86946287D01*
X137961084Y-86947395D01*
X138027122Y-86960530D01*
X138100861Y-86975199D01*
X138162772Y-87007584D01*
X138197346Y-87068300D01*
X138198114Y-87072907D01*
X138198311Y-87072868D01*
X138230261Y-87233489D01*
X138230264Y-87233501D01*
X138290602Y-87379172D01*
X138290609Y-87379185D01*
X138378210Y-87510288D01*
X138378213Y-87510292D01*
X138489707Y-87621786D01*
X138489711Y-87621789D01*
X138620814Y-87709390D01*
X138620827Y-87709397D01*
X138766498Y-87769735D01*
X138766503Y-87769737D01*
X138921153Y-87800499D01*
X138921156Y-87800500D01*
X138921158Y-87800500D01*
X139078844Y-87800500D01*
X139078845Y-87800499D01*
X139233497Y-87769737D01*
X139379179Y-87709394D01*
X139510289Y-87621789D01*
X139621789Y-87510289D01*
X139709394Y-87379179D01*
X139769737Y-87233497D01*
X139800500Y-87078842D01*
X139800500Y-86921158D01*
X139800500Y-86921155D01*
X139800499Y-86921153D01*
X139769738Y-86766510D01*
X139769737Y-86766503D01*
X139746080Y-86709390D01*
X139709397Y-86620827D01*
X139709390Y-86620814D01*
X139621789Y-86489711D01*
X139621786Y-86489707D01*
X139510292Y-86378213D01*
X139510288Y-86378210D01*
X139379185Y-86290609D01*
X139379172Y-86290602D01*
X139233501Y-86230264D01*
X139233491Y-86230261D01*
X139093718Y-86202458D01*
X139075995Y-86193187D01*
X139056535Y-86188586D01*
X139045673Y-86177326D01*
X139031807Y-86170073D01*
X139021909Y-86152692D01*
X139008026Y-86138300D01*
X139001844Y-86117455D01*
X138997233Y-86109357D01*
X138996289Y-86105015D01*
X138995081Y-86098937D01*
X138995081Y-86098816D01*
X138964318Y-85944161D01*
X138954788Y-85921153D01*
X146949500Y-85921153D01*
X146949500Y-86078846D01*
X146980261Y-86233489D01*
X146980264Y-86233501D01*
X147040602Y-86379172D01*
X147040609Y-86379185D01*
X147128210Y-86510288D01*
X147128213Y-86510292D01*
X147239707Y-86621786D01*
X147239711Y-86621789D01*
X147370814Y-86709390D01*
X147370827Y-86709397D01*
X147508683Y-86766498D01*
X147516503Y-86769737D01*
X147665864Y-86799447D01*
X147671153Y-86800499D01*
X147671156Y-86800500D01*
X147671158Y-86800500D01*
X147828844Y-86800500D01*
X147828845Y-86800499D01*
X147983497Y-86769737D01*
X148129179Y-86709394D01*
X148260289Y-86621789D01*
X148371789Y-86510289D01*
X148459394Y-86379179D01*
X148519737Y-86233497D01*
X148550500Y-86078842D01*
X148550500Y-85921158D01*
X148550500Y-85921155D01*
X148550499Y-85921153D01*
X150699500Y-85921153D01*
X150699500Y-86078846D01*
X150730261Y-86233489D01*
X150730264Y-86233501D01*
X150790602Y-86379172D01*
X150790609Y-86379185D01*
X150878210Y-86510288D01*
X150878213Y-86510292D01*
X150989707Y-86621786D01*
X150989711Y-86621789D01*
X151120814Y-86709390D01*
X151120827Y-86709397D01*
X151258683Y-86766498D01*
X151266503Y-86769737D01*
X151415864Y-86799447D01*
X151421153Y-86800499D01*
X151421156Y-86800500D01*
X151421158Y-86800500D01*
X151578844Y-86800500D01*
X151578845Y-86800499D01*
X151733497Y-86769737D01*
X151879179Y-86709394D01*
X152010289Y-86621789D01*
X152121789Y-86510289D01*
X152209394Y-86379179D01*
X152269737Y-86233497D01*
X152300500Y-86078842D01*
X152300500Y-85921158D01*
X152300500Y-85921155D01*
X152300499Y-85921153D01*
X152278367Y-85809890D01*
X152269737Y-85766503D01*
X152269735Y-85766498D01*
X152209397Y-85620827D01*
X152209390Y-85620814D01*
X152121789Y-85489711D01*
X152121786Y-85489707D01*
X152010292Y-85378213D01*
X152010288Y-85378210D01*
X151879185Y-85290609D01*
X151879172Y-85290602D01*
X151733501Y-85230264D01*
X151733489Y-85230261D01*
X151578845Y-85199500D01*
X151578842Y-85199500D01*
X151421158Y-85199500D01*
X151421155Y-85199500D01*
X151266510Y-85230261D01*
X151266498Y-85230264D01*
X151120827Y-85290602D01*
X151120814Y-85290609D01*
X150989711Y-85378210D01*
X150989707Y-85378213D01*
X150878213Y-85489707D01*
X150878210Y-85489711D01*
X150790609Y-85620814D01*
X150790602Y-85620827D01*
X150730264Y-85766498D01*
X150730261Y-85766510D01*
X150699500Y-85921153D01*
X148550499Y-85921153D01*
X148528367Y-85809890D01*
X148519737Y-85766503D01*
X148519735Y-85766498D01*
X148459397Y-85620827D01*
X148459390Y-85620814D01*
X148371789Y-85489711D01*
X148371786Y-85489707D01*
X148260292Y-85378213D01*
X148260288Y-85378210D01*
X148129185Y-85290609D01*
X148129172Y-85290602D01*
X147983501Y-85230264D01*
X147983489Y-85230261D01*
X147828845Y-85199500D01*
X147828842Y-85199500D01*
X147671158Y-85199500D01*
X147671155Y-85199500D01*
X147516510Y-85230261D01*
X147516498Y-85230264D01*
X147370827Y-85290602D01*
X147370814Y-85290609D01*
X147239711Y-85378210D01*
X147239707Y-85378213D01*
X147128213Y-85489707D01*
X147128210Y-85489711D01*
X147040609Y-85620814D01*
X147040602Y-85620827D01*
X146980264Y-85766498D01*
X146980261Y-85766510D01*
X146949500Y-85921153D01*
X138954788Y-85921153D01*
X138903978Y-85798485D01*
X138903971Y-85798472D01*
X138816370Y-85667369D01*
X138816367Y-85667365D01*
X138704873Y-85555871D01*
X138704869Y-85555868D01*
X138573766Y-85468267D01*
X138573753Y-85468260D01*
X138428082Y-85407922D01*
X138428070Y-85407919D01*
X138273426Y-85377158D01*
X138273423Y-85377158D01*
X138115739Y-85377158D01*
X138115736Y-85377158D01*
X137961091Y-85407919D01*
X137961079Y-85407922D01*
X137815408Y-85468260D01*
X137815390Y-85468270D01*
X137692890Y-85550122D01*
X137626213Y-85571000D01*
X137558833Y-85552515D01*
X137512143Y-85500536D01*
X137500000Y-85447020D01*
X137500000Y-83764566D01*
X140542913Y-83764566D01*
X140542913Y-83922259D01*
X140573674Y-84076902D01*
X140573677Y-84076914D01*
X140634015Y-84222585D01*
X140634022Y-84222598D01*
X140721623Y-84353701D01*
X140721626Y-84353705D01*
X140833120Y-84465199D01*
X140833124Y-84465202D01*
X140964227Y-84552803D01*
X140964240Y-84552810D01*
X141109911Y-84613148D01*
X141109916Y-84613150D01*
X141264566Y-84643912D01*
X141264569Y-84643913D01*
X141264571Y-84643913D01*
X141422257Y-84643913D01*
X141422258Y-84643912D01*
X141576910Y-84613150D01*
X141722592Y-84552807D01*
X141853702Y-84465202D01*
X141965202Y-84353702D01*
X142052807Y-84222592D01*
X142113150Y-84076910D01*
X142143913Y-83922255D01*
X142143913Y-83764571D01*
X142143913Y-83764568D01*
X142143912Y-83764566D01*
X142113151Y-83609923D01*
X142113150Y-83609916D01*
X142105803Y-83592179D01*
X142052810Y-83464240D01*
X142052803Y-83464227D01*
X141965202Y-83333124D01*
X141965199Y-83333120D01*
X141853705Y-83221626D01*
X141853701Y-83221623D01*
X141722598Y-83134022D01*
X141722585Y-83134015D01*
X141576914Y-83073677D01*
X141576902Y-83073674D01*
X141422258Y-83042913D01*
X141422255Y-83042913D01*
X141264571Y-83042913D01*
X141264568Y-83042913D01*
X141109923Y-83073674D01*
X141109911Y-83073677D01*
X140964240Y-83134015D01*
X140964227Y-83134022D01*
X140833124Y-83221623D01*
X140833120Y-83221626D01*
X140721626Y-83333120D01*
X140721623Y-83333124D01*
X140634022Y-83464227D01*
X140634015Y-83464240D01*
X140573677Y-83609911D01*
X140573674Y-83609923D01*
X140542913Y-83764566D01*
X137500000Y-83764566D01*
X137500000Y-81921153D01*
X139199500Y-81921153D01*
X139199500Y-82078846D01*
X139230261Y-82233489D01*
X139230264Y-82233501D01*
X139290602Y-82379172D01*
X139290609Y-82379185D01*
X139378210Y-82510288D01*
X139378213Y-82510292D01*
X139489707Y-82621786D01*
X139489711Y-82621789D01*
X139620814Y-82709390D01*
X139620827Y-82709397D01*
X139766498Y-82769735D01*
X139766503Y-82769737D01*
X139921153Y-82800499D01*
X139921156Y-82800500D01*
X139921158Y-82800500D01*
X140078844Y-82800500D01*
X140078845Y-82800499D01*
X140233497Y-82769737D01*
X140379179Y-82709394D01*
X140510289Y-82621789D01*
X140621789Y-82510289D01*
X140709394Y-82379179D01*
X140769737Y-82233497D01*
X140800500Y-82078842D01*
X140800500Y-81952740D01*
X142917913Y-81952740D01*
X142917913Y-82110433D01*
X142948674Y-82265076D01*
X142948677Y-82265088D01*
X143009015Y-82410759D01*
X143009022Y-82410772D01*
X143096623Y-82541875D01*
X143096626Y-82541879D01*
X143208120Y-82653373D01*
X143208124Y-82653376D01*
X143339227Y-82740977D01*
X143339240Y-82740984D01*
X143484911Y-82801322D01*
X143484916Y-82801324D01*
X143639566Y-82832086D01*
X143639569Y-82832087D01*
X143639571Y-82832087D01*
X143797257Y-82832087D01*
X143797258Y-82832086D01*
X143951910Y-82801324D01*
X144097592Y-82740981D01*
X144228702Y-82653376D01*
X144340202Y-82541876D01*
X144427807Y-82410766D01*
X144466476Y-82317408D01*
X144510315Y-82263008D01*
X144576609Y-82240942D01*
X144644308Y-82258220D01*
X144691919Y-82309357D01*
X144698965Y-82326539D01*
X144730127Y-82422445D01*
X144730128Y-82422446D01*
X144730129Y-82422449D01*
X144774885Y-82510288D01*
X144808768Y-82576788D01*
X144910586Y-82716928D01*
X145033072Y-82839414D01*
X145173212Y-82941232D01*
X145327555Y-83019873D01*
X145492299Y-83073402D01*
X145663389Y-83100500D01*
X145663390Y-83100500D01*
X145836610Y-83100500D01*
X145836611Y-83100500D01*
X146007701Y-83073402D01*
X146172445Y-83019873D01*
X146326788Y-82941232D01*
X146466928Y-82839414D01*
X146589414Y-82716928D01*
X146691232Y-82576788D01*
X146769873Y-82422445D01*
X146801292Y-82325745D01*
X146840728Y-82268072D01*
X146905086Y-82240873D01*
X146973933Y-82252787D01*
X147025409Y-82300031D01*
X147037152Y-82325744D01*
X147044780Y-82349220D01*
X147093052Y-82443959D01*
X147126849Y-82510289D01*
X147137715Y-82531613D01*
X147258028Y-82697213D01*
X147402786Y-82841971D01*
X147539410Y-82941232D01*
X147568390Y-82962287D01*
X147665088Y-83011557D01*
X147750776Y-83055218D01*
X147750778Y-83055218D01*
X147750781Y-83055220D01*
X147807577Y-83073674D01*
X147945465Y-83118477D01*
X148043567Y-83134015D01*
X148147648Y-83150500D01*
X148147649Y-83150500D01*
X148352351Y-83150500D01*
X148352352Y-83150500D01*
X148554534Y-83118477D01*
X148749219Y-83055220D01*
X148931610Y-82962287D01*
X149024590Y-82894732D01*
X149097213Y-82841971D01*
X149097215Y-82841968D01*
X149097219Y-82841966D01*
X149241966Y-82697219D01*
X149241968Y-82697215D01*
X149241971Y-82697213D01*
X149296771Y-82621786D01*
X149362287Y-82531610D01*
X149455220Y-82349219D01*
X149518477Y-82154534D01*
X149550500Y-81952352D01*
X149550500Y-81416228D01*
X149899500Y-81416228D01*
X149899500Y-81583771D01*
X149932182Y-81748074D01*
X149932184Y-81748082D01*
X149996295Y-81902860D01*
X150089373Y-82042162D01*
X150207837Y-82160626D01*
X150300494Y-82222537D01*
X150347137Y-82253703D01*
X150347138Y-82253703D01*
X150347139Y-82253704D01*
X150382201Y-82268227D01*
X150501918Y-82317816D01*
X150659793Y-82349219D01*
X150666228Y-82350499D01*
X150666232Y-82350500D01*
X150666233Y-82350500D01*
X150833768Y-82350500D01*
X150833769Y-82350499D01*
X150998082Y-82317816D01*
X151152863Y-82253703D01*
X151292162Y-82160626D01*
X151410626Y-82042162D01*
X151503703Y-81902863D01*
X151567816Y-81748082D01*
X151600500Y-81583767D01*
X151600500Y-81416233D01*
X151567816Y-81251918D01*
X151503703Y-81097137D01*
X151410626Y-80957838D01*
X151410625Y-80957837D01*
X151410623Y-80957834D01*
X151400437Y-80947648D01*
X151949500Y-80947648D01*
X151949500Y-82052351D01*
X151981522Y-82254534D01*
X152044781Y-82449223D01*
X152108691Y-82574653D01*
X152132707Y-82621786D01*
X152137715Y-82631613D01*
X152258028Y-82797213D01*
X152402786Y-82941971D01*
X152541724Y-83042913D01*
X152568390Y-83062287D01*
X152645246Y-83101447D01*
X152750776Y-83155218D01*
X152750778Y-83155218D01*
X152750781Y-83155220D01*
X152855137Y-83189127D01*
X152945465Y-83218477D01*
X153046557Y-83234488D01*
X153147648Y-83250500D01*
X153147649Y-83250500D01*
X153352351Y-83250500D01*
X153352352Y-83250500D01*
X153554534Y-83218477D01*
X153749219Y-83155220D01*
X153931610Y-83062287D01*
X154062087Y-82967491D01*
X154097213Y-82941971D01*
X154097215Y-82941968D01*
X154097219Y-82941966D01*
X154241966Y-82797219D01*
X154241968Y-82797215D01*
X154241971Y-82797213D01*
X154305777Y-82709390D01*
X154362287Y-82631610D01*
X154455220Y-82449219D01*
X154479092Y-82375745D01*
X154518529Y-82318072D01*
X154582888Y-82290873D01*
X154651734Y-82302787D01*
X154703210Y-82350031D01*
X154714952Y-82375741D01*
X154730127Y-82422445D01*
X154730128Y-82422446D01*
X154730129Y-82422449D01*
X154774885Y-82510288D01*
X154808768Y-82576788D01*
X154910586Y-82716928D01*
X155033072Y-82839414D01*
X155173212Y-82941232D01*
X155327555Y-83019873D01*
X155492299Y-83073402D01*
X155663389Y-83100500D01*
X155663390Y-83100500D01*
X155836610Y-83100500D01*
X155836611Y-83100500D01*
X156007701Y-83073402D01*
X156172445Y-83019873D01*
X156326788Y-82941232D01*
X156466928Y-82839414D01*
X156589414Y-82716928D01*
X156691232Y-82576788D01*
X156769873Y-82422445D01*
X156823402Y-82257701D01*
X156850500Y-82086611D01*
X156850500Y-80913389D01*
X156823402Y-80742299D01*
X156769873Y-80577555D01*
X156691232Y-80423212D01*
X156589414Y-80283072D01*
X156466928Y-80160586D01*
X156326788Y-80058768D01*
X156172445Y-79980127D01*
X156007701Y-79926598D01*
X156007699Y-79926597D01*
X156007697Y-79926597D01*
X155880236Y-79906409D01*
X155817101Y-79876480D01*
X155780170Y-79817168D01*
X155778017Y-79808127D01*
X155769738Y-79766510D01*
X155769738Y-79766508D01*
X155769737Y-79766503D01*
X155758102Y-79738414D01*
X155709397Y-79620827D01*
X155709390Y-79620814D01*
X155621789Y-79489711D01*
X155621786Y-79489707D01*
X155510292Y-79378213D01*
X155510288Y-79378210D01*
X155379185Y-79290609D01*
X155379172Y-79290602D01*
X155233501Y-79230264D01*
X155233489Y-79230261D01*
X155078845Y-79199500D01*
X155078842Y-79199500D01*
X154921158Y-79199500D01*
X154921155Y-79199500D01*
X154766510Y-79230261D01*
X154766498Y-79230264D01*
X154620827Y-79290602D01*
X154620814Y-79290609D01*
X154489711Y-79378210D01*
X154489707Y-79378213D01*
X154378213Y-79489707D01*
X154378210Y-79489711D01*
X154290609Y-79620814D01*
X154290602Y-79620827D01*
X154230264Y-79766498D01*
X154230261Y-79766508D01*
X154200586Y-79915694D01*
X154168201Y-79977605D01*
X154107485Y-80012179D01*
X154037716Y-80008439D01*
X154006084Y-79991821D01*
X153931609Y-79937712D01*
X153749223Y-79844781D01*
X153554534Y-79781522D01*
X153379995Y-79753878D01*
X153352352Y-79749500D01*
X153147648Y-79749500D01*
X153123329Y-79753351D01*
X152945465Y-79781522D01*
X152750776Y-79844781D01*
X152568386Y-79937715D01*
X152402786Y-80058028D01*
X152258028Y-80202786D01*
X152137715Y-80368386D01*
X152044781Y-80550776D01*
X151981522Y-80745465D01*
X151949500Y-80947648D01*
X151400437Y-80947648D01*
X151292162Y-80839373D01*
X151152860Y-80746295D01*
X150998082Y-80682184D01*
X150998074Y-80682182D01*
X150833771Y-80649500D01*
X150833767Y-80649500D01*
X150666233Y-80649500D01*
X150666228Y-80649500D01*
X150501925Y-80682182D01*
X150501917Y-80682184D01*
X150347139Y-80746295D01*
X150207837Y-80839373D01*
X150089373Y-80957837D01*
X149996295Y-81097139D01*
X149932184Y-81251917D01*
X149932182Y-81251925D01*
X149899500Y-81416228D01*
X149550500Y-81416228D01*
X149550500Y-81047648D01*
X149523987Y-80880252D01*
X149518477Y-80845465D01*
X149480924Y-80729890D01*
X149455220Y-80650781D01*
X149455218Y-80650777D01*
X149455218Y-80650776D01*
X149404265Y-80550776D01*
X149362287Y-80468390D01*
X149333962Y-80429404D01*
X149241971Y-80302786D01*
X149097213Y-80158028D01*
X148931613Y-80037715D01*
X148931612Y-80037714D01*
X148931610Y-80037713D01*
X148859376Y-80000908D01*
X148749223Y-79944781D01*
X148554534Y-79881522D01*
X148379995Y-79853878D01*
X148352352Y-79849500D01*
X148147648Y-79849500D01*
X148123329Y-79853351D01*
X147945465Y-79881522D01*
X147750776Y-79944781D01*
X147568386Y-80037715D01*
X147402786Y-80158028D01*
X147258028Y-80302786D01*
X147137715Y-80468386D01*
X147044781Y-80650777D01*
X147037152Y-80674256D01*
X146997712Y-80731930D01*
X146933352Y-80759126D01*
X146864507Y-80747209D01*
X146813032Y-80699963D01*
X146801293Y-80674256D01*
X146769873Y-80577555D01*
X146691232Y-80423212D01*
X146589414Y-80283072D01*
X146466928Y-80160586D01*
X146326788Y-80058768D01*
X146172445Y-79980127D01*
X146007701Y-79926598D01*
X146007699Y-79926597D01*
X146007698Y-79926597D01*
X145876271Y-79905781D01*
X145836611Y-79899500D01*
X145663389Y-79899500D01*
X145623728Y-79905781D01*
X145492302Y-79926597D01*
X145327552Y-79980128D01*
X145173211Y-80058768D01*
X145116747Y-80099792D01*
X145033072Y-80160586D01*
X145033070Y-80160588D01*
X145033069Y-80160588D01*
X144910588Y-80283069D01*
X144910588Y-80283070D01*
X144910586Y-80283072D01*
X144866859Y-80343256D01*
X144808768Y-80423211D01*
X144730128Y-80577552D01*
X144676597Y-80742302D01*
X144649500Y-80913389D01*
X144649500Y-81575420D01*
X144629815Y-81642459D01*
X144577011Y-81688214D01*
X144507853Y-81698158D01*
X144444297Y-81669133D01*
X144422398Y-81644311D01*
X144340202Y-81521298D01*
X144340199Y-81521294D01*
X144228705Y-81409800D01*
X144228701Y-81409797D01*
X144097598Y-81322196D01*
X144097585Y-81322189D01*
X143951914Y-81261851D01*
X143951902Y-81261848D01*
X143797258Y-81231087D01*
X143797255Y-81231087D01*
X143639571Y-81231087D01*
X143639568Y-81231087D01*
X143484923Y-81261848D01*
X143484911Y-81261851D01*
X143339240Y-81322189D01*
X143339227Y-81322196D01*
X143208124Y-81409797D01*
X143208120Y-81409800D01*
X143096626Y-81521294D01*
X143096623Y-81521298D01*
X143009022Y-81652401D01*
X143009015Y-81652414D01*
X142948677Y-81798085D01*
X142948674Y-81798097D01*
X142917913Y-81952740D01*
X140800500Y-81952740D01*
X140800500Y-81921158D01*
X140800500Y-81921155D01*
X140800499Y-81921153D01*
X140769738Y-81766510D01*
X140769737Y-81766503D01*
X140737309Y-81688214D01*
X140709397Y-81620827D01*
X140709390Y-81620814D01*
X140621789Y-81489711D01*
X140621786Y-81489707D01*
X140510292Y-81378213D01*
X140510288Y-81378210D01*
X140379185Y-81290609D01*
X140379172Y-81290602D01*
X140233501Y-81230264D01*
X140233489Y-81230261D01*
X140078845Y-81199500D01*
X140078842Y-81199500D01*
X139921158Y-81199500D01*
X139921155Y-81199500D01*
X139766510Y-81230261D01*
X139766498Y-81230264D01*
X139620827Y-81290602D01*
X139620814Y-81290609D01*
X139489711Y-81378210D01*
X139489707Y-81378213D01*
X139378213Y-81489707D01*
X139378210Y-81489711D01*
X139290609Y-81620814D01*
X139290602Y-81620827D01*
X139230264Y-81766498D01*
X139230261Y-81766510D01*
X139199500Y-81921153D01*
X137500000Y-81921153D01*
X137500000Y-80552142D01*
X137519685Y-80485103D01*
X137572489Y-80439348D01*
X137641647Y-80429404D01*
X137705203Y-80458429D01*
X137727102Y-80483251D01*
X137798457Y-80590041D01*
X137798460Y-80590045D01*
X137909954Y-80701539D01*
X137909958Y-80701542D01*
X138041061Y-80789143D01*
X138041074Y-80789150D01*
X138177035Y-80845466D01*
X138186750Y-80849490D01*
X138341179Y-80880208D01*
X138341400Y-80880252D01*
X138341403Y-80880253D01*
X138341405Y-80880253D01*
X138499091Y-80880253D01*
X138499092Y-80880252D01*
X138653744Y-80849490D01*
X138799426Y-80789147D01*
X138930536Y-80701542D01*
X139042036Y-80590042D01*
X139129641Y-80458932D01*
X139189984Y-80313250D01*
X139220747Y-80158595D01*
X139220747Y-80000911D01*
X139220747Y-80000908D01*
X139220746Y-80000906D01*
X139189985Y-79846263D01*
X139189984Y-79846256D01*
X139189373Y-79844780D01*
X139129644Y-79700580D01*
X139129637Y-79700567D01*
X139042036Y-79569464D01*
X139042033Y-79569460D01*
X138930539Y-79457966D01*
X138930535Y-79457963D01*
X138799432Y-79370362D01*
X138799419Y-79370355D01*
X138653748Y-79310017D01*
X138653736Y-79310014D01*
X138499092Y-79279253D01*
X138499089Y-79279253D01*
X138341405Y-79279253D01*
X138341402Y-79279253D01*
X138186757Y-79310014D01*
X138186745Y-79310017D01*
X138041074Y-79370355D01*
X138041061Y-79370362D01*
X137909958Y-79457963D01*
X137909954Y-79457966D01*
X137798460Y-79569460D01*
X137798457Y-79569464D01*
X137727102Y-79676254D01*
X137673489Y-79721059D01*
X137604164Y-79729766D01*
X137541137Y-79699611D01*
X137504418Y-79640168D01*
X137500000Y-79607363D01*
X137500000Y-78421153D01*
X142199500Y-78421153D01*
X142199500Y-78578846D01*
X142230261Y-78733489D01*
X142230264Y-78733501D01*
X142290602Y-78879172D01*
X142290609Y-78879185D01*
X142378210Y-79010288D01*
X142378213Y-79010292D01*
X142489707Y-79121786D01*
X142489711Y-79121789D01*
X142620814Y-79209390D01*
X142620827Y-79209397D01*
X142766498Y-79269735D01*
X142766503Y-79269737D01*
X142921153Y-79300499D01*
X142921156Y-79300500D01*
X142921158Y-79300500D01*
X143078844Y-79300500D01*
X143078845Y-79300499D01*
X143233497Y-79269737D01*
X143379179Y-79209394D01*
X143510289Y-79121789D01*
X143621789Y-79010289D01*
X143709394Y-78879179D01*
X143769737Y-78733497D01*
X143800500Y-78578842D01*
X143800500Y-78421158D01*
X143800500Y-78421155D01*
X143800499Y-78421153D01*
X143769738Y-78266510D01*
X143769737Y-78266503D01*
X143738003Y-78189890D01*
X143709397Y-78120827D01*
X143709390Y-78120814D01*
X143621789Y-77989711D01*
X143621786Y-77989707D01*
X143510292Y-77878213D01*
X143510288Y-77878210D01*
X143379185Y-77790609D01*
X143379172Y-77790602D01*
X143233501Y-77730264D01*
X143233489Y-77730261D01*
X143078845Y-77699500D01*
X143078842Y-77699500D01*
X142921158Y-77699500D01*
X142921155Y-77699500D01*
X142766510Y-77730261D01*
X142766498Y-77730264D01*
X142620827Y-77790602D01*
X142620814Y-77790609D01*
X142489711Y-77878210D01*
X142489707Y-77878213D01*
X142378213Y-77989707D01*
X142378210Y-77989711D01*
X142290609Y-78120814D01*
X142290602Y-78120827D01*
X142230264Y-78266498D01*
X142230261Y-78266510D01*
X142199500Y-78421153D01*
X137500000Y-78421153D01*
X137500000Y-77221119D01*
X138448899Y-77221119D01*
X138448899Y-77378812D01*
X138479660Y-77533455D01*
X138479663Y-77533467D01*
X138540001Y-77679138D01*
X138540008Y-77679151D01*
X138627609Y-77810254D01*
X138627612Y-77810258D01*
X138739106Y-77921752D01*
X138739110Y-77921755D01*
X138870213Y-78009356D01*
X138870226Y-78009363D01*
X139015897Y-78069701D01*
X139015902Y-78069703D01*
X139170552Y-78100465D01*
X139170555Y-78100466D01*
X139170557Y-78100466D01*
X139328243Y-78100466D01*
X139328244Y-78100465D01*
X139482896Y-78069703D01*
X139599397Y-78021447D01*
X139628571Y-78009363D01*
X139628571Y-78009362D01*
X139628578Y-78009360D01*
X139759688Y-77921755D01*
X139871188Y-77810255D01*
X139958793Y-77679145D01*
X140019136Y-77533463D01*
X140049899Y-77378808D01*
X140049899Y-77221124D01*
X140049899Y-77221121D01*
X140049898Y-77221119D01*
X140019136Y-77066469D01*
X139990046Y-76996239D01*
X139958796Y-76920793D01*
X139958789Y-76920780D01*
X139871188Y-76789677D01*
X139871185Y-76789673D01*
X139759691Y-76678179D01*
X139759687Y-76678176D01*
X139628584Y-76590575D01*
X139628571Y-76590568D01*
X139482900Y-76530230D01*
X139482888Y-76530226D01*
X139328244Y-76499466D01*
X139328241Y-76499466D01*
X139170557Y-76499466D01*
X139170554Y-76499466D01*
X139015909Y-76530227D01*
X139015897Y-76530230D01*
X138870226Y-76590568D01*
X138870213Y-76590575D01*
X138739110Y-76678176D01*
X138739106Y-76678179D01*
X138627612Y-76789673D01*
X138627609Y-76789677D01*
X138540008Y-76920780D01*
X138540001Y-76920793D01*
X138479663Y-77066464D01*
X138479660Y-77066476D01*
X138448899Y-77221119D01*
X137500000Y-77221119D01*
X137500000Y-76416228D01*
X144899500Y-76416228D01*
X144899500Y-76583771D01*
X144932182Y-76748074D01*
X144932184Y-76748082D01*
X144996295Y-76902860D01*
X145089373Y-77042162D01*
X145207837Y-77160626D01*
X145291612Y-77216602D01*
X145347137Y-77253703D01*
X145501918Y-77317816D01*
X145666228Y-77350499D01*
X145666232Y-77350500D01*
X145666233Y-77350500D01*
X145833768Y-77350500D01*
X145833769Y-77350499D01*
X145998082Y-77317816D01*
X146152863Y-77253703D01*
X146292162Y-77160626D01*
X146410626Y-77042162D01*
X146503703Y-76902863D01*
X146567022Y-76750000D01*
X149175885Y-76750000D01*
X149177085Y-76757584D01*
X149230591Y-76922255D01*
X149309195Y-77076524D01*
X149410967Y-77216602D01*
X149533397Y-77339032D01*
X149673475Y-77440804D01*
X149827742Y-77519408D01*
X149992415Y-77572914D01*
X150163429Y-77600000D01*
X150500000Y-77600000D01*
X151000000Y-77600000D01*
X151336571Y-77600000D01*
X151507584Y-77572914D01*
X151672257Y-77519408D01*
X151826524Y-77440804D01*
X151966602Y-77339032D01*
X152089032Y-77216602D01*
X152190804Y-77076524D01*
X152269408Y-76922255D01*
X152322914Y-76757584D01*
X152324115Y-76750000D01*
X151000000Y-76750000D01*
X151000000Y-77600000D01*
X150500000Y-77600000D01*
X150500000Y-76750000D01*
X149175885Y-76750000D01*
X146567022Y-76750000D01*
X146567816Y-76748082D01*
X146600500Y-76583767D01*
X146600500Y-76460218D01*
X150050000Y-76460218D01*
X150050000Y-76539782D01*
X150080448Y-76613291D01*
X150136709Y-76669552D01*
X150210218Y-76700000D01*
X151289782Y-76700000D01*
X151363291Y-76669552D01*
X151419552Y-76613291D01*
X151450000Y-76539782D01*
X151450000Y-76460218D01*
X151431779Y-76416228D01*
X154899500Y-76416228D01*
X154899500Y-76583771D01*
X154932182Y-76748074D01*
X154932184Y-76748082D01*
X154996295Y-76902860D01*
X155089373Y-77042162D01*
X155207837Y-77160626D01*
X155291612Y-77216602D01*
X155347137Y-77253703D01*
X155501918Y-77317816D01*
X155666228Y-77350499D01*
X155666232Y-77350500D01*
X155666233Y-77350500D01*
X155833768Y-77350500D01*
X155833769Y-77350499D01*
X155998082Y-77317816D01*
X156152863Y-77253703D01*
X156292162Y-77160626D01*
X156410626Y-77042162D01*
X156503703Y-76902863D01*
X156567816Y-76748082D01*
X156600500Y-76583767D01*
X156600500Y-76416233D01*
X156567816Y-76251918D01*
X156503703Y-76097137D01*
X156420212Y-75972184D01*
X156410626Y-75957837D01*
X156292162Y-75839373D01*
X156152860Y-75746295D01*
X155998082Y-75682184D01*
X155998074Y-75682182D01*
X155833771Y-75649500D01*
X155833767Y-75649500D01*
X155666233Y-75649500D01*
X155666228Y-75649500D01*
X155501925Y-75682182D01*
X155501917Y-75682184D01*
X155347139Y-75746295D01*
X155207837Y-75839373D01*
X155089373Y-75957837D01*
X154996295Y-76097139D01*
X154932184Y-76251917D01*
X154932182Y-76251925D01*
X154899500Y-76416228D01*
X151431779Y-76416228D01*
X151419552Y-76386709D01*
X151363291Y-76330448D01*
X151289782Y-76300000D01*
X150210218Y-76300000D01*
X150136709Y-76330448D01*
X150080448Y-76386709D01*
X150050000Y-76460218D01*
X146600500Y-76460218D01*
X146600500Y-76416233D01*
X146567816Y-76251918D01*
X146567021Y-76249999D01*
X149175884Y-76249999D01*
X149175885Y-76250000D01*
X150500000Y-76250000D01*
X151000000Y-76250000D01*
X152324115Y-76250000D01*
X152324115Y-76249999D01*
X152322914Y-76242415D01*
X152269408Y-76077744D01*
X152190804Y-75923475D01*
X152089032Y-75783397D01*
X151966602Y-75660967D01*
X151826524Y-75559195D01*
X151672257Y-75480591D01*
X151507584Y-75427085D01*
X151336571Y-75400000D01*
X151000000Y-75400000D01*
X151000000Y-76250000D01*
X150500000Y-76250000D01*
X150500000Y-75400000D01*
X150163429Y-75400000D01*
X149992415Y-75427085D01*
X149827742Y-75480591D01*
X149673475Y-75559195D01*
X149533397Y-75660967D01*
X149410967Y-75783397D01*
X149309195Y-75923475D01*
X149230591Y-76077744D01*
X149177085Y-76242415D01*
X149175884Y-76249999D01*
X146567021Y-76249999D01*
X146503703Y-76097137D01*
X146420212Y-75972184D01*
X146410626Y-75957837D01*
X146292162Y-75839373D01*
X146152860Y-75746295D01*
X145998082Y-75682184D01*
X145998074Y-75682182D01*
X145833771Y-75649500D01*
X145833767Y-75649500D01*
X145666233Y-75649500D01*
X145666228Y-75649500D01*
X145501925Y-75682182D01*
X145501917Y-75682184D01*
X145347139Y-75746295D01*
X145207837Y-75839373D01*
X145089373Y-75957837D01*
X144996295Y-76097139D01*
X144932184Y-76251917D01*
X144932182Y-76251925D01*
X144899500Y-76416228D01*
X137500000Y-76416228D01*
X137500000Y-74861711D01*
X137874501Y-74861711D01*
X137874501Y-75019404D01*
X137905262Y-75174047D01*
X137905265Y-75174059D01*
X137965603Y-75319730D01*
X137965610Y-75319743D01*
X138053211Y-75450846D01*
X138053214Y-75450850D01*
X138164708Y-75562344D01*
X138164712Y-75562347D01*
X138295815Y-75649948D01*
X138295828Y-75649955D01*
X138441499Y-75710293D01*
X138441504Y-75710295D01*
X138596154Y-75741057D01*
X138596157Y-75741058D01*
X138596159Y-75741058D01*
X138753845Y-75741058D01*
X138753846Y-75741057D01*
X138908498Y-75710295D01*
X139054180Y-75649952D01*
X139185290Y-75562347D01*
X139296790Y-75450847D01*
X139384395Y-75319737D01*
X139384399Y-75319725D01*
X139387265Y-75314366D01*
X139389215Y-75315408D01*
X139426806Y-75268734D01*
X139473362Y-75248954D01*
X139523687Y-75238944D01*
X139669369Y-75178601D01*
X139800479Y-75090996D01*
X139911979Y-74979496D01*
X139999584Y-74848386D01*
X140059927Y-74702704D01*
X140090690Y-74548049D01*
X140090690Y-74390365D01*
X140090690Y-74390362D01*
X140090689Y-74390360D01*
X140076449Y-74318771D01*
X140059927Y-74235710D01*
X140033050Y-74170822D01*
X139999587Y-74090034D01*
X139999580Y-74090021D01*
X139925419Y-73979032D01*
X139911979Y-73958917D01*
X139869290Y-73916228D01*
X144899500Y-73916228D01*
X144899500Y-74083771D01*
X144932182Y-74248074D01*
X144932184Y-74248082D01*
X144996295Y-74402860D01*
X145089373Y-74542162D01*
X145207837Y-74660626D01*
X145277343Y-74707068D01*
X145347137Y-74753703D01*
X145501918Y-74817816D01*
X145655570Y-74848379D01*
X145666228Y-74850499D01*
X145666232Y-74850500D01*
X145666233Y-74850500D01*
X145833768Y-74850500D01*
X145833769Y-74850499D01*
X145998082Y-74817816D01*
X146152863Y-74753703D01*
X146292162Y-74660626D01*
X146410626Y-74542162D01*
X146503703Y-74402863D01*
X146567816Y-74248082D01*
X146600500Y-74083767D01*
X146600500Y-73916233D01*
X146600499Y-73916228D01*
X154899500Y-73916228D01*
X154899500Y-74083771D01*
X154932182Y-74248074D01*
X154932184Y-74248082D01*
X154996295Y-74402860D01*
X155089373Y-74542162D01*
X155207837Y-74660626D01*
X155277343Y-74707068D01*
X155347137Y-74753703D01*
X155501918Y-74817816D01*
X155655570Y-74848379D01*
X155666228Y-74850499D01*
X155666232Y-74850500D01*
X155666233Y-74850500D01*
X155833768Y-74850500D01*
X155833769Y-74850499D01*
X155998082Y-74817816D01*
X156152863Y-74753703D01*
X156292162Y-74660626D01*
X156410626Y-74542162D01*
X156503703Y-74402863D01*
X156567816Y-74248082D01*
X156600500Y-74083767D01*
X156600500Y-73916233D01*
X156567816Y-73751918D01*
X156503703Y-73597137D01*
X156472537Y-73550494D01*
X156410626Y-73457837D01*
X156292162Y-73339373D01*
X156152860Y-73246295D01*
X155998082Y-73182184D01*
X155998074Y-73182182D01*
X155833771Y-73149500D01*
X155833767Y-73149500D01*
X155666233Y-73149500D01*
X155666228Y-73149500D01*
X155501925Y-73182182D01*
X155501917Y-73182184D01*
X155347139Y-73246295D01*
X155207837Y-73339373D01*
X155089373Y-73457837D01*
X154996295Y-73597139D01*
X154932184Y-73751917D01*
X154932182Y-73751925D01*
X154899500Y-73916228D01*
X146600499Y-73916228D01*
X146567816Y-73751918D01*
X146503703Y-73597137D01*
X146472537Y-73550494D01*
X146410626Y-73457837D01*
X146292162Y-73339373D01*
X146152860Y-73246295D01*
X145998082Y-73182184D01*
X145998074Y-73182182D01*
X145833771Y-73149500D01*
X145833767Y-73149500D01*
X145666233Y-73149500D01*
X145666228Y-73149500D01*
X145501925Y-73182182D01*
X145501917Y-73182184D01*
X145347139Y-73246295D01*
X145207837Y-73339373D01*
X145089373Y-73457837D01*
X144996295Y-73597139D01*
X144932184Y-73751917D01*
X144932182Y-73751925D01*
X144899500Y-73916228D01*
X139869290Y-73916228D01*
X139800482Y-73847420D01*
X139800478Y-73847417D01*
X139669375Y-73759816D01*
X139669362Y-73759809D01*
X139523691Y-73699471D01*
X139523679Y-73699468D01*
X139369035Y-73668707D01*
X139369032Y-73668707D01*
X139211348Y-73668707D01*
X139211345Y-73668707D01*
X139056700Y-73699468D01*
X139056688Y-73699471D01*
X138911017Y-73759809D01*
X138911004Y-73759816D01*
X138779901Y-73847417D01*
X138779897Y-73847420D01*
X138668403Y-73958914D01*
X138668397Y-73958922D01*
X138580797Y-74090025D01*
X138577924Y-74095401D01*
X138575981Y-74094362D01*
X138538346Y-74141056D01*
X138491829Y-74160810D01*
X138441508Y-74170820D01*
X138441499Y-74170822D01*
X138295828Y-74231160D01*
X138295815Y-74231167D01*
X138164712Y-74318768D01*
X138164708Y-74318771D01*
X138053214Y-74430265D01*
X138053211Y-74430269D01*
X137965610Y-74561372D01*
X137965603Y-74561385D01*
X137905265Y-74707056D01*
X137905262Y-74707068D01*
X137874501Y-74861711D01*
X137500000Y-74861711D01*
X137500000Y-72124500D01*
X137519685Y-72057461D01*
X137572489Y-72011706D01*
X137624000Y-72000500D01*
X143636830Y-72000500D01*
X143703869Y-72020185D01*
G37*
%TD.AperFunction*%
%TD*%
M02*
