%TF.GenerationSoftware,KiCad,Pcbnew,9.0.5*%
%TF.CreationDate,2025-10-29T14:00:37-04:00*%
%TF.ProjectId,MY-MP3,4d592d4d-5033-42e6-9b69-6361645f7063,rev?*%
%TF.SameCoordinates,Original*%
%TF.FileFunction,Soldermask,Top*%
%TF.FilePolarity,Negative*%
%FSLAX46Y46*%
G04 Gerber Fmt 4.6, Leading zero omitted, Abs format (unit mm)*
G04 Created by KiCad (PCBNEW 9.0.5) date 2025-10-29 14:00:37*
%MOMM*%
%LPD*%
G01*
G04 APERTURE LIST*
G04 Aperture macros list*
%AMRoundRect*
0 Rectangle with rounded corners*
0 $1 Rounding radius*
0 $2 $3 $4 $5 $6 $7 $8 $9 X,Y pos of 4 corners*
0 Add a 4 corners polygon primitive as box body*
4,1,4,$2,$3,$4,$5,$6,$7,$8,$9,$2,$3,0*
0 Add four circle primitives for the rounded corners*
1,1,$1+$1,$2,$3*
1,1,$1+$1,$4,$5*
1,1,$1+$1,$6,$7*
1,1,$1+$1,$8,$9*
0 Add four rect primitives between the rounded corners*
20,1,$1+$1,$2,$3,$4,$5,0*
20,1,$1+$1,$4,$5,$6,$7,0*
20,1,$1+$1,$6,$7,$8,$9,0*
20,1,$1+$1,$8,$9,$2,$3,0*%
%AMRotRect*
0 Rectangle, with rotation*
0 The origin of the aperture is its center*
0 $1 length*
0 $2 width*
0 $3 Rotation angle, in degrees counterclockwise*
0 Add horizontal line*
21,1,$1,$2,0,0,$3*%
G04 Aperture macros list end*
%ADD10RoundRect,0.135000X0.185000X-0.135000X0.185000X0.135000X-0.185000X0.135000X-0.185000X-0.135000X0*%
%ADD11R,1.700000X1.700000*%
%ADD12C,1.700000*%
%ADD13RoundRect,0.155000X-0.212500X-0.155000X0.212500X-0.155000X0.212500X0.155000X-0.212500X0.155000X0*%
%ADD14RoundRect,0.155000X-0.155000X0.212500X-0.155000X-0.212500X0.155000X-0.212500X0.155000X0.212500X0*%
%ADD15R,2.300000X1.600000*%
%ADD16RoundRect,0.147500X-0.172500X0.147500X-0.172500X-0.147500X0.172500X-0.147500X0.172500X0.147500X0*%
%ADD17R,0.800000X1.090000*%
%ADD18R,0.600000X1.800000*%
%ADD19O,0.800000X1.200000*%
%ADD20R,1.100000X0.500000*%
%ADD21RoundRect,0.147500X0.172500X-0.147500X0.172500X0.147500X-0.172500X0.147500X-0.172500X-0.147500X0*%
%ADD22RoundRect,0.155000X0.155000X-0.212500X0.155000X0.212500X-0.155000X0.212500X-0.155000X-0.212500X0*%
%ADD23R,1.090000X0.800000*%
%ADD24R,1.800000X0.600000*%
%ADD25O,1.200000X0.800000*%
%ADD26R,0.500000X1.100000*%
%ADD27RoundRect,0.160000X0.222500X0.160000X-0.222500X0.160000X-0.222500X-0.160000X0.222500X-0.160000X0*%
%ADD28RoundRect,0.155000X0.212500X0.155000X-0.212500X0.155000X-0.212500X-0.155000X0.212500X-0.155000X0*%
%ADD29RoundRect,0.100000X-0.217500X-0.100000X0.217500X-0.100000X0.217500X0.100000X-0.217500X0.100000X0*%
%ADD30RoundRect,0.135000X-0.135000X-0.185000X0.135000X-0.185000X0.135000X0.185000X-0.135000X0.185000X0*%
%ADD31RoundRect,0.250001X0.949999X-1.412499X0.949999X1.412499X-0.949999X1.412499X-0.949999X-1.412499X0*%
%ADD32RotRect,1.000000X1.250000X135.000000*%
%ADD33RotRect,1.000000X1.250000X225.000000*%
%ADD34RotRect,1.000000X1.250000X315.000000*%
%ADD35RotRect,1.000000X1.250000X45.000000*%
%ADD36RoundRect,0.135000X0.135000X0.185000X-0.135000X0.185000X-0.135000X-0.185000X0.135000X-0.185000X0*%
%ADD37RoundRect,0.100000X0.217500X0.100000X-0.217500X0.100000X-0.217500X-0.100000X0.217500X-0.100000X0*%
%ADD38RoundRect,0.075000X0.075000X-0.725000X0.075000X0.725000X-0.075000X0.725000X-0.075000X-0.725000X0*%
%ADD39RoundRect,0.075000X0.725000X-0.075000X0.725000X0.075000X-0.725000X0.075000X-0.725000X-0.075000X0*%
%ADD40C,1.200000*%
%ADD41O,1.200000X2.200000*%
%ADD42O,1.600000X2.300000*%
%ADD43O,2.200000X1.200000*%
%ADD44O,1.600000X2.500000*%
%ADD45C,1.000000*%
%ADD46C,0.650000*%
%ADD47O,1.000000X1.600000*%
%ADD48O,1.000000X2.100000*%
G04 APERTURE END LIST*
D10*
%TO.C,R6*%
X139750000Y-74500000D03*
X139750000Y-73480000D03*
%TD*%
D11*
%TO.C,J4*%
X159250000Y-102080000D03*
D12*
X159250000Y-99540000D03*
X159250000Y-97000000D03*
X159250000Y-94460000D03*
X159250000Y-91920000D03*
X159250000Y-89380000D03*
X159250000Y-86840000D03*
X159250000Y-84300000D03*
X159250000Y-81760000D03*
X159250000Y-79220000D03*
X159250000Y-76680000D03*
%TD*%
D13*
%TO.C,C8*%
X148182500Y-84500000D03*
X149317500Y-84500000D03*
%TD*%
D14*
%TO.C,C4*%
X140250000Y-82932500D03*
X140250000Y-84067500D03*
%TD*%
D15*
%TO.C,SW7*%
X139900000Y-110500000D03*
X133600000Y-110500000D03*
%TD*%
D16*
%TO.C,LED1*%
X133750000Y-125515000D03*
X133750000Y-126485000D03*
%TD*%
D15*
%TO.C,SW8*%
X151600000Y-110500000D03*
X157900000Y-110500000D03*
%TD*%
D17*
%TO.C,SW3*%
X132050000Y-74755000D03*
X134450000Y-74755000D03*
D18*
X133250000Y-74400000D03*
D19*
X131100000Y-73500000D03*
D20*
X131350000Y-72390000D03*
X135150000Y-72390000D03*
D19*
X135400000Y-73500000D03*
%TD*%
D21*
%TO.C,LED3*%
X135750000Y-126485000D03*
X135750000Y-125515000D03*
%TD*%
D10*
%TO.C,R5*%
X138250000Y-74510000D03*
X138250000Y-73490000D03*
%TD*%
D22*
%TO.C,C12*%
X140250000Y-89567500D03*
X140250000Y-88432500D03*
%TD*%
D21*
%TO.C,LED2*%
X131750000Y-126485000D03*
X131750000Y-125515000D03*
%TD*%
D23*
%TO.C,SW4*%
X133005000Y-80700000D03*
X133005000Y-78300000D03*
D24*
X132650000Y-79500000D03*
D25*
X131750000Y-81650000D03*
D26*
X130640000Y-81400000D03*
X130640000Y-77600000D03*
D25*
X131750000Y-77350000D03*
%TD*%
D23*
%TO.C,SW5*%
X133005000Y-86200000D03*
X133005000Y-83800000D03*
D24*
X132650000Y-85000000D03*
D25*
X131750000Y-87150000D03*
D26*
X130640000Y-86900000D03*
X130640000Y-83100000D03*
D25*
X131750000Y-82850000D03*
%TD*%
D27*
%TO.C,FB2*%
X137822500Y-88250000D03*
X136677500Y-88250000D03*
%TD*%
D22*
%TO.C,C19*%
X141750000Y-89567500D03*
X141750000Y-88432500D03*
%TD*%
%TO.C,C31*%
X142000000Y-110067500D03*
X142000000Y-108932500D03*
%TD*%
D27*
%TO.C,FB1*%
X137822500Y-87000000D03*
X136677500Y-87000000D03*
%TD*%
D28*
%TO.C,C7*%
X152317500Y-84500000D03*
X151182500Y-84500000D03*
%TD*%
D29*
%TO.C,R10*%
X145842500Y-84500000D03*
X146657500Y-84500000D03*
%TD*%
D30*
%TO.C,R8*%
X145740000Y-86000000D03*
X146760000Y-86000000D03*
%TD*%
D31*
%TO.C,Y1*%
X137250000Y-83262500D03*
X137250000Y-77737500D03*
%TD*%
D32*
%TO.C,SW6*%
X148419328Y-112275037D03*
X149974963Y-113830672D03*
D33*
X150540648Y-118603643D03*
X149197146Y-119947146D03*
X147853643Y-121290648D03*
D34*
X143080672Y-120724963D03*
X141525037Y-119169328D03*
D35*
X140959352Y-114396357D03*
X142302854Y-113052854D03*
X143646357Y-111709352D03*
%TD*%
D22*
%TO.C,C5*%
X140250000Y-78067500D03*
X140250000Y-76932500D03*
%TD*%
D36*
%TO.C,R7*%
X153760000Y-86000000D03*
X152740000Y-86000000D03*
%TD*%
D10*
%TO.C,R4*%
X134539985Y-81246265D03*
X134539985Y-80226265D03*
%TD*%
D28*
%TO.C,C18*%
X135817500Y-104600000D03*
X134682500Y-104600000D03*
%TD*%
D37*
%TO.C,R9*%
X154657500Y-84500000D03*
X153842500Y-84500000D03*
%TD*%
D38*
%TO.C,U1*%
X139750000Y-107185000D03*
X140250000Y-107185000D03*
X140750000Y-107185000D03*
X141250000Y-107185000D03*
X141750000Y-107185000D03*
X142250000Y-107185000D03*
X142750000Y-107185000D03*
X143250000Y-107185000D03*
X143750000Y-107185000D03*
X144250000Y-107185000D03*
X144750000Y-107185000D03*
X145250000Y-107185000D03*
X145750000Y-107185000D03*
X146250000Y-107185000D03*
X146750000Y-107185000D03*
X147250000Y-107185000D03*
X147750000Y-107185000D03*
X148250000Y-107185000D03*
X148750000Y-107185000D03*
X149250000Y-107185000D03*
X149750000Y-107185000D03*
X150250000Y-107185000D03*
X150750000Y-107185000D03*
X151250000Y-107185000D03*
X151750000Y-107185000D03*
D39*
X153425000Y-105510000D03*
X153425000Y-105010000D03*
X153425000Y-104510000D03*
X153425000Y-104010000D03*
X153425000Y-103510000D03*
X153425000Y-103010000D03*
X153425000Y-102510000D03*
X153425000Y-102010000D03*
X153425000Y-101510000D03*
X153425000Y-101010000D03*
X153425000Y-100510000D03*
X153425000Y-100010000D03*
X153425000Y-99510000D03*
X153425000Y-99010000D03*
X153425000Y-98510000D03*
X153425000Y-98010000D03*
X153425000Y-97510000D03*
X153425000Y-97010000D03*
X153425000Y-96510000D03*
X153425000Y-96010000D03*
X153425000Y-95510000D03*
X153425000Y-95010000D03*
X153425000Y-94510000D03*
X153425000Y-94010000D03*
X153425000Y-93510000D03*
D38*
X151750000Y-91835000D03*
X151250000Y-91835000D03*
X150750000Y-91835000D03*
X150250000Y-91835000D03*
X149750000Y-91835000D03*
X149250000Y-91835000D03*
X148750000Y-91835000D03*
X148250000Y-91835000D03*
X147750000Y-91835000D03*
X147250000Y-91835000D03*
X146750000Y-91835000D03*
X146250000Y-91835000D03*
X145750000Y-91835000D03*
X145250000Y-91835000D03*
X144750000Y-91835000D03*
X144250000Y-91835000D03*
X143750000Y-91835000D03*
X143250000Y-91835000D03*
X142750000Y-91835000D03*
X142250000Y-91835000D03*
X141750000Y-91835000D03*
X141250000Y-91835000D03*
X140750000Y-91835000D03*
X140250000Y-91835000D03*
X139750000Y-91835000D03*
D39*
X138075000Y-93510000D03*
X138075000Y-94010000D03*
X138075000Y-94510000D03*
X138075000Y-95010000D03*
X138075000Y-95510000D03*
X138075000Y-96010000D03*
X138075000Y-96510000D03*
X138075000Y-97010000D03*
X138075000Y-97510000D03*
X138075000Y-98010000D03*
X138075000Y-98510000D03*
X138075000Y-99010000D03*
X138075000Y-99510000D03*
X138075000Y-100010000D03*
X138075000Y-100510000D03*
X138075000Y-101010000D03*
X138075000Y-101510000D03*
X138075000Y-102010000D03*
X138075000Y-102510000D03*
X138075000Y-103010000D03*
X138075000Y-103510000D03*
X138075000Y-104010000D03*
X138075000Y-104510000D03*
X138075000Y-105010000D03*
X138075000Y-105510000D03*
%TD*%
D14*
%TO.C,C6*%
X140250000Y-79932500D03*
X140250000Y-81067500D03*
%TD*%
D40*
%TO.C,J7*%
X145750000Y-74000000D03*
X145750000Y-76500000D03*
X150750000Y-81500000D03*
X155750000Y-74000000D03*
X155750000Y-76500000D03*
D41*
X145750000Y-81500000D03*
D42*
X148250000Y-81500000D03*
D43*
X150750000Y-76500000D03*
D41*
X155750000Y-81500000D03*
D44*
X153250000Y-81500000D03*
%TD*%
D45*
%TO.C,J1*%
X131750000Y-103450000D03*
X131750000Y-95450000D03*
%TD*%
D46*
%TO.C,J2*%
X148640000Y-122645000D03*
X142860000Y-122645000D03*
D47*
X150068000Y-126295000D03*
D48*
X150068000Y-122115000D03*
X141432000Y-122115000D03*
D47*
X141432000Y-126295000D03*
%TD*%
M02*
